<svg width="100" height="16" viewBox="0 0 100 16" fill="none" xmlns="http://www.w3.org/2000/svg">
<path d="M8.60001 1.73346L10.1333 5.06679C10.2 5.26679 10.4 5.40012 10.6 5.46679L14.0667 6.00012C14.6667 6.00012 14.8667 6.66679 14.4667 7.06679L11.9333 9.66679C11.8 9.80012 11.7333 10.0668 11.7333 10.2668L12.3333 13.8668C12.4 14.4001 11.8667 14.8668 11.4 14.6001L8.26667 12.8668C8.06667 12.7335 7.86667 12.7335 7.66667 12.8668L4.53334 14.6001C4.06667 14.8668 3.46667 14.4668 3.60001 13.8668L4.20001 10.2668C4.26667 10.0668 4.13334 9.80012 4.00001 9.66679L1.46667 7.06679C1.13334 6.66679 1.33334 6.00012 1.86667 5.93346L5.33334 5.40012C5.53334 5.40012 5.73334 5.20012 5.80001 5.00012L7.33334 1.66679C7.66667 1.20012 8.33334 1.20012 8.60001 1.73346Z" fill="#FFE502"/>
<path d="M29.6 1.73346L31.1333 5.06679C31.2 5.26679 31.4 5.40012 31.6 5.46679L35.0667 6.00012C35.6667 6.00012 35.8667 6.66679 35.4667 7.06679L32.9333 9.66679C32.8 9.80012 32.7333 10.0668 32.7333 10.2668L33.3333 13.8668C33.4 14.4001 32.8667 14.8668 32.4 14.6001L29.2667 12.8668C29.0667 12.7335 28.8667 12.7335 28.6667 12.8668L25.5333 14.6001C25.0667 14.8668 24.4667 14.4668 24.6 13.8668L25.2 10.2668C25.2667 10.0668 25.1333 9.80012 25 9.66679L22.4667 7.06679C22.1333 6.66679 22.3333 6.00012 22.8667 5.93346L26.3333 5.40012C26.5333 5.40012 26.7333 5.20012 26.8 5.00012L28.3333 1.66679C28.6667 1.20012 29.3333 1.20012 29.6 1.73346Z" fill="#FFE502"/>
<path d="M50.6 1.73346L52.1333 5.06679C52.2 5.26679 52.4 5.40012 52.6 5.46679L56.0667 6.00012C56.6667 6.00012 56.8667 6.66679 56.4667 7.06679L53.9333 9.66679C53.8 9.80012 53.7333 10.0668 53.7333 10.2668L54.3333 13.8668C54.4 14.4001 53.8667 14.8668 53.4 14.6001L50.2667 12.8668C50.0667 12.7335 49.8667 12.7335 49.6667 12.8668L46.5333 14.6001C46.0667 14.8668 45.4667 14.4668 45.6 13.8668L46.2 10.2668C46.2667 10.0668 46.1333 9.80012 46 9.66679L43.4667 7.06679C43.1333 6.66679 43.3333 6.00012 43.8667 5.93346L47.3333 5.40012C47.5333 5.40012 47.7333 5.20012 47.8 5.00012L49.3333 1.66679C49.6667 1.20012 50.3333 1.20012 50.6 1.73346Z" fill="#FFE502"/>
<path d="M71.6 1.73346L73.1333 5.06679C73.2 5.26679 73.4 5.40012 73.6 5.46679L77.0667 6.00012C77.6667 6.00012 77.8667 6.66679 77.4667 7.06679L74.9333 9.66679C74.8 9.80012 74.7333 10.0668 74.7333 10.2668L75.3333 13.8668C75.4 14.4001 74.8667 14.8668 74.4 14.6001L71.2667 12.8668C71.0667 12.7335 70.8667 12.7335 70.6667 12.8668L67.5333 14.6001C67.0667 14.8668 66.4667 14.4668 66.6 13.8668L67.2 10.2668C67.2667 10.0668 67.1333 9.80012 67 9.66679L64.4667 7.06679C64.1333 6.66679 64.3333 6.00012 64.8667 5.93346L68.3333 5.40012C68.5333 5.40012 68.7333 5.20012 68.8 5.00012L70.3333 1.66679C70.6667 1.20012 71.3333 1.20012 71.6 1.73346Z" fill="#FFE502"/>
<path d="M92.6 1.73346L94.1333 5.06679C94.2 5.26679 94.4 5.40012 94.6 5.46679L98.0667 6.00012C98.6667 6.00012 98.8667 6.66679 98.4667 7.06679L95.9333 9.66679C95.8 9.80012 95.7333 10.0668 95.7333 10.2668L96.3333 13.8668C96.4 14.4001 95.8667 14.8668 95.4 14.6001L92.2667 12.8668C92.0667 12.7335 91.8667 12.7335 91.6667 12.8668L88.5333 14.6001C88.0667 14.8668 87.4667 14.4668 87.6 13.8668L88.2 10.2668C88.2667 10.0668 88.1333 9.80012 88 9.66679L85.4667 7.06679C85.1333 6.66679 85.3333 6.00012 85.8667 5.93346L89.3333 5.40012C89.5333 5.40012 89.7333 5.20012 89.8 5.00012L91.3333 1.66679C91.6667 1.20012 92.3333 1.20012 92.6 1.73346Z" fill="#C3C3C3"/>
</svg>
