<svg width="125" height="46" viewBox="0 0 125 46" fill="none" xmlns="http://www.w3.org/2000/svg">
<rect width="125" height="45.7639" rx="5" fill="black"/>
<path d="M43.7804 14.0638C43.0889 14.8664 41.9826 15.4995 40.8762 15.4091C40.7379 14.3238 41.2795 13.1706 41.9134 12.4584C42.6049 11.6331 43.815 11.0452 44.7946 11C44.9098 12.1305 44.4604 13.2385 43.7804 14.0638ZM44.7831 15.6239C43.1811 15.5335 41.8097 16.517 41.049 16.517C40.2769 16.517 39.1129 15.6691 37.8452 15.6917C36.1971 15.7143 34.6643 16.6301 33.823 18.0885C32.0943 21.0052 33.3736 25.3239 35.0446 27.698C35.8629 28.8738 36.8425 30.1626 38.1333 30.1174C39.3549 30.0722 39.8389 29.3373 41.3141 29.3373C42.8008 29.3373 43.2272 30.1174 44.518 30.0948C45.8549 30.0722 46.6962 28.919 47.5144 27.7432C48.4479 26.4092 48.8283 25.1091 48.8513 25.0413C48.8283 25.0187 46.2698 24.0577 46.2467 21.1635C46.2237 18.7442 48.2635 17.591 48.3557 17.5232C47.2033 15.85 45.4054 15.6691 44.7831 15.6239ZM54.0374 12.3453V29.9704H56.8264V23.9446H60.6872C64.2138 23.9446 66.6916 21.5705 66.6916 18.1337C66.6916 14.6969 64.2599 12.3453 60.7794 12.3453H54.0374ZM56.8264 14.6516H60.0418C62.462 14.6516 63.845 15.9178 63.845 18.145C63.845 20.3721 62.462 21.6497 60.0303 21.6497H56.8264V14.6516ZM71.7856 30.1061C73.5373 30.1061 75.1623 29.2356 75.8999 27.8563H75.9575V29.9704H78.5391V21.1974C78.5391 18.6537 76.4646 17.0145 73.2723 17.0145C70.3104 17.0145 68.1207 18.6763 68.04 20.96H70.5524C70.7599 19.8747 71.7856 19.1625 73.1916 19.1625C74.8973 19.1625 75.8538 19.9425 75.8538 21.3783V22.3506L72.3733 22.5541C69.1349 22.7463 67.3831 24.0464 67.3831 26.3075C67.3831 28.5912 69.1925 30.1061 71.7856 30.1061ZM72.5347 28.0146C71.048 28.0146 70.103 27.3136 70.103 26.2396C70.103 25.1317 71.0134 24.4873 72.7537 24.3856L75.8538 24.1934V25.1882C75.8538 26.8388 74.4247 28.0146 72.5347 28.0146ZM81.985 34.7639C84.7048 34.7639 85.9841 33.7464 87.102 30.66L92 17.184H89.1649L85.8804 27.5963H85.8227L82.5382 17.184H79.6224L84.3476 30.0156L84.094 30.7957C83.6676 32.1184 82.9761 32.6272 81.743 32.6272C81.524 32.6272 81.0976 32.6046 80.9247 32.5819V34.6961C81.0861 34.7413 81.7775 34.7639 81.985 34.7639Z" fill="white"/>
</svg>
