<svg width="6" height="9" viewBox="0 0 6 9" fill="none" xmlns="http://www.w3.org/2000/svg">
<path d="M4.18554 4.49898C4.12574 4.44862 4.08797 4.4203 4.05335 4.38568C2.93605 3.26838 1.81561 2.15108 0.701453 1.03063C0.632211 0.961387 0.57556 0.866968 0.550381 0.772548C0.509466 0.627771 0.597591 0.470405 0.729778 0.394869C0.861966 0.319333 1.02877 0.328774 1.15152 0.426342C1.18929 0.454668 1.22076 0.489288 1.25538 0.52391C2.47025 1.73878 3.68512 2.95364 4.90313 4.16851C5.13918 4.40456 5.13918 4.5934 4.90628 4.8263C3.67882 6.05376 2.45137 7.27807 1.22706 8.50553C1.11061 8.62198 0.981565 8.68807 0.814757 8.63771C0.559823 8.56218 0.462256 8.26004 0.622769 8.04916C0.651095 8.0114 0.685716 7.97992 0.720337 7.9453C1.83449 6.83115 2.95179 5.71385 4.06594 4.5997C4.09427 4.56822 4.13204 4.54304 4.18554 4.49898Z" fill="#616161"/>
</svg>
