<svg width="35" height="36" viewBox="0 0 35 36" fill="none" xmlns="http://www.w3.org/2000/svg">
<path d="M34.8476 27.8703C33.4999 35.393 19.4234 36.2475 11.9007 34.8997C4.37802 33.552 3.38262 26.4697 4.73037 18.9558C6.07811 11.4419 13.3189 10.7812 20.8416 12.129C28.3644 13.4767 36.1954 20.3564 34.8476 27.8703Z" fill="#E1E1E1"/>
<path d="M19.0094 30.9973C17.8818 31.6492 16.7543 32.2922 15.6356 32.9441C15.3713 33.0938 15.0895 33.2348 14.834 33.4109C14.5345 33.6136 14.2614 33.5959 13.9443 33.4109C11.4074 31.9311 8.86164 30.4688 6.3159 28.9977C4.37797 27.879 2.44884 26.7515 0.51091 25.6504C0.132132 25.439 0 25.1747 0 24.7519C0.00880879 19.6164 0.00880879 14.4897 0 9.35414C0 8.93132 0.140941 8.66706 0.51091 8.45565C4.97697 5.89229 9.43422 3.32012 13.8827 0.730336C14.2438 0.518925 14.5257 0.518925 14.8869 0.730336C19.3529 3.32012 23.819 5.9011 28.2938 8.47326C28.6286 8.66706 28.7695 8.90489 28.7695 9.29248C28.7607 12.1641 28.7695 15.0446 28.7607 17.9163C28.7607 18.2158 28.84 18.3832 29.1042 18.5417C31.9847 20.233 33.5263 23.686 32.892 26.9717C32.2402 30.3279 29.5535 32.9529 26.2326 33.455C23.5283 33.869 21.194 33.085 19.212 31.1911C19.1415 31.1295 19.0798 31.0678 19.0094 30.9973ZM27.686 17.793C27.6948 17.7577 27.7036 17.7137 27.7036 17.6696C27.7036 14.9742 27.7036 12.2699 27.6948 9.57436C27.6948 9.45985 27.5803 9.30129 27.4658 9.23082C26.2502 8.51731 25.0258 7.82141 23.8102 7.1079C23.6428 7.011 23.5195 7.01981 23.3609 7.11671C19.0887 9.59198 14.8076 12.0584 10.5265 14.5249C10.3415 14.6306 10.2622 14.7451 10.2711 14.9653C10.2799 15.9784 10.2799 16.9914 10.2711 18.0044C10.2711 18.6562 9.88346 18.8764 9.3197 18.5505C7.90149 17.7313 6.48327 16.9033 5.05625 16.0929C4.73913 15.9079 4.61581 15.6789 4.61581 15.3177C4.63342 14.1902 4.63342 13.0715 4.61581 11.9439C4.607 11.5651 4.75675 11.3361 5.08267 11.1511C9.24042 8.76395 13.3894 6.35915 17.5471 3.96316C17.6616 3.89269 17.785 3.82222 17.9347 3.72532C16.7719 3.05586 15.6532 2.3952 14.5169 1.76096C14.4288 1.70811 14.2438 1.76096 14.1381 1.82263C9.86585 4.28028 5.60239 6.74674 1.33013 9.20439C1.13633 9.31891 1.05705 9.44223 1.05705 9.67126C1.06586 14.5866 1.06586 19.4931 1.05705 24.4084C1.05705 24.655 1.13633 24.7783 1.33894 24.9017C5.6112 27.3593 9.87465 29.8258 14.1469 32.2922C14.3231 32.3979 14.4552 32.3891 14.6226 32.2834C15.6796 31.6668 16.7367 31.059 17.7938 30.4512C17.9611 30.3543 18.1285 30.2486 18.2782 30.1605C16.3667 27.051 16.1641 23.9063 18.2518 20.9025C20.5773 17.5904 23.8454 16.7447 27.686 17.793ZM24.9289 18.4272C21.0354 18.4272 17.8907 21.5719 17.8907 25.4654C17.8907 29.3501 21.0618 32.5125 24.9289 32.5036C28.7959 32.4948 31.9407 29.3413 31.9583 25.4742C31.9847 21.5984 28.8136 18.4272 24.9289 18.4272ZM22.4977 6.39439C22.4448 6.35034 22.4184 6.31511 22.3831 6.28868C21.3173 5.67207 20.2514 5.04664 19.1767 4.44764C19.0887 4.39479 18.9037 4.42122 18.798 4.48288C14.5081 6.94934 10.227 9.42461 5.93712 11.8999C5.76976 11.9968 5.69048 12.1025 5.69048 12.3139C5.69929 13.1948 5.69929 14.0757 5.69048 14.9565C5.69048 15.1591 5.75214 15.2736 5.92832 15.3705C6.93252 15.9431 7.92791 16.5245 8.93211 17.0971C9.00258 17.1411 9.08186 17.1675 9.20519 17.2204C9.20519 17.0618 9.20519 16.9385 9.20519 16.824C9.20519 16.0752 9.21399 15.3265 9.20519 14.5778C9.19638 14.2166 9.33732 13.9964 9.65444 13.8114C13.0194 11.8823 16.3844 9.93552 19.7405 7.98878C20.6566 7.46025 21.5639 6.93173 22.4977 6.39439Z" fill="black"/>
<path d="M22.4182 26.7602C23.5017 26.7602 24.594 26.7602 25.6775 26.7602C25.977 26.7602 26.2765 26.7602 26.5672 26.7162C27.8444 26.5312 28.7958 25.3773 28.7253 24.1264C28.646 22.7522 27.5978 21.704 26.2589 21.6864C25.0256 21.6688 23.7924 21.6864 22.5592 21.6776C22.4358 21.6776 22.3125 21.6776 22.198 21.6423C21.9337 21.5631 21.7928 21.3693 21.8192 21.0962C21.8457 20.8231 22.0042 20.6558 22.2861 20.6205C22.3301 20.6117 22.3742 20.6117 22.4182 20.6117C23.6955 20.6117 24.9728 20.5941 26.2501 20.6205C28.2496 20.6646 29.8088 22.2678 29.8 24.2233C29.7912 26.1701 28.2408 27.7644 26.2589 27.8173C25.1049 27.8525 23.951 27.8261 22.7882 27.8261C22.6649 27.8261 22.5504 27.8261 22.3654 27.8261C22.4623 27.9142 22.5151 27.9759 22.5768 28.0199C23.1758 28.4427 23.7836 28.8655 24.3914 29.2884C24.7349 29.535 24.8142 29.8257 24.6116 30.0988C24.4178 30.363 24.1095 30.3895 23.7748 30.1516C22.6561 29.3676 21.5373 28.5925 20.4186 27.8085C19.9606 27.4826 19.9518 27.1038 20.4186 26.7779C21.5462 25.9851 22.6737 25.2011 23.8012 24.4083C24.1271 24.1881 24.4266 24.2145 24.6204 24.47C24.823 24.743 24.7437 25.0425 24.409 25.2804C23.7484 25.7472 23.0789 26.2141 22.4182 26.681C22.4006 26.7074 22.4094 26.7338 22.4182 26.7602Z" fill="black"/>
</svg>
