<svg width="354" height="25" viewBox="0 0 354 25" fill="none" xmlns="http://www.w3.org/2000/svg">
<g clip-path="url(#clip0_1764_870)">
<path d="M285.403 15.4397C282.782 17.9097 280.261 20.0497 278.03 22.4397C276.29 24.3097 275.029 24.5997 273.158 22.5697C270.807 20.0197 268.156 17.7797 265.405 15.2297L255.041 24.6397L244.377 14.6897L233.583 24.6897L222.918 14.6897L211.914 24.6897L201.51 14.8297L190.886 24.5897L180.001 14.6797L169.117 24.9097C165.266 21.3397 161.774 18.0997 156.922 13.6197L148.919 24.7697L147.559 23.7197V24.5297L137.915 15.4397C135.294 17.9097 132.773 20.0497 130.542 22.4397C128.801 24.3097 127.541 24.5997 125.67 22.5697C123.319 20.0197 120.668 17.7797 117.917 15.2297L107.553 24.6397L96.8886 14.6897L86.0943 24.6897L75.4301 14.6897L64.4258 24.6897L54.0216 14.8297L43.3974 24.5897L32.5131 14.6797L21.6288 24.9097C17.7773 21.3397 14.2859 18.0997 9.43402 13.6197L1.43085 24.7697L0.0703125 23.7197V-0.0502625H294.977V24.5897L285.403 15.4397Z" fill="#F9F9F9"/>
</g>
<g clip-path="url(#clip1_1764_870)">
<path d="M344.427 15.4397C341.806 17.9097 339.285 20.0497 337.054 22.4397C335.313 24.3097 334.053 24.5997 332.182 22.5697C329.831 20.0197 327.18 17.7797 324.429 15.2297L314.065 24.6397L303.4 14.6897L292.606 24.6897L281.942 14.6897L270.938 24.6897L260.533 14.8297L249.909 24.5897L239.025 14.6797L228.141 24.9097C224.289 21.3397 220.798 18.0997 215.946 13.6197L207.943 24.7697L206.582 23.7197V24.5297L196.938 15.4397C194.317 17.9097 191.796 20.0497 189.565 22.4397C187.825 24.3097 186.564 24.5997 184.693 22.5697C182.342 20.0197 179.691 17.7797 176.94 15.2297L166.576 24.6397L155.912 14.6897L145.118 24.6897L134.454 14.6897L123.449 24.6897L113.045 14.8297L102.421 24.5897L91.5366 14.6797L80.6523 24.9097C76.8008 21.3397 73.3094 18.0997 68.4575 13.6197L60.4543 24.7697L59.0938 23.7197V-0.0502625H354V24.5897L344.427 15.4397Z" fill="#F9F9F9"/>
</g>
<defs>
<clipPath id="clip0_1764_870">
<rect width="294.977" height="24.97" fill="white" transform="matrix(1 0 0 -1 0 24.9697)"/>
</clipPath>
<clipPath id="clip1_1764_870">
<rect width="294.977" height="24.97" fill="white" transform="matrix(1 0 0 -1 59.0234 24.9697)"/>
</clipPath>
</defs>
</svg>
