<svg width="354" height="25" viewBox="0 0 354 25" fill="none" xmlns="http://www.w3.org/2000/svg">
<g clip-path="url(#clip0_1755_883)">
<path d="M344.427 9.53C341.806 7.06 339.285 4.92 337.054 2.53C335.313 0.659999 334.053 0.369994 332.182 2.39999C329.831 4.94999 327.18 7.18999 324.429 9.73999L314.065 0.329987L303.4 10.28L292.606 0.279999L281.942 10.28L270.938 0.279999L260.533 10.14L249.909 0.380005L239.025 10.29L228.141 0.0599976C224.289 3.63 220.798 6.87001 215.946 11.35L207.943 0.200012L206.582 1.25V0.440002L196.938 9.53C194.317 7.06 191.796 4.92 189.565 2.53C187.825 0.659999 186.564 0.369994 184.693 2.39999C182.342 4.94999 179.691 7.18999 176.94 9.73999L166.576 0.329987L155.912 10.28L145.118 0.279999L134.454 10.28L123.449 0.279999L113.045 10.14L102.421 0.380005L91.5366 10.29L80.6523 0.0599976C76.8008 3.63 73.3094 6.87001 68.4575 11.35L60.4543 0.200012L59.0938 1.25V25.02H354V0.380005L344.427 9.53Z" fill="#F9F9F9"/>
</g>
<g clip-path="url(#clip1_1755_883)">
<path d="M285.403 9.53C282.782 7.06 280.261 4.92 278.03 2.53C276.29 0.659999 275.029 0.369994 273.158 2.39999C270.807 4.94999 268.156 7.18999 265.405 9.73999L255.041 0.329987L244.377 10.28L233.583 0.279999L222.918 10.28L211.914 0.279999L201.51 10.14L190.886 0.380005L180.001 10.29L169.117 0.0599976C165.266 3.63 161.774 6.87001 156.922 11.35L148.919 0.200012L147.559 1.25V0.440002L137.915 9.53C135.294 7.06 132.773 4.92 130.542 2.53C128.801 0.659999 127.541 0.369994 125.67 2.39999C123.319 4.94999 120.668 7.18999 117.917 9.73999L107.553 0.329987L96.8886 10.28L86.0943 0.279999L75.4301 10.28L64.4258 0.279999L54.0216 10.14L43.3974 0.380005L32.5131 10.29L21.6288 0.0599976C17.7773 3.63 14.2859 6.87001 9.43402 11.35L1.43085 0.200012L0.0703125 1.25V25.02H294.977V0.380005L285.403 9.53Z" fill="#F9F9F9"/>
</g>
<defs>
<clipPath id="clip0_1755_883">
<rect width="294.977" height="24.97" fill="white" transform="translate(59.0234)"/>
</clipPath>
<clipPath id="clip1_1755_883">
<rect width="294.977" height="24.97" fill="white"/>
</clipPath>
</defs>
</svg>
