<svg width="24" height="24" viewBox="0 0 24 24" fill="none" xmlns="http://www.w3.org/2000/svg">
<path d="M20.0117 12C20.0117 16.4194 16.4311 20 12.0117 20C11.1859 20 10.3924 19.8742 9.64398 19.6419C9.96978 19.1097 10.4569 18.2387 10.6375 17.5452C10.7343 17.171 11.1343 15.6419 11.1343 15.6419C11.3956 16.1387 12.1569 16.5613 12.9666 16.5613C15.3795 16.5613 17.1182 14.3419 17.1182 11.5839C17.1182 8.94194 14.9601 6.96452 12.1859 6.96452C8.7343 6.96452 6.89882 9.28064 6.89882 11.8065C6.89882 12.9806 7.52462 14.4419 8.5214 14.9065C8.67301 14.9774 8.75365 14.9452 8.78914 14.8C8.81494 14.6903 8.95043 14.1452 9.01172 13.8935C9.03107 13.8129 9.0214 13.7419 8.95688 13.6645C8.63107 13.2613 8.36656 12.5258 8.36656 11.8387C8.36656 10.0742 9.70204 8.36774 11.9795 8.36774C13.944 8.36774 15.3214 9.70645 15.3214 11.6226C15.3214 13.7871 14.2278 15.2871 12.8053 15.2871C12.0214 15.2871 11.4311 14.6387 11.6214 13.8419C11.8472 12.8903 12.2827 11.8645 12.2827 11.1774C12.2827 10.5645 11.9537 10.0516 11.2698 10.0516C10.4666 10.0516 9.8214 10.8806 9.8214 11.9935C9.8214 12.7032 10.0601 13.1806 10.0601 13.1806C10.0601 13.1806 9.26978 16.529 9.12462 17.1548C8.96333 17.8452 9.02785 18.8194 9.09559 19.4516C6.1214 18.2871 4.01172 15.3903 4.01172 12C4.01172 7.58065 7.59236 4 12.0117 4C16.4311 4 20.0117 7.58065 20.0117 12Z" fill="black"/>
</svg>
