<svg width="24" height="24" viewBox="0 0 24 24" fill="none" xmlns="http://www.w3.org/2000/svg">
<path d="M15.3694 4H8.66204C5.74858 4 4.01172 5.736 4.01172 8.648V15.344C4.01172 18.264 5.74858 20 8.66204 20H15.3614C18.2748 20 20.0117 18.264 20.0117 15.352V8.648C20.0197 5.736 18.2828 4 15.3694 4ZM12.0157 15.104C10.3029 15.104 8.91016 13.712 8.91016 12C8.91016 10.288 10.3029 8.896 12.0157 8.896C13.7286 8.896 15.1213 10.288 15.1213 12C15.1213 13.712 13.7286 15.104 12.0157 15.104ZM16.7541 7.904C16.714 8 16.658 8.088 16.586 8.168C16.5059 8.24 16.4179 8.296 16.3219 8.336C16.2258 8.376 16.1218 8.4 16.0177 8.4C15.8016 8.4 15.6015 8.32 15.4494 8.168C15.3774 8.088 15.3214 8 15.2813 7.904C15.2413 7.808 15.2173 7.704 15.2173 7.6C15.2173 7.496 15.2413 7.392 15.2813 7.296C15.3214 7.192 15.3774 7.112 15.4494 7.032C15.6335 6.848 15.9136 6.76 16.1698 6.816C16.2258 6.824 16.2738 6.84 16.3219 6.864C16.3699 6.88 16.4179 6.904 16.4659 6.936C16.5059 6.96 16.546 7 16.586 7.032C16.658 7.112 16.714 7.192 16.7541 7.296C16.7941 7.392 16.8181 7.496 16.8181 7.6C16.8181 7.704 16.7941 7.808 16.7541 7.904Z" fill="black"/>
</svg>
