<svg width="25" height="24" viewBox="0 0 25 24" fill="none" xmlns="http://www.w3.org/2000/svg">
<path d="M20.0117 15.352C20.0117 18.264 18.2757 20 15.3637 20H14.4117C13.9717 20 13.6117 19.64 13.6117 19.2V14.584C13.6117 14.368 13.7877 14.184 14.0037 14.184L15.4117 14.16C15.5237 14.152 15.6197 14.072 15.6437 13.96L15.9237 12.432C15.9477 12.288 15.8357 12.152 15.6837 12.152L13.9797 12.176C13.7557 12.176 13.5797 12 13.5717 11.784L13.5397 9.824C13.5397 9.696 13.6437 9.58401 13.7797 9.58401L15.6997 9.552C15.8357 9.552 15.9397 9.44801 15.9397 9.31201L15.9077 7.39199C15.9077 7.25599 15.8037 7.152 15.6677 7.152L13.5077 7.18401C12.1797 7.20801 11.1237 8.296 11.1477 9.624L11.1877 11.824C11.1957 12.048 11.0197 12.224 10.7957 12.232L9.83572 12.248C9.69972 12.248 9.59573 12.352 9.59573 12.488L9.61973 14.008C9.61973 14.144 9.72372 14.248 9.85972 14.248L10.8197 14.232C11.0437 14.232 11.2197 14.408 11.2277 14.624L11.2997 19.184C11.3077 19.632 10.9477 20 10.4997 20H8.65972C5.74772 20 4.01172 18.264 4.01172 15.344V8.648C4.01172 5.736 5.74772 4 8.65972 4H15.3637C18.2757 4 20.0117 5.736 20.0117 8.648V15.352Z" fill="black"/>
</svg>
