<svg width="216" height="46" viewBox="0 0 216 46" fill="none" xmlns="http://www.w3.org/2000/svg">
<rect x="0.5" width="215" height="45.0736" rx="5" fill="#003087"/>
<path d="M75.3886 13C75.1828 13 75.008 13.1494 74.9758 13.3529L72.5935 28.4606C72.5849 28.5158 72.5883 28.5722 72.6035 28.626C72.6187 28.6797 72.6454 28.7295 72.6817 28.772C72.718 28.8144 72.7631 28.8485 72.8138 28.8719C72.8646 28.8953 72.9198 28.9074 72.9756 28.9074H75.8008C76.0063 28.9074 76.1814 28.7577 76.2136 28.5545L76.9134 24.118C76.9453 23.9149 77.1204 23.7651 77.3262 23.7651H79.8948C82.896 23.7651 85.4436 21.5754 85.909 18.6082C86.3782 15.6158 84.0405 13.0065 80.7272 13H75.3886ZM78.135 16.3726H80.1901C81.882 16.3726 82.433 17.371 82.2588 18.475C82.0846 19.5814 81.2289 20.3963 79.5922 20.3963H77.5004L78.135 16.3726ZM91.655 17.3996C90.9416 17.4023 90.1208 17.5484 89.1992 17.9323C87.0854 18.8134 86.0702 20.6343 85.6391 21.9619C85.6391 21.9619 84.267 26.0122 87.3671 28.2374C87.3671 28.2374 90.2421 30.3796 93.4787 28.1054L93.4228 28.4606C93.4142 28.5158 93.4176 28.5721 93.4328 28.6258C93.448 28.6795 93.4746 28.7293 93.5108 28.7717C93.5471 28.8142 93.5921 28.8483 93.6427 28.8717C93.6934 28.8951 93.7485 28.9073 93.8043 28.9074H96.4863C96.6921 28.9074 96.8669 28.7577 96.8991 28.5545L98.5305 18.2087C98.5393 18.1535 98.536 18.0971 98.5208 18.0433C98.5057 17.9895 98.4791 17.9396 98.4428 17.8971C98.4065 17.8546 98.3615 17.8205 98.3108 17.797C98.2601 17.7736 98.2049 17.7614 98.149 17.7613H95.467C95.2612 17.7613 95.0861 17.911 95.0543 18.1142L94.9666 18.6711C94.9666 18.6711 93.7955 17.3916 91.655 17.3996ZM91.7427 20.6674C92.0507 20.6674 92.3324 20.7099 92.5852 20.7911C93.7423 21.1626 94.3984 22.2743 94.2086 23.4793C93.9744 24.9631 92.7576 26.0556 91.1971 26.0556C90.8894 26.0556 90.6077 26.0134 90.3546 25.9322C89.1978 25.5607 88.5375 24.449 88.7274 23.244C88.9615 21.7602 90.1822 20.6674 91.7427 20.6674Z" fill="white"/>
<path d="M114.011 13C113.805 13 113.63 13.1494 113.598 13.3529L111.216 28.4606C111.207 28.5158 111.21 28.5722 111.226 28.626C111.241 28.6797 111.267 28.7295 111.304 28.772C111.34 28.8144 111.385 28.8485 111.436 28.8719C111.487 28.8953 111.542 28.9074 111.598 28.9074H114.423C114.628 28.9074 114.804 28.7577 114.836 28.5545L115.535 24.118C115.567 23.9149 115.742 23.7651 115.948 23.7651H118.517C121.518 23.7651 124.065 21.5754 124.53 18.6082C125 15.6158 122.663 13.0065 119.349 13H114.011ZM116.757 16.3726H118.812C120.504 16.3726 121.055 17.371 120.881 18.475C120.707 19.5814 119.851 20.3963 118.214 20.3963H116.123L116.757 16.3726ZM130.277 17.3996C129.563 17.4023 128.743 17.5484 127.821 17.9323C125.707 18.8134 124.692 20.6343 124.261 21.9619C124.261 21.9619 122.889 26.0122 125.989 28.2374C125.989 28.2374 128.864 30.3796 132.101 28.1054L132.045 28.4606C132.036 28.5158 132.04 28.5722 132.055 28.626C132.07 28.6797 132.097 28.7295 132.133 28.772C132.169 28.8144 132.214 28.8485 132.265 28.8719C132.316 28.8953 132.371 28.9074 132.427 28.9074H135.109C135.315 28.9074 135.489 28.7577 135.522 28.5545L137.153 18.2087C137.162 18.1534 137.159 18.097 137.144 18.0431C137.129 17.9893 137.102 17.9394 137.066 17.8969C137.029 17.8544 136.984 17.8202 136.933 17.7968C136.883 17.7734 136.827 17.7613 136.771 17.7613H134.089C133.884 17.7613 133.708 17.911 133.677 18.1142L133.589 18.6711C133.589 18.6711 132.417 17.3916 130.277 17.3996ZM130.365 20.6674C130.672 20.6674 130.954 20.7099 131.207 20.7911C132.364 21.1626 133.02 22.2743 132.83 23.4793C132.596 24.9631 131.379 26.0556 129.819 26.0556C129.511 26.0556 129.229 26.0134 128.976 25.9322C127.82 25.5607 127.159 24.449 127.349 23.244C127.583 21.7602 128.804 20.6674 130.365 20.6674Z" fill="white"/>
<path d="M99.8033 17.762C99.5907 17.762 99.4395 17.9696 99.5045 18.1719L102.445 27.2962L99.7862 31.596C99.6571 31.8047 99.8071 32.0743 100.053 32.0743H103.195C103.285 32.0742 103.373 32.051 103.451 32.0068C103.53 31.9626 103.595 31.899 103.642 31.8221L111.853 18.2374C111.98 18.0286 111.829 17.7617 111.585 17.7617H108.443C108.352 17.7618 108.263 17.7855 108.184 17.8305C108.106 17.8755 108.04 17.9402 107.994 18.0183L104.761 23.4756L103.12 18.0588C103.067 17.8825 102.904 17.7617 102.72 17.7617L99.8033 17.762Z" fill="white"/>
<path d="M140.201 13C139.995 13 139.82 13.1497 139.788 13.3529L137.405 28.46C137.396 28.5153 137.4 28.5717 137.415 28.6255C137.43 28.6794 137.457 28.7293 137.493 28.7718C137.529 28.8143 137.574 28.8484 137.625 28.8718C137.676 28.8953 137.731 28.9074 137.787 28.9074H140.612C140.818 28.9074 140.993 28.7577 141.025 28.5545L143.408 13.4468C143.416 13.3916 143.413 13.3353 143.398 13.2816C143.382 13.2278 143.356 13.1781 143.32 13.1356C143.283 13.0932 143.238 13.0591 143.188 13.0357C143.137 13.0123 143.082 13.0001 143.026 13H140.201Z" fill="white"/>
</svg>
