<svg width="215" height="46" viewBox="0 0 215 46" fill="none" xmlns="http://www.w3.org/2000/svg">
<rect y="0.601562" width="215" height="44.7947" rx="5" fill="#5A31F4"/>
<mask id="mask0_722_6991" style="mask-type:luminance" maskUnits="userSpaceOnUse" x="60" y="11" width="95" height="24">
<path d="M155 11.6016H60V34.3963H155V11.6016Z" fill="white"/>
</mask>
<g mask="url(#mask0_722_6991)">
<path d="M84.3192 18.768C83.5573 17.171 82.1128 16.1395 79.9361 16.1395C79.268 16.1511 78.6115 16.3159 78.0172 16.6211C77.423 16.9264 76.9068 17.364 76.5086 17.9001L76.4292 17.9967V11.7379C76.4292 11.7018 76.4148 11.6671 76.3892 11.6415C76.3636 11.6159 76.3289 11.6016 76.2927 11.6016H73.2151C73.1793 11.6022 73.1452 11.6169 73.1202 11.6424C73.0951 11.6679 73.0811 11.7022 73.0811 11.7379V29.6911C73.0811 29.7267 73.0952 29.7607 73.1203 29.7858C73.1455 29.8109 73.1795 29.825 73.2151 29.825H76.5111C76.5469 29.825 76.5812 29.811 76.6068 29.786C76.6323 29.7609 76.6469 29.7269 76.6476 29.6911V22.0362C76.6476 20.5484 77.6404 19.4945 79.2288 19.4945C80.9661 19.4945 81.4054 20.9228 81.4054 22.3784V29.6911C81.4054 29.7267 81.4196 29.7607 81.4447 29.7858C81.4698 29.8109 81.5039 29.825 81.5395 29.825H84.8279C84.8638 29.825 84.8981 29.811 84.9237 29.786C84.9492 29.7609 84.9639 29.7269 84.9646 29.6911V21.942C84.9646 21.6767 84.9646 21.4163 84.9298 21.1634C84.8733 20.3345 84.6664 19.5228 84.3192 18.768Z" fill="white"/>
<path d="M67.8802 21.4282C67.8802 21.4282 66.2024 21.0339 65.5844 20.8752C64.9664 20.7165 63.8868 20.3793 63.8868 19.5635C63.8868 18.7476 64.7579 18.4872 65.6415 18.4872C66.5251 18.4872 67.5079 18.7005 67.5849 19.68C67.588 19.7153 67.6042 19.7481 67.6304 19.772C67.6566 19.7959 67.6908 19.8091 67.7263 19.809L70.9752 19.7966C70.9943 19.7966 71.0132 19.7927 71.0307 19.7851C71.0483 19.7775 71.0641 19.7664 71.0771 19.7524C71.0902 19.7385 71.1002 19.722 71.1065 19.704C71.1129 19.6859 71.1155 19.6668 71.1141 19.6478C70.9131 16.5134 68.1606 15.3926 65.6216 15.3926C62.6111 15.3926 60.4096 17.3764 60.4096 19.5635C60.4096 21.1604 60.8613 22.6582 64.4129 23.6996C65.0359 23.8807 65.8823 24.1162 66.6219 24.3221C67.5104 24.5701 67.9894 24.9445 67.9894 25.5346C67.9894 26.219 66.9966 26.6951 66.0212 26.6951C64.609 26.6951 63.6063 26.1719 63.5244 25.2321C63.5201 25.1977 63.5034 25.1661 63.4773 25.1432C63.4512 25.1203 63.4176 25.1078 63.3829 25.1081L60.1416 25.123C60.1226 25.123 60.1037 25.1268 60.0862 25.1342C60.0688 25.1416 60.0529 25.1525 60.0397 25.1661C60.0265 25.1798 60.0162 25.196 60.0094 25.2137C60.0026 25.2314 59.9994 25.2503 60.0001 25.2693C60.149 28.2276 63.0082 29.8221 65.6738 29.8221C69.6449 29.8221 71.4393 27.5903 71.4393 25.4999C71.4443 24.5179 71.2184 22.2812 67.8802 21.4282Z" fill="white"/>
<path d="M109.67 16.1338C108.019 16.1338 106.637 17.0464 105.746 18.1474V16.2628C105.746 16.2277 105.732 16.194 105.707 16.169C105.683 16.1439 105.649 16.1295 105.614 16.1289H102.532C102.496 16.1289 102.462 16.143 102.437 16.1681C102.412 16.1932 102.397 16.2273 102.397 16.2628V33.8688C102.398 33.9038 102.413 33.9374 102.438 33.9618C102.463 33.9865 102.497 34.0003 102.532 34.0003H105.83C105.865 34.0003 105.898 33.9865 105.923 33.9618C105.948 33.9372 105.962 33.9036 105.962 33.8688V28.0811H106.011C106.535 28.8796 107.967 29.8368 109.839 29.8368C113.358 29.8368 116.291 26.9206 116.291 22.9804C116.294 19.1988 113.375 16.1338 109.67 16.1338ZM109.364 26.4817C108.67 26.499 107.985 26.309 107.399 25.936C106.813 25.5631 106.351 25.0241 106.073 24.3878C105.795 23.7515 105.712 23.0468 105.837 22.3637C105.961 21.6805 106.287 21.0499 106.771 20.5522C107.256 20.0546 107.878 19.7125 108.558 19.5697C109.238 19.4268 109.946 19.4897 110.59 19.7503C111.234 20.0108 111.786 20.4572 112.175 21.0326C112.564 21.6079 112.773 22.286 112.775 22.9804C112.782 23.4342 112.699 23.8851 112.531 24.307C112.364 24.7289 112.114 25.1136 111.798 25.4389C111.481 25.7643 111.103 26.0239 110.685 26.2028C110.267 26.3818 109.819 26.4765 109.364 26.4817Z" fill="white"/>
<path d="M92.6361 15.3613C89.561 15.3613 88.0271 16.4053 86.7959 17.241L86.7587 17.2658C86.6953 17.3092 86.6507 17.3749 86.6335 17.4499C86.6166 17.5248 86.6284 17.6034 86.667 17.67L87.883 19.7628C87.9059 19.802 87.9371 19.8356 87.9743 19.8613C88.0117 19.8871 88.0542 19.9042 88.0991 19.9116C88.1429 19.9195 88.1878 19.9176 88.2307 19.906C88.2736 19.8944 88.3134 19.8735 88.3473 19.8446L88.4439 19.7653C89.0768 19.2346 90.092 18.5254 92.5492 18.332C93.9166 18.2229 95.0981 18.58 95.9691 19.3933C96.9273 20.2761 97.5007 21.702 97.5007 23.2072C97.5007 25.977 95.8674 27.7178 93.2441 27.7525C91.0822 27.7401 89.6303 26.6143 89.6303 24.9504C89.6303 24.0676 90.0299 23.4923 90.8094 22.917C90.8688 22.8745 90.9108 22.8119 90.9278 22.7408C90.9447 22.6697 90.9352 22.5949 90.9011 22.5302L89.809 20.4671C89.7889 20.4301 89.7617 20.3976 89.7289 20.3712C89.6961 20.3448 89.6585 20.3251 89.618 20.3133C89.5766 20.301 89.5332 20.2976 89.4905 20.3031C89.4476 20.3086 89.4065 20.3231 89.3697 20.3456C88.1438 21.0721 86.6397 22.4013 86.7215 24.9554C86.8208 28.2063 89.5262 30.6885 93.043 30.7902H93.2192H93.46C97.6394 30.6537 100.658 27.5541 100.658 23.351C100.658 19.4925 97.8429 15.3613 92.6361 15.3613Z" fill="white"/>
<path d="M129.31 17.3438H127.215C127.166 17.3444 127.119 17.3642 127.084 17.3989C127.049 17.4337 127.03 17.4806 127.029 17.5297V21.9213C127.03 21.9702 127.05 22.0168 127.085 22.0512C127.119 22.0855 127.166 22.1048 127.215 22.1048H129.31C130.586 22.1048 131.526 21.1005 131.526 19.7243C131.526 18.348 130.586 17.3438 129.31 17.3438Z" fill="white"/>
<path d="M135.75 25.1139C135.75 25.7512 136.288 26.1058 137.227 26.1058C138.502 26.1058 139.257 25.4164 139.257 24.1939V23.8418L137.346 23.941C136.338 23.9906 135.75 24.4097 135.75 25.1139Z" fill="white"/>
<path d="M151.267 11.6406H123.122C122.66 11.6406 122.203 11.7316 121.776 11.9082C121.35 12.0848 120.962 12.3436 120.636 12.67C120.309 12.9963 120.051 13.3836 119.874 13.8099C119.697 14.2362 119.607 14.6931 119.607 15.1544V30.5485C119.607 31.48 119.978 32.3734 120.637 33.0322C121.296 33.6911 122.19 34.0616 123.122 34.0623H151.267C151.729 34.0636 152.187 33.9739 152.615 33.7982C153.042 33.6225 153.431 33.3643 153.758 33.0384C154.086 32.7125 154.346 32.3253 154.524 31.8989C154.701 31.4725 154.793 31.0153 154.794 30.5535V15.1594C154.794 14.6966 154.704 14.2382 154.527 13.8105C154.35 13.3828 154.09 12.9943 153.763 12.6673C153.435 12.3403 153.046 12.0813 152.617 11.9051C152.189 11.7289 151.73 11.639 151.267 11.6406ZM129.426 23.8335H127.212C127.163 23.8335 127.115 23.853 127.08 23.8879C127.045 23.9228 127.026 23.9701 127.026 24.0194V27.1687C127.026 27.218 127.006 27.2653 126.971 27.3002C126.936 27.3351 126.889 27.3546 126.84 27.3546H125.281C125.232 27.354 125.185 27.3342 125.15 27.2994C125.115 27.2647 125.096 27.2178 125.095 27.1687V15.809C125.095 15.7598 125.114 15.7124 125.15 15.6775C125.184 15.6427 125.231 15.6231 125.281 15.6231H129.426C131.774 15.6231 133.454 17.3316 133.454 19.7295C133.454 22.1274 131.786 23.8384 129.438 23.8384L129.426 23.8335ZM141.091 27.1662C141.091 27.1908 141.087 27.2152 141.077 27.2381C141.068 27.261 141.054 27.2818 141.037 27.2993C141.02 27.3168 140.999 27.3308 140.976 27.3403C140.954 27.3497 140.929 27.3546 140.905 27.3546H139.433C139.408 27.3546 139.384 27.3497 139.361 27.3403C139.338 27.3308 139.318 27.3168 139.3 27.2993C139.283 27.2818 139.269 27.261 139.26 27.2381C139.251 27.2152 139.246 27.1908 139.247 27.1662V26.8265C139.249 26.7966 139.242 26.7668 139.226 26.7415C139.21 26.7161 139.187 26.6965 139.159 26.6857C139.131 26.6748 139.1 26.6732 139.072 26.6812C139.042 26.6891 139.017 26.7062 138.999 26.7298C138.559 27.2083 137.844 27.5555 136.705 27.5555C135.028 27.5555 133.918 26.6826 133.918 25.175C133.902 24.8074 133.978 24.4415 134.139 24.1106C134.3 23.7798 134.542 23.4945 134.842 23.2805C135.447 22.8267 136.385 22.5911 137.777 22.5365L139.254 22.487V22.0555C139.254 21.1851 138.668 20.8156 137.728 20.8156C136.787 20.8156 136.194 21.1479 136.055 21.691C136.044 21.7293 136.02 21.7629 135.988 21.7862C135.956 21.8096 135.916 21.8215 135.876 21.8199H134.419C134.393 21.8206 134.366 21.8153 134.341 21.8047C134.317 21.7939 134.295 21.778 134.277 21.7579C134.259 21.7378 134.246 21.7141 134.239 21.6883C134.231 21.6626 134.229 21.6356 134.233 21.6091C134.452 20.3197 135.519 19.3402 137.795 19.3402C140.212 19.3402 141.083 20.4635 141.083 22.6084L141.091 27.1662ZM150.259 19.7964L146.983 28.5276C146.238 30.5559 144.935 31.0767 143.508 31.0767C143.239 31.0833 142.971 31.0507 142.712 30.98C142.671 30.9691 142.636 30.9453 142.61 30.9121C142.584 30.879 142.57 30.8383 142.57 30.7965V29.4698C142.57 29.4421 142.576 29.4146 142.588 29.3895C142.6 29.3643 142.616 29.3421 142.638 29.3243C142.659 29.3065 142.684 29.2937 142.711 29.2867C142.738 29.2797 142.766 29.2787 142.793 29.2838C143.019 29.3265 143.247 29.3481 143.476 29.3484C143.871 29.3681 144.261 29.255 144.583 29.027C144.906 28.7991 145.143 28.4695 145.255 28.0911L145.352 27.7861C145.367 27.7453 145.367 27.7005 145.352 27.6596L142.289 19.7989C142.28 19.7708 142.278 19.7409 142.282 19.7116C142.287 19.6823 142.298 19.6544 142.315 19.6303C142.332 19.6062 142.355 19.5864 142.381 19.5726C142.407 19.5588 142.436 19.5514 142.466 19.551H143.955C143.993 19.5513 144.03 19.5631 144.062 19.5847C144.093 19.6064 144.117 19.6369 144.131 19.6725L146.211 25.2171C146.225 25.2533 146.249 25.2845 146.281 25.3066C146.313 25.3286 146.351 25.3404 146.39 25.3404C146.428 25.3404 146.467 25.3286 146.498 25.3066C146.53 25.2845 146.555 25.2533 146.568 25.2171L148.373 19.6874C148.385 19.6497 148.409 19.6168 148.441 19.5936C148.473 19.5704 148.512 19.5581 148.551 19.5584H150.078C150.107 19.5583 150.136 19.5651 150.163 19.5783C150.189 19.5915 150.212 19.6106 150.23 19.6343C150.248 19.6579 150.259 19.6853 150.264 19.7144C150.27 19.7434 150.268 19.7732 150.259 19.8014V19.7964Z" fill="white"/>
</g>
</svg>
