<svg width="215" height="46" viewBox="0 0 215 46" fill="none" xmlns="http://www.w3.org/2000/svg">
<rect y="0.117188" width="215" height="45.7639" rx="5" fill="black"/>
<path d="M88.7804 14.1809C88.0889 14.9836 86.9826 15.6167 85.8762 15.5263C85.7379 14.441 86.2795 13.2878 86.9134 12.5756C87.6049 11.7503 88.815 11.1624 89.7946 11.1172C89.9098 12.2477 89.4604 13.3557 88.7804 14.1809ZM89.7831 15.7411C88.1811 15.6506 86.8097 16.6342 86.049 16.6342C85.2769 16.6342 84.1129 15.7863 82.8452 15.8089C81.1971 15.8315 79.6643 16.7473 78.823 18.2057C77.0943 21.1224 78.3736 25.4411 80.0446 27.8152C80.8629 28.991 81.8425 30.2798 83.1333 30.2346C84.3549 30.1893 84.8389 29.4545 86.3141 29.4545C87.8008 29.4545 88.2272 30.2346 89.518 30.212C90.8549 30.1893 91.6962 29.0362 92.5144 27.8604C93.4479 26.5264 93.8283 25.2263 93.8513 25.1585C93.8283 25.1358 91.2698 24.1749 91.2467 21.2807C91.2237 18.8614 93.2635 17.7082 93.3557 17.6404C92.2033 15.9672 90.4054 15.7863 89.7831 15.7411ZM99.0374 12.4625V30.0876H101.826V24.0618H105.687C109.214 24.0618 111.692 21.6877 111.692 18.2509C111.692 14.814 109.26 12.4625 105.779 12.4625H99.0374ZM101.826 14.7688H105.042C107.462 14.7688 108.845 16.035 108.845 18.2622C108.845 20.4893 107.462 21.7668 105.03 21.7668H101.826V14.7688ZM116.786 30.2233C118.537 30.2233 120.162 29.3527 120.9 27.9735H120.958V30.0876H123.539V21.3146C123.539 18.7709 121.465 17.1316 118.272 17.1316C115.31 17.1316 113.121 18.7935 113.04 21.0772H115.552C115.76 19.9919 116.786 19.2797 118.192 19.2797C119.897 19.2797 120.854 20.0597 120.854 21.4955V22.4678L117.373 22.6713C114.135 22.8635 112.383 24.1636 112.383 26.4247C112.383 28.7083 114.193 30.2233 116.786 30.2233ZM117.535 28.1318C116.048 28.1318 115.103 27.4308 115.103 26.3568C115.103 25.2489 116.013 24.6045 117.754 24.5027L120.854 24.3106V25.3054C120.854 26.956 119.425 28.1318 117.535 28.1318ZM126.985 34.8811C129.705 34.8811 130.984 33.8636 132.102 30.7772L137 17.3012H134.165L130.88 27.7135H130.823L127.538 17.3012H124.622L129.348 30.1328L129.094 30.9129C128.668 32.2356 127.976 32.7444 126.743 32.7444C126.524 32.7444 126.098 32.7217 125.925 32.6991V34.8132C126.086 34.8585 126.778 34.8811 126.985 34.8811Z" fill="white"/>
</svg>
