<svg width="215" height="46" viewBox="0 0 215 46" fill="none" xmlns="http://www.w3.org/2000/svg">
<rect width="215" height="46" rx="5" fill="black"/>
<g clip-path="url(#clip0_722_7005)">
<path d="M105.823 23.4935V30.5599H103.535V13.084H109.483C110.931 13.084 112.304 13.6159 113.371 14.6036C114.439 15.5154 114.973 16.8831 114.973 18.3267C114.973 19.7704 114.439 21.0621 113.371 22.0499C112.304 23.0376 111.008 23.5695 109.483 23.5695L105.823 23.4935ZM105.823 15.2115V21.29H109.635C110.474 21.29 111.313 20.9861 111.846 20.3783C113.066 19.2385 113.066 17.339 111.923 16.1992L111.846 16.1233C111.236 15.5154 110.474 15.1355 109.635 15.2115H105.823Z" fill="white"/>
<path d="M120.234 18.252C121.911 18.252 123.208 18.7078 124.199 19.6196C125.19 20.5314 125.648 21.7471 125.648 23.2668V30.561H123.513V28.8894H123.436C122.521 30.2571 121.225 30.941 119.7 30.941C118.404 30.941 117.26 30.561 116.345 29.8012C115.506 29.0414 114.973 27.9777 114.973 26.8379C114.973 25.6222 115.43 24.6344 116.345 23.8746C117.26 23.1148 118.556 22.8109 120.081 22.8109C121.454 22.8109 122.521 23.0388 123.36 23.5707V23.0388C123.36 22.279 123.055 21.5192 122.445 21.0633C121.835 20.5314 121.073 20.2275 120.234 20.2275C118.938 20.2275 117.946 20.7594 117.26 21.8231L115.278 20.6074C116.498 19.0118 118.099 18.252 120.234 18.252ZM117.336 26.9139C117.336 27.5218 117.641 28.0536 118.099 28.3576C118.633 28.7375 119.243 28.9654 119.853 28.9654C120.768 28.9654 121.683 28.5855 122.369 27.9017C123.131 27.2178 123.513 26.382 123.513 25.4702C122.826 24.9384 121.835 24.6344 120.539 24.6344C119.624 24.6344 118.861 24.8624 118.251 25.3183C117.641 25.6982 117.336 26.2301 117.336 26.9139Z" fill="white"/>
<path d="M138 18.6309L130.451 35.8788H128.163L130.985 29.8762L126.028 18.7068H128.468L132.052 27.2928H132.128L135.636 18.7068H138V18.6309Z" fill="white"/>
<path d="M96.7492 21.9734C96.7492 21.2896 96.6729 20.6057 96.5967 19.9219H87.0654V23.797H92.4792C92.2504 25.0127 91.5642 26.1524 90.4967 26.8362V29.3436H93.7754C95.6817 27.5961 96.7492 25.0127 96.7492 21.9734Z" fill="#4285F4"/>
<path d="M87.0649 31.7766C89.8099 31.7766 92.0974 30.8648 93.7749 29.3451L90.4961 26.8377C89.5811 27.4456 88.4374 27.8255 87.0649 27.8255C84.4724 27.8255 82.1849 26.0779 81.4224 23.6465H78.0674V26.2299C79.8211 29.6491 83.2524 31.7766 87.0649 31.7766Z" fill="#34A853"/>
<path d="M81.422 23.646C80.9645 22.4303 80.9645 21.0626 81.422 19.7709V17.1875H78.067C76.6183 19.9988 76.6183 23.342 78.067 26.2294L81.422 23.646Z" fill="#FBBC04"/>
<path d="M87.0648 15.668C88.5136 15.668 89.8861 16.1999 90.9536 17.1877L93.8511 14.3004C92.0211 12.6288 89.5811 11.641 87.1411 11.717C83.3286 11.717 79.8211 13.8445 78.1436 17.2637L81.4986 19.8471C82.1848 17.4156 84.4723 15.668 87.0648 15.668Z" fill="#EA4335"/>
</g>
<defs>
<clipPath id="clip0_722_7005">
<rect width="61" height="28.9492" fill="white" transform="translate(77 8.52539)"/>
</clipPath>
</defs>
</svg>
