<svg width="66" height="66" viewBox="0 0 66 66" fill="none" xmlns="http://www.w3.org/2000/svg">
<path d="M33.6478 0C33.8273 0.0994268 34.0082 0.198854 34.1877 0.296989C35.1242 0.807035 35.6022 1.79356 35.4497 2.90016C35.3141 3.87893 34.552 4.74666 33.5277 4.89257C32.4904 5.04107 31.4325 5.03461 30.3862 5.13016C24.7337 5.64279 19.6986 7.7088 15.3249 11.3011C10.6101 15.1723 7.33305 20.0416 5.90183 25.9917C3.5845 35.6322 5.66157 44.2785 12.2571 51.7303C16.6411 56.6849 22.1826 59.6987 28.7147 60.6516C37.2 61.8899 44.8017 59.7335 51.3326 54.114C55.7154 50.3422 58.6411 45.6304 60.1124 40.0315C60.6588 37.95 60.9649 35.8337 60.9959 33.6786C61.0011 33.2938 61.0166 32.9025 61.0889 32.5268C61.3434 31.2019 62.453 30.4039 63.8131 30.5369C65.0545 30.6583 65.9961 31.6874 66 32.9813C66.0142 38.2419 64.8646 43.2403 62.4271 47.9005C57.7976 56.7494 50.6467 62.5665 40.9589 64.998C23.5582 69.3637 6.03229 59.0685 1.2 41.7373C0.657481 39.7901 0.47535 37.7421 0.124004 35.7407C0.0904198 35.5535 0.0413348 35.3688 0 35.1816C0 33.7212 0 32.2608 0 30.8003C0.0994618 30.0178 0.184715 29.2328 0.298385 28.4515C1.24521 21.9656 3.82734 16.2143 8.1662 11.2972C13.4687 5.29157 20.09 1.62957 28.0237 0.382212C28.9498 0.2363 29.8825 0.126543 30.8112 0C31.7567 0 32.7023 0 33.6478 0Z" fill="#04943D"/>
<path d="M30.9288 38.8577C31.0631 38.6356 31.16 38.3748 31.3382 38.1953C40.9705 28.5754 50.6119 18.9633 60.2467 9.34476C61.0192 8.57388 61.8549 8.06771 63.0007 8.37761C64.7432 8.84892 65.4278 10.9343 64.2898 12.3366C64.1283 12.5355 63.9423 12.7162 63.7602 12.8983C53.4523 23.1806 43.1445 33.4616 32.8366 43.7425C31.2917 45.2843 29.9341 45.2365 28.4448 43.6186C24.6355 39.4788 20.8121 35.3533 17.017 31.1993C16.521 30.657 16.0159 30.0397 15.777 29.3644C15.3933 28.2772 15.9785 27.1163 16.9654 26.5792C18 26.0162 19.1884 26.2163 20.068 27.1551C21.5948 28.7846 23.0971 30.4361 24.611 32.0786C26.5602 34.195 28.5107 36.3101 30.4586 38.4277C30.5451 38.522 30.6032 38.6434 30.6743 38.7518C30.7595 38.7867 30.8448 38.8216 30.9288 38.8564V38.8577Z" fill="#04943D"/>
</svg>
