<svg width="14" height="18" viewBox="0 0 14 18" fill="none" xmlns="http://www.w3.org/2000/svg">
<path d="M11.0736 17.2376H2.89471C2.65658 17.1475 2.39888 17.0902 2.18402 16.9616C1.46152 16.5299 1.14581 15.861 1.14547 15.0336C1.14412 11.7933 1.14491 8.55286 1.14783 5.3123C1.14783 5.18142 1.11916 5.11633 0.985593 5.07281C0.730931 4.99017 0.526864 4.82557 0.351467 4.62117C0.163928 4.40192 0.0816268 4.13849 0 3.87202V3.3998C0.00742061 3.39171 0.020238 3.38462 0.0215872 3.37552C0.159206 2.60344 0.824026 2.05802 1.73777 2.08838C2.29803 2.10693 2.8593 2.09175 3.42023 2.09175H3.60541C3.60541 1.90691 3.60203 1.75007 3.60541 1.59356C3.62328 0.845762 4.06582 0.265942 4.78596 0.063562C4.92613 0.0247755 5.07091 0.00514622 5.21635 0.00520901C6.40534 0.000486799 7.59466 0.00520899 8.78365 0.00149868C9.60936 -0.00389813 10.3147 0.636973 10.3706 1.43267C10.3858 1.64854 10.3949 1.86475 10.4077 2.09276C10.5005 2.09276 10.5838 2.09276 10.6671 2.09276C11.3286 2.1012 11.9914 2.08433 12.6508 2.12649C13.3409 2.16933 13.89 2.75016 13.9879 3.46996C14.0769 4.12669 13.6603 4.83367 13.0309 5.06506C12.891 5.11666 12.8505 5.17906 12.8508 5.32579C12.8555 8.5189 12.8567 11.7112 12.8542 14.9028C12.8542 14.9925 12.8566 15.0825 12.8508 15.1726C12.8056 15.8691 12.5351 16.4479 11.9647 16.8713C11.6983 17.0676 11.389 17.1593 11.0736 17.2376ZM1.95263 5.18311V14.9335C1.95263 14.9783 1.95263 15.0232 1.95263 15.0684C1.98636 15.8833 2.48725 16.4274 3.22999 16.4287C5.74266 16.4332 8.25521 16.4332 10.7676 16.4287C11.2827 16.4287 11.6618 16.1848 11.8929 15.716C12.013 15.4718 12.0399 15.2124 12.0399 14.9486C12.0415 11.7569 12.0415 8.56511 12.0399 5.37335V5.18412L1.95263 5.18311ZM7.00203 4.35301H12.2842C12.357 4.35301 12.4302 4.35301 12.5027 4.34863C12.8434 4.32907 13.1271 4.06833 13.1642 3.74149C13.2077 3.36202 13.0006 3.02978 12.6511 2.94175C12.5305 2.91651 12.4073 2.90609 12.2842 2.91072C8.76251 2.90937 5.24098 2.90937 1.71956 2.91072C1.63543 2.91032 1.55134 2.91415 1.4676 2.92218C1.10938 2.95794 0.860454 3.21429 0.823351 3.58329C0.809835 3.74665 0.853805 3.9096 0.947664 4.04398C1.04152 4.17836 1.17937 4.27574 1.3374 4.31928C1.44614 4.34455 1.55774 4.35532 1.6693 4.35133C3.4462 4.35358 5.22344 4.35414 7.00101 4.35301H7.00203ZM9.57158 2.08298C9.57158 1.89915 9.58001 1.73084 9.56989 1.56354C9.54291 1.12977 9.24777 0.817429 8.81771 0.813381C7.6068 0.801913 6.3959 0.804274 5.18499 0.813381C4.82003 0.815743 4.51038 1.05995 4.45001 1.39219C4.40886 1.61447 4.41628 1.84552 4.40144 2.08399L9.57158 2.08298Z" fill="#616161" fill-opacity="0.7"/>
<path d="M8.96833 10.4521C8.96833 9.24048 8.96833 8.02889 8.96833 6.81731C8.96764 6.73338 8.97407 6.64954 8.98756 6.56669C9.00413 6.47942 9.04961 6.40027 9.11667 6.34201C9.18374 6.28374 9.26847 6.24977 9.35721 6.24556C9.44594 6.24135 9.53351 6.26715 9.60578 6.31881C9.67806 6.37046 9.73083 6.44495 9.75559 6.53027C9.77582 6.61158 9.78602 6.69506 9.78595 6.77886C9.78729 9.23553 9.78729 11.6921 9.78595 14.1485C9.78576 14.2267 9.77637 14.3046 9.75795 14.3806C9.73545 14.4676 9.68395 14.5444 9.61194 14.5982C9.53993 14.652 9.45173 14.6796 9.36189 14.6765C9.27206 14.6734 9.18598 14.6397 9.11785 14.5811C9.04973 14.5224 9.00365 14.4423 8.98722 14.354C8.97385 14.2711 8.96753 14.1873 8.96833 14.1033C8.96833 12.8868 8.96833 11.6697 8.96833 10.4521Z" fill="#616161" fill-opacity="0.7"/>
<path d="M6.59368 10.4715C6.59368 9.23796 6.59368 8.00412 6.59672 6.77061C6.59618 6.65439 6.62044 6.5394 6.66789 6.43331C6.73535 6.28928 6.87769 6.23936 7.03453 6.25319C7.20082 6.26769 7.31888 6.35607 7.37015 6.51426C7.39336 6.59479 7.40417 6.67839 7.40219 6.76218C7.40354 9.22964 7.40354 11.6971 7.40219 14.1646C7.40373 14.2427 7.39465 14.3206 7.37521 14.3963C7.35094 14.4834 7.29686 14.5593 7.2224 14.6106C7.14794 14.662 7.05782 14.6856 6.96775 14.6773C6.87737 14.6716 6.7917 14.635 6.72517 14.5735C6.65864 14.5121 6.6153 14.4296 6.60245 14.34C6.59457 14.2675 6.59175 14.1946 6.59402 14.1217C6.59357 12.9052 6.59346 11.6885 6.59368 10.4715Z" fill="#616161" fill-opacity="0.7"/>
<path d="M5.01817 10.4706C5.01817 11.7044 5.02019 12.9383 5.0148 14.1718C5.0151 14.2878 4.9883 14.4022 4.93654 14.506C4.86267 14.647 4.71898 14.6942 4.56214 14.6747C4.48882 14.6684 4.41909 14.6401 4.36206 14.5936C4.30502 14.5471 4.26332 14.4845 4.24238 14.4139C4.21971 14.3391 4.2089 14.2611 4.21033 14.1829C4.20853 11.704 4.20853 9.22525 4.21033 6.74676C4.21033 6.45972 4.32232 6.29916 4.54527 6.26038C4.59874 6.24906 4.654 6.24915 4.70744 6.26062C4.76087 6.2721 4.81129 6.29471 4.8554 6.32698C4.89951 6.35926 4.93633 6.40046 4.96344 6.44792C4.99056 6.49537 5.00737 6.54801 5.01277 6.6024C5.01871 6.66968 5.02074 6.73726 5.01884 6.80478C5.01862 8.02603 5.01839 9.24796 5.01817 10.4706Z" fill="#616161" fill-opacity="0.7"/>
</svg>
