<svg width="129" height="38" viewBox="0 0 129 38" fill="none" xmlns="http://www.w3.org/2000/svg">
<path d="M128.021 33.4487C128.021 33.926 127.927 34.3987 127.744 34.8396C127.561 35.2806 127.293 35.6812 126.956 36.0185C126.618 36.3559 126.217 36.6233 125.776 36.8057C125.334 36.988 124.862 37.0816 124.384 37.0811H5.35651C4.39179 37.0821 3.46616 36.7 2.7832 36.0188C2.10023 35.3376 1.71586 34.4131 1.7146 33.4487V4.48139C1.71586 3.51648 2.10008 2.59152 2.78291 1.90958C3.46574 1.22765 4.39135 0.844489 5.35651 0.844238H124.383C124.861 0.844238 125.334 0.938323 125.775 1.12112C126.217 1.30391 126.618 1.57184 126.955 1.90959C127.293 2.24735 127.561 2.64831 127.744 3.08958C127.926 3.53086 128.02 4.0038 128.02 4.48139L128.021 33.4487Z" fill="white"/>
<path d="M124.384 37.926H5.35634C4.16791 37.9257 3.02811 37.4541 2.18706 36.6147C1.346 35.7753 0.872378 34.6366 0.870117 33.4485L0.870117 4.48218C0.871875 3.29348 1.34518 2.15401 2.18621 1.31374C3.02724 0.473464 4.16732 0.00100331 5.35634 0L124.383 0C125.572 0.00150394 126.712 0.474125 127.553 1.31429C128.393 2.15446 128.867 3.29364 128.869 4.48218V33.4485C128.871 35.9182 126.855 37.926 124.384 37.926Z" fill="#A6A6A6"/>
<path d="M128.021 33.4487C128.021 33.926 127.927 34.3987 127.744 34.8396C127.561 35.2806 127.293 35.6812 126.956 36.0185C126.618 36.3559 126.217 36.6233 125.776 36.8057C125.334 36.988 124.862 37.0816 124.384 37.0811H5.35651C4.39179 37.0821 3.46616 36.7 2.7832 36.0188C2.10023 35.3376 1.71586 34.4131 1.7146 33.4487V4.48139C1.71586 3.51648 2.10008 2.59152 2.78291 1.90958C3.46574 1.22765 4.39135 0.844489 5.35651 0.844238H124.383C124.861 0.844238 125.334 0.938323 125.775 1.12112C126.217 1.30391 126.618 1.57184 126.955 1.90959C127.293 2.24735 127.561 2.64831 127.744 3.08958C127.926 3.53086 128.02 4.0038 128.02 4.48139L128.021 33.4487Z" fill="black"/>
<path d="M29.4514 18.7631C29.4239 15.7063 31.955 14.2192 32.0707 14.15C30.6373 12.0607 28.4155 11.7752 27.6348 11.7524C25.7687 11.5561 23.9587 12.8687 23.0081 12.8687C22.0386 12.8687 20.5748 11.7714 18.9972 11.8036C16.9671 11.8349 15.0679 13.01 14.0262 14.8348C11.8766 18.5554 13.4798 24.023 15.5393 27.0304C16.5696 28.5042 17.7734 30.1478 19.3492 30.0899C20.8907 30.0273 21.4666 29.1083 23.3269 29.1083C25.1701 29.1083 25.7109 30.0899 27.3179 30.0529C28.9724 30.0273 30.014 28.5734 31.0082 27.0873C32.1988 25.4 32.6769 23.7365 32.6959 23.6512C32.6579 23.6379 29.4837 22.4258 29.4514 18.7631ZM26.4157 9.77404C27.2449 8.73743 27.8122 7.32715 27.6547 5.896C26.4546 5.94911 24.9538 6.72585 24.0896 7.7397C23.325 8.63311 22.642 10.0975 22.8184 11.4745C24.1665 11.5751 25.5506 10.7945 26.4157 9.77404Z" fill="white"/>
<path d="M124.384 0H60.6292L85.6008 37.926H124.384C125.573 37.925 126.712 37.4528 127.553 36.6129C128.394 35.773 128.868 34.634 128.87 33.4457V4.48218C128.868 3.29356 128.395 2.15423 127.554 1.31401C126.713 0.473795 125.573 0.00125372 124.384 0Z" fill="url(#paint0_linear_48_12484)"/>
<path d="M51.78 29.8783H49.6256L48.4455 26.171H44.3435L43.2193 29.8783H41.1218L45.1868 17.2569H47.697L51.78 29.8783ZM48.0897 24.6156L47.0225 21.3199C46.9096 20.9832 46.6971 20.1903 46.3859 18.9422H46.348C46.2228 19.479 46.0226 20.2719 45.7484 21.3199L44.6992 24.6156H48.0897ZM62.2134 25.216C62.2134 26.7638 61.7931 27.9872 60.9517 28.8854C60.1985 29.6849 59.2621 30.0841 58.1455 30.0841C56.9398 30.0841 56.0727 29.6545 55.5462 28.7934V33.5686H53.5237V23.7687C53.5237 22.7966 53.4981 21.7998 53.4487 20.7774H55.2275L55.3404 22.2199H55.3783C56.0528 21.1331 57.0764 20.5896 58.4501 20.5896C59.524 20.5896 60.4204 21.0136 61.1376 21.8624C61.8539 22.7131 62.2134 23.8303 62.2134 25.216ZM60.1529 25.2899C60.1529 24.4041 59.9537 23.6738 59.5534 23.0982C59.116 22.4997 58.5288 22.2 57.7926 22.2C57.2936 22.2 56.8402 22.3669 56.4351 22.696C56.0291 23.028 55.7635 23.4614 55.6392 23.9982C55.5837 24.199 55.5522 24.4056 55.5453 24.6137V26.1321C55.5453 26.7932 55.7483 27.3518 56.1543 27.8089C56.5603 28.2641 57.0878 28.4927 57.7367 28.4927C58.4984 28.4927 59.0914 28.1978 59.5154 27.6126C59.9404 27.0255 60.1529 26.2516 60.1529 25.2899ZM72.6838 25.216C72.6838 26.7638 72.2635 27.9872 71.4221 28.8854C70.6679 29.6849 69.7325 30.0841 68.615 30.0841C67.4092 30.0841 66.5421 29.6545 66.0156 28.7934V33.5686H63.9931V23.7687C63.9931 22.7966 63.9675 21.7998 63.9181 20.7774H65.6969L65.8098 22.2199H65.8477C66.5213 21.1331 67.5449 20.5896 68.9195 20.5896C69.9924 20.5896 70.8889 21.0136 71.608 21.8624C72.3233 22.7131 72.6838 23.8303 72.6838 25.216ZM70.6223 25.2899C70.6223 24.4041 70.4222 23.6738 70.0218 23.0982C69.5845 22.4997 68.9992 22.2 68.263 22.2C67.764 22.2 67.3106 22.3669 66.9036 22.696C66.4976 23.028 66.2329 23.4614 66.1086 23.9982C66.0469 24.2486 66.0137 24.4525 66.0137 24.6137V26.1321C66.0137 26.7932 66.2177 27.3518 66.6218 27.8089C67.0279 28.2632 67.5553 28.4927 68.2061 28.4927C68.9688 28.4927 69.5617 28.1978 69.9848 27.6126C70.4098 27.0255 70.6223 26.2516 70.6223 25.2899ZM84.3903 26.3379C84.3903 27.4125 84.0146 28.286 83.268 28.9603C82.4464 29.6962 81.2995 30.0652 79.8291 30.0652C78.4706 30.0652 77.3815 29.8034 76.56 29.2789L77.0277 27.5936C77.9147 28.119 78.889 28.3808 79.9496 28.3808C80.7123 28.3808 81.3052 28.2082 81.7283 27.8658C82.1524 27.5225 82.3668 27.0635 82.3668 26.4906C82.3668 25.9775 82.1894 25.5479 81.8412 25.1979C81.4911 24.8489 80.9125 24.5236 80.0995 24.2249C77.8891 23.4007 76.7829 22.1953 76.7829 20.6095C76.7829 19.5739 77.1738 18.726 77.9536 18.0631C78.7334 17.4011 79.7674 17.0701 81.0538 17.0701C82.2026 17.0701 83.1598 17.2702 83.9197 17.6695L83.4122 19.3178C82.6969 18.9308 81.8896 18.7374 80.9865 18.7374C80.2731 18.7374 79.7134 18.9128 79.313 19.2618C78.9762 19.5739 78.8055 19.9542 78.8055 20.4056C78.8055 20.9035 79 21.317 79.387 21.6414C79.7228 21.9402 80.3357 22.2655 81.2217 22.6145C82.3089 23.0526 83.1077 23.5629 83.619 24.149C84.1341 24.7351 84.3903 25.4663 84.3903 26.3379ZM91.0944 22.2949H88.8651V26.7135C88.8651 27.8374 89.2578 28.3979 90.0452 28.3979C90.4067 28.3979 90.7064 28.3675 90.9436 28.304L90.9996 29.8395C90.6011 29.9884 90.0765 30.0633 89.4267 30.0633C88.6279 30.0633 88.0037 29.8195 87.5531 29.3321C87.1044 28.8446 86.8786 28.028 86.8786 26.8785V22.2911H85.5505V20.7736H86.8786V19.1073L88.8651 18.5079V20.7736H91.0944V22.2949ZM101.133 25.2529C101.133 26.6519 100.733 27.8004 99.9341 28.6985C99.0983 29.6232 97.9865 30.0841 96.6005 30.0841C95.2629 30.0841 94.1994 29.6412 93.4063 28.7564C92.6132 27.8696 92.2167 26.7524 92.2167 25.4047C92.2167 23.9944 92.6265 22.8392 93.4433 21.9411C94.262 21.042 95.3644 20.5925 96.7504 20.5925C98.0861 20.5925 99.159 21.0363 99.9711 21.9221C100.747 22.7814 101.133 23.891 101.133 25.2529ZM99.0366 25.2994C99.0366 24.4658 98.8564 23.7507 98.4949 23.1522C98.0709 22.4295 97.4637 22.0682 96.6773 22.0682C95.8672 22.0682 95.2458 22.4295 94.8227 23.1522C94.4603 23.7507 94.28 24.4781 94.28 25.3374C94.28 26.172 94.4603 26.889 94.8227 27.4855C95.26 28.2082 95.87 28.5695 96.6602 28.5695C97.4334 28.5695 98.0396 28.2006 98.4779 27.4675C98.8497 26.8548 99.0366 26.135 99.0366 25.2994ZM107.71 22.5557C107.5 22.5177 107.286 22.499 107.073 22.4997C106.361 22.4997 105.811 22.7672 105.424 23.3059C105.088 23.7801 104.919 24.3795 104.919 25.1031V29.8783H102.897V23.6435C102.899 22.6881 102.879 21.7328 102.838 20.7784H104.6L104.674 22.5196H104.73C104.944 21.9212 105.28 21.4384 105.741 21.0771C106.163 20.7614 106.676 20.5904 107.203 20.5896C107.39 20.5896 107.558 20.6029 107.708 20.6266L107.71 22.5557ZM116.756 24.8973C116.761 25.2047 116.736 25.5118 116.682 25.8144H110.614C110.637 26.7135 110.931 27.402 111.494 27.8762C112.006 28.2992 112.667 28.5117 113.479 28.5117C114.377 28.5117 115.197 28.3694 115.934 28.0821L116.251 29.4848C115.39 29.8603 114.373 30.0472 113.199 30.0472C111.788 30.0472 110.68 29.6318 109.873 28.8028C109.069 27.973 108.666 26.8577 108.666 25.4606C108.666 24.0892 109.04 22.9464 109.791 22.035C110.576 21.0619 111.638 20.5754 112.973 20.5754C114.285 20.5754 115.279 21.0619 115.953 22.035C116.487 22.806 116.756 23.762 116.756 24.8973ZM114.827 24.3728C114.841 23.7725 114.709 23.2556 114.434 22.8184C114.084 22.255 113.545 21.9743 112.824 21.9743C112.162 21.9743 111.623 22.2484 111.214 22.7985C110.877 23.2357 110.677 23.7611 110.615 24.3709L114.827 24.3728Z" fill="white"/>
<path d="M43.7602 12.7947C43.1976 12.7947 42.711 12.7672 42.3059 12.7207V6.61862C42.8725 6.53113 43.445 6.488 44.0182 6.48964C46.3377 6.48964 47.4059 7.63058 47.4059 9.49041C47.4059 11.6357 46.1442 12.7947 43.7602 12.7947ZM44.0998 7.27208C43.7868 7.27208 43.5202 7.29104 43.2992 7.33657V11.9752C43.4187 11.9942 43.6483 12.0027 43.9708 12.0027C45.4906 12.0027 46.3557 11.1378 46.3557 9.51791C46.3557 8.07348 45.5731 7.27208 44.0998 7.27208ZM50.7348 12.8411C49.4275 12.8411 48.5804 11.8652 48.5804 10.5403C48.5804 9.15941 49.4455 8.17496 50.8088 8.17496C52.097 8.17496 52.9632 9.1044 52.9632 10.4673C52.9632 11.8652 52.0705 12.8411 50.7348 12.8411ZM50.7727 8.90144C50.0546 8.90144 49.5945 9.57292 49.5945 10.5118C49.5945 11.4327 50.0641 12.1042 50.7632 12.1042C51.4624 12.1042 51.932 11.3863 51.932 10.4929C51.932 9.5824 51.4719 8.90144 50.7727 8.90144ZM60.4177 8.26696L59.0185 12.7397H58.1068L57.5272 10.7973C57.383 10.3222 57.2631 9.84011 57.1676 9.35289H57.1487C57.0756 9.84037 56.9371 10.3288 56.7901 10.7973L56.1734 12.7397H55.2523L53.9355 8.26696H54.9572L55.4638 10.3933C55.5834 10.8997 55.6839 11.3777 55.7674 11.8292H55.7864C55.8594 11.4527 55.979 10.9823 56.1545 10.4028L56.7901 8.26791H57.6002L58.2083 10.3573C58.3554 10.8637 58.4749 11.3607 58.5679 11.8301H58.5944C58.6589 11.3702 58.7604 10.8817 58.898 10.3573L59.4416 8.26791L60.4177 8.26696ZM65.569 12.7397H64.5748V10.1714C64.5748 9.38039 64.2712 8.98396 63.6726 8.98396C63.0835 8.98396 62.6784 9.49041 62.6784 10.0794V12.7397H61.6842V9.54541C61.6842 9.14993 61.6747 8.72599 61.6472 8.26601H62.5219L62.5684 8.95645H62.5959C62.8634 8.47845 63.406 8.17496 64.0141 8.17496C64.9533 8.17496 65.5699 8.89291 65.5699 10.0613L65.569 12.7397ZM68.3106 12.7397H67.3155V6.2146H68.3106V12.7397ZM71.9354 12.8411C70.6291 12.8411 69.781 11.8652 69.781 10.5403C69.781 9.15941 70.6462 8.17496 72.0085 8.17496C73.2977 8.17496 74.1629 9.1044 74.1629 10.4673C74.1638 11.8652 73.2702 12.8411 71.9354 12.8411ZM71.9724 8.90144C71.2543 8.90144 70.7942 9.57292 70.7942 10.5118C70.7942 11.4327 71.2647 12.1042 71.962 12.1042C72.6621 12.1042 73.1307 11.3863 73.1307 10.4929C73.1317 9.5824 72.6725 8.90144 71.9724 8.90144ZM78.0828 12.7397L78.0107 12.2247H77.9841C77.6805 12.6391 77.2375 12.8411 76.6759 12.8411C75.8743 12.8411 75.3051 12.2797 75.3051 11.5247C75.3051 10.4208 76.2623 9.84985 77.9196 9.84985V9.76734C77.9196 9.17838 77.6075 8.88342 76.9908 8.88342C76.5497 8.88342 76.1627 8.99439 75.8221 9.21537L75.62 8.56191C76.0336 8.30395 76.5497 8.17496 77.1559 8.17496C78.3247 8.17496 78.9147 8.79143 78.9147 10.0253V11.6727C78.9147 12.1241 78.9347 12.4741 78.9792 12.7406L78.0828 12.7397ZM77.9462 10.5118C76.8419 10.5118 76.2879 10.7793 76.2879 11.4138C76.2879 11.8832 76.5734 12.1128 76.97 12.1128C77.4756 12.1128 77.9462 11.7268 77.9462 11.2023V10.5118ZM83.7425 12.7397L83.696 12.0217H83.6685C83.3829 12.5642 82.9029 12.8411 82.2322 12.8411C81.1536 12.8411 80.3548 11.8927 80.3548 10.5583C80.3548 9.15941 81.183 8.17401 82.3138 8.17401C82.9124 8.17401 83.3364 8.37603 83.5755 8.78194H83.5954V6.2146H84.5906V11.5342C84.5906 11.9667 84.601 12.3717 84.6276 12.7397H83.7425ZM83.5954 10.1078C83.5954 9.48187 83.1809 8.94792 82.5481 8.94792C81.811 8.94792 81.3604 9.60137 81.3604 10.5213C81.3604 11.4233 81.8281 12.0407 82.5282 12.0407C83.1534 12.0407 83.5954 11.4972 83.5954 10.8533V10.1078ZM90.9001 12.8411C89.5938 12.8411 88.7467 11.8652 88.7467 10.5403C88.7467 9.15941 89.6118 8.17496 90.9741 8.17496C92.2633 8.17496 93.1285 9.1044 93.1285 10.4673C93.1295 11.8652 92.2368 12.8411 90.9001 12.8411ZM90.9371 8.90144C90.2199 8.90144 89.7598 9.57292 89.7598 10.5118C89.7598 11.4327 90.2294 12.1042 90.9276 12.1042C91.6277 12.1042 92.0964 11.3863 92.0964 10.4929C92.0983 9.5824 91.6382 8.90144 90.9371 8.90144ZM98.4752 12.7397H97.48V10.1714C97.48 9.38039 97.1765 8.98396 96.5779 8.98396C95.9887 8.98396 95.5846 9.49041 95.5846 10.0794V12.7397H94.5895V9.54541C94.5895 9.14993 94.58 8.72599 94.5525 8.26601H95.4271L95.4736 8.95645H95.5011C95.7677 8.47845 96.3113 8.17401 96.9184 8.17401C97.8576 8.17401 98.4752 8.89196 98.4752 10.0604V12.7397ZM105.164 9.01241H104.07V11.1843C104.07 11.7372 104.262 12.0132 104.649 12.0132C104.825 12.0132 104.972 11.9942 105.09 11.9667L105.118 12.7216C104.925 12.7956 104.667 12.8326 104.346 12.8326C103.563 12.8326 103.094 12.4001 103.094 11.2677V9.01241H102.442V8.26696H103.094V7.44753L104.07 7.15258V8.26601H105.164V9.01241ZM110.427 12.7397H109.434V10.1903C109.434 9.38988 109.131 8.9849 108.532 8.9849C108.017 8.9849 107.537 9.33487 107.537 10.0433V12.7397H106.544V6.2146H107.537V8.90144H107.557C107.87 8.41396 108.323 8.17401 108.902 8.17401C109.849 8.17401 110.427 8.90998 110.427 10.0794V12.7397ZM115.82 10.7423H112.836C112.855 11.5892 113.416 12.0672 114.246 12.0672C114.687 12.0672 115.093 11.9933 115.451 11.8557L115.606 12.5462C115.183 12.7302 114.685 12.8222 114.105 12.8222C112.706 12.8222 111.878 11.9383 111.878 10.5678C111.878 9.1964 112.726 8.16548 113.993 8.16548C115.137 8.16548 115.854 9.01241 115.854 10.2918C115.86 10.4428 115.849 10.594 115.82 10.7423ZM114.908 10.0338C114.908 9.3434 114.56 8.85592 113.924 8.85592C113.353 8.85592 112.901 9.35289 112.837 10.0338H114.908Z" fill="white"/>
<defs>
<linearGradient id="paint0_linear_48_12484" x1="94.7486" y1="38.0267" x2="94.7486" y2="-98.7527" gradientUnits="userSpaceOnUse">
<stop stop-color="#1A1A1A" stop-opacity="0.1"/>
<stop offset="0.123" stop-color="#212121" stop-opacity="0.151"/>
<stop offset="0.308" stop-color="#353535" stop-opacity="0.227"/>
<stop offset="0.532" stop-color="#575757" stop-opacity="0.318"/>
<stop offset="0.783" stop-color="#858585" stop-opacity="0.421"/>
<stop offset="1" stop-color="#B3B3B3" stop-opacity="0.51"/>
</linearGradient>
</defs>
</svg>
