<svg width="127" height="38" viewBox="0 0 127 38" fill="none" xmlns="http://www.w3.org/2000/svg">
<path d="M121.491 37.1141H5.50938C2.91139 37.1141 0.870117 35.0728 0.870117 32.4748V4.63926C0.870117 2.04127 2.91139 0 5.50938 0H121.491C124.089 0 126.13 2.04127 126.13 4.63926V32.4748C126.13 35.0728 124.089 37.1141 121.491 37.1141Z" fill="black"/>
<path d="M121.491 0.742281C123.625 0.742281 125.388 2.5052 125.388 4.63926V32.4748C125.388 34.6089 123.625 36.3718 121.491 36.3718H5.50938C3.37532 36.3718 1.6124 34.6089 1.6124 32.4748V4.63926C1.6124 2.5052 3.37532 0.742281 5.50938 0.742281H121.491ZM121.491 0H5.50938C2.91139 0 0.870117 2.13406 0.870117 4.63926V32.4748C0.870117 35.0728 2.91139 37.1141 5.50938 37.1141H121.491C124.089 37.1141 126.13 35.0728 126.13 32.4748V4.63926C126.13 2.13406 124.089 0 121.491 0Z" fill="#A6A6A6"/>
<path d="M44.8503 9.46425C44.8503 10.2065 44.6647 10.856 44.2008 11.32C43.6441 11.8767 42.9946 12.155 42.1595 12.155C41.3245 12.155 40.675 11.8767 40.1183 11.32C39.5616 10.7632 39.2832 10.1138 39.2832 9.27868C39.2832 8.44362 39.5616 7.79412 40.1183 7.23741C40.675 6.6807 41.3245 6.40234 42.1595 6.40234C42.5307 6.40234 42.9018 6.49513 43.273 6.6807C43.6441 6.86627 43.9225 7.05184 44.108 7.3302L43.6441 7.79412C43.273 7.3302 42.809 7.14462 42.1595 7.14462C41.6028 7.14462 41.0461 7.3302 40.675 7.79412C40.2111 8.16526 40.0255 8.72197 40.0255 9.37147C40.0255 10.021 40.2111 10.5777 40.675 10.9488C41.1389 11.32 41.6028 11.5983 42.1595 11.5983C42.809 11.5983 43.273 11.4127 43.7369 10.9488C44.0152 10.6705 44.2008 10.2993 44.2008 9.8354H42.1595V9.09311H44.8503V9.46425ZM49.1184 7.14462H46.6132V8.90754H48.9329V9.55704H46.6132V11.32H49.1184V12.0622H45.8709V6.49513H49.1184V7.14462ZM52.1803 12.0622H51.4381V7.14462H49.8607V6.49513H53.7577V7.14462H52.1803V12.0622ZM56.4485 12.0622V6.49513H57.1907V12.0622H56.4485ZM60.3454 12.0622H59.6032V7.14462H58.0258V6.49513H61.83V7.14462H60.2527V12.0622H60.3454ZM69.16 11.32C68.6033 11.8767 67.9538 12.155 67.1188 12.155C66.2837 12.155 65.6342 11.8767 65.0775 11.32C64.5208 10.7632 64.2424 10.1138 64.2424 9.27868C64.2424 8.44362 64.5208 7.79412 65.0775 7.23741C65.6342 6.6807 66.2837 6.40234 67.1188 6.40234C67.9538 6.40234 68.6033 6.6807 69.16 7.23741C69.7167 7.79412 69.9951 8.44362 69.9951 9.27868C69.9951 10.1138 69.7167 10.7632 69.16 11.32ZM65.6342 10.856C66.0053 11.2272 66.562 11.5055 67.1188 11.5055C67.6755 11.5055 68.2322 11.32 68.6033 10.856C68.9745 10.4849 69.2528 9.92818 69.2528 9.27868C69.2528 8.62919 69.0672 8.07248 68.6033 7.70134C68.2322 7.3302 67.6755 7.05184 67.1188 7.05184C66.562 7.05184 66.0053 7.23741 65.6342 7.70134C65.2631 8.07248 64.9847 8.62919 64.9847 9.27868C64.9847 9.92818 65.1703 10.4849 65.6342 10.856ZM71.0157 12.0622V6.49513H71.8508L74.5416 10.856V6.49513H75.2838V12.0622H74.5416L71.6652 7.51577V12.0622H71.0157Z" fill="white" stroke="white" stroke-width="1.18519" stroke-miterlimit="10"/>
<path d="M64.0569 20.2271C61.83 20.2271 60.0671 21.8972 60.0671 24.2169C60.0671 26.4437 61.83 28.2066 64.0569 28.2066C66.2837 28.2066 68.0466 26.5365 68.0466 24.2169C68.0466 21.8045 66.2837 20.2271 64.0569 20.2271ZM64.0569 26.5365C62.8507 26.5365 61.83 25.5159 61.83 24.1241C61.83 22.7323 62.8507 21.7117 64.0569 21.7117C65.2631 21.7117 66.2837 22.6395 66.2837 24.1241C66.2837 25.5159 65.2631 26.5365 64.0569 26.5365ZM55.4279 20.2271C53.201 20.2271 51.4381 21.8972 51.4381 24.2169C51.4381 26.4437 53.201 28.2066 55.4279 28.2066C57.6547 28.2066 59.4176 26.5365 59.4176 24.2169C59.4176 21.8045 57.6547 20.2271 55.4279 20.2271ZM55.4279 26.5365C54.2217 26.5365 53.201 25.5159 53.201 24.1241C53.201 22.7323 54.2217 21.7117 55.4279 21.7117C56.6341 21.7117 57.6547 22.6395 57.6547 24.1241C57.6547 25.5159 56.6341 26.5365 55.4279 26.5365ZM45.1287 21.4333V23.1035H49.1185C49.0257 24.0313 48.6545 24.7736 48.1906 25.2375C47.6339 25.7942 46.7061 26.4437 45.1287 26.4437C42.6235 26.4437 40.7678 24.4952 40.7678 21.99C40.7678 19.4848 42.7163 17.5363 45.1287 17.5363C46.4277 17.5363 47.4483 18.0931 48.1906 18.7426L49.3968 17.5363C48.3762 16.6085 47.0772 15.8662 45.2215 15.8662C41.8812 15.8662 39.0049 18.6498 39.0049 21.99C39.0049 25.3303 41.8812 28.1139 45.2215 28.1139C47.0772 28.1139 48.3762 27.5571 49.4896 26.3509C50.603 25.2375 50.9742 23.6602 50.9742 22.454C50.9742 22.0828 50.9742 21.7117 50.8814 21.4333H45.1287ZM87.2532 22.7323C86.882 21.8045 85.9542 20.2271 83.9129 20.2271C81.8716 20.2271 80.2015 21.8045 80.2015 24.2169C80.2015 26.4437 81.8716 28.2066 84.0985 28.2066C85.8614 28.2066 86.9748 27.0932 87.346 26.4437L86.047 25.5159C85.5831 26.1654 85.0263 26.6293 84.0985 26.6293C83.1706 26.6293 82.6139 26.2582 82.15 25.4231L87.4388 23.1962L87.2532 22.7323ZM81.8716 24.0313C81.8716 22.5467 83.0779 21.7117 83.9129 21.7117C84.5624 21.7117 85.2119 22.0828 85.3975 22.5467L81.8716 24.0313ZM77.5107 27.8355H79.2737V16.2374H77.5107V27.8355ZM74.7272 21.0622C74.2633 20.5983 73.521 20.1343 72.5931 20.1343C70.6446 20.1343 68.7889 21.8972 68.7889 24.1241C68.7889 26.3509 70.5519 28.0211 72.5931 28.0211C73.521 28.0211 74.2633 27.5571 74.6344 27.0932H74.7272V27.6499C74.7272 29.1345 73.8921 29.9696 72.5931 29.9696C71.5725 29.9696 70.8302 29.2273 70.6446 28.5778L69.1601 29.2273C69.624 30.2479 70.7374 31.5469 72.6859 31.5469C74.7272 31.5469 76.3973 30.3407 76.3973 27.4644V20.4127H74.7272V21.0622ZM72.6859 26.5365C71.4797 26.5365 70.4591 25.5159 70.4591 24.1241C70.4591 22.7323 71.4797 21.7117 72.6859 21.7117C73.8921 21.7117 74.82 22.7323 74.82 24.1241C74.82 25.5159 73.8921 26.5365 72.6859 26.5365ZM95.3255 16.2374H91.1502V27.8355H92.9131V23.4746H95.3255C97.274 23.4746 99.1297 22.0828 99.1297 19.856C99.1297 17.6291 97.274 16.2374 95.3255 16.2374ZM95.4183 21.8045H92.9131V17.8147H95.4183C96.7173 17.8147 97.4596 18.9281 97.4596 19.7632C97.3668 20.7838 96.6245 21.8045 95.4183 21.8045ZM106.089 20.1343C104.79 20.1343 103.491 20.691 103.027 21.8972L104.604 22.5467C104.975 21.8972 105.532 21.7117 106.181 21.7117C107.109 21.7117 107.944 22.2684 108.037 23.1962V23.289C107.759 23.1035 107.016 22.8251 106.274 22.8251C104.604 22.8251 102.934 23.753 102.934 25.4231C102.934 27.0004 104.326 28.0211 105.81 28.0211C107.016 28.0211 107.573 27.4644 108.037 26.9076H108.13V27.8355H109.8V23.3818C109.614 21.3405 108.037 20.1343 106.089 20.1343ZM105.903 26.5365C105.346 26.5365 104.511 26.2582 104.511 25.5159C104.511 24.588 105.532 24.3097 106.367 24.3097C107.109 24.3097 107.48 24.4952 107.944 24.6808C107.759 25.7942 106.831 26.5365 105.903 26.5365ZM115.645 20.4127L113.697 25.4231H113.604L111.563 20.4127H109.707L112.769 27.4644L111.006 31.3613H112.769L117.501 20.4127H115.645ZM100.058 27.8355H101.82V16.2374H100.058V27.8355Z" fill="white"/>
<path d="M10.5198 6.95972C10.2415 7.23807 10.1487 7.702 10.1487 8.25871V28.7642C10.1487 29.3209 10.3343 29.7849 10.6126 30.0632L10.7054 30.156L22.2108 18.6507V18.4651L10.5198 6.95972Z" fill="white"/>
<path d="M25.9221 22.5467L22.1179 18.7425V18.4641L25.9221 14.6599L26.0149 14.7527L30.5614 17.3507C31.8604 18.093 31.8604 19.2992 30.5614 20.0415L25.9221 22.5467Z" fill="white"/>
<path d="M26.0149 22.4546L22.1179 18.5576L10.5198 30.1558C10.9837 30.6197 11.6332 30.6197 12.4683 30.2485L26.0149 22.4546Z" fill="white"/>
<path d="M26.0149 14.6605L12.4683 6.95931C11.6332 6.49538 10.9837 6.58816 10.5198 7.05209L22.1179 18.5575L26.0149 14.6605Z" fill="white"/>
<path opacity="0.2" d="M25.9221 22.3613L12.4683 29.9697C11.726 30.4336 11.0765 30.3409 10.6126 29.9697L10.5198 30.0625L10.6126 30.1553C11.0765 30.5264 11.726 30.6192 12.4683 30.1553L25.9221 22.3613Z" fill="black"/>
<path opacity="0.12" d="M10.5198 29.9702C10.2415 29.6918 10.1487 29.2279 10.1487 28.6712V28.764C10.1487 29.3207 10.3343 29.7846 10.6126 30.063V29.9702H10.5198ZM30.5614 19.7638L25.9222 22.3618L26.0149 22.4546L30.5614 19.8566C31.2109 19.4855 31.4893 19.0215 31.4893 18.5576C31.4893 19.0215 31.1181 19.3927 30.5614 19.7638Z" fill="black"/>
<path opacity="0.25" d="M12.4683 7.05149L30.5614 17.3506C31.1181 17.7218 31.4893 18.0929 31.4893 18.5568C31.4893 18.0929 31.2109 17.629 30.5614 17.2579L12.4683 6.9587C11.1693 6.21642 10.1487 6.77313 10.1487 8.25769V8.35048C10.1487 6.9587 11.1693 6.30921 12.4683 7.05149Z" fill="white"/>
</svg>
