<svg width="12" height="12" viewBox="0 0 12 12" fill="none" xmlns="http://www.w3.org/2000/svg">
<path d="M0.00109554 3.30976C0.00109554 2.62613 -0.0020032 1.94222 0.00222235 1.25859C0.00588449 0.632137 0.368155 0.163709 0.948746 0.0324472C1.06171 0.00709624 1.18115 0.00343444 1.29749 0.00315276C2.63249 0.00118102 3.9672 0.00540618 5.30219 -0.00022736C5.69376 -0.00191742 6.0118 0.123992 6.29266 0.406514C8.0488 2.17404 9.81395 3.93283 11.5757 5.695C11.989 6.10822 12.1093 6.58284 11.8969 7.04592C11.8264 7.19972 11.7222 7.3476 11.6028 7.46787C10.2295 8.84978 8.85081 10.2269 7.47159 11.6032C6.94339 12.1302 6.25547 12.133 5.72728 11.606C3.92043 9.80297 2.11612 7.99743 0.311814 6.19188C0.129834 6.00963 0.0165892 5.78682 0.0140539 5.52937C0.0061662 4.78969 0.0112369 4.04972 0.0112369 3.30976C0.00785642 3.30976 0.00447598 3.30976 0.00109554 3.30976ZM2.99532 2.10784C2.99701 1.59322 2.61699 1.20957 2.10429 1.20704C1.59497 1.20479 1.20566 1.59378 1.20707 2.1039C1.20819 2.61007 1.58962 2.99372 2.09331 2.99569C2.60939 2.99766 2.99391 2.61909 2.9956 2.10784H2.99532Z" fill="#C60808"/>
</svg>
