<svg width="14" height="14" viewBox="0 0 14 14" fill="none" xmlns="http://www.w3.org/2000/svg">
<path d="M0.00127813 3.86142C0.00127813 3.06386 -0.00233707 2.26596 0.00259274 1.46839C0.00686524 0.737534 0.429514 0.191034 1.10687 0.0378957C1.23866 0.00831963 1.37801 0.00404754 1.51374 0.00371891C3.07123 0.00141855 4.6284 0.0063479 6.18589 -0.000224564C6.64272 -0.0021963 7.01377 0.144698 7.34143 0.474307C9.39026 2.53642 11.4496 4.58834 13.505 6.64421C13.9871 7.1263 14.1275 7.68002 13.8797 8.22028C13.7975 8.39971 13.6759 8.57224 13.5366 8.71256C11.9344 10.3248 10.3259 11.9314 8.71685 13.5371C8.10063 14.1519 7.29805 14.1552 6.68183 13.5404C4.57384 11.4368 2.46881 9.33037 0.363783 7.2239C0.151473 7.01128 0.0193541 6.75134 0.0163962 6.45097C0.0071939 5.58801 0.0131097 4.72472 0.0131097 3.86142C0.00916582 3.86142 0.00522197 3.86142 0.00127813 3.86142ZM3.49454 2.45919C3.49651 1.8588 3.05316 1.41121 2.45501 1.40825C1.8608 1.40562 1.4066 1.85945 1.40825 2.45459C1.40956 3.04513 1.85456 3.49271 2.44219 3.49501C3.04428 3.49731 3.4929 3.05564 3.49487 2.45919H3.49454Z" fill="#616161"/>
</svg>
