<svg width="128" height="38" viewBox="0 0 128 38" fill="none" xmlns="http://www.w3.org/2000/svg">
<path d="M127.155 33.4487C127.155 33.926 127.061 34.3987 126.878 34.8396C126.695 35.2806 126.427 35.6812 126.089 36.0185C125.751 36.3559 125.35 36.6233 124.909 36.8057C124.468 36.988 123.995 37.0816 123.517 37.0811H4.48673C3.52198 37.0821 2.59633 36.7 1.91335 36.0188C1.23037 35.3376 0.845984 34.4131 0.844727 33.4487V4.48139C0.845983 3.51648 1.23022 2.59152 1.91306 1.90958C2.59591 1.22765 3.52155 0.844489 4.48673 0.844238H123.517C123.994 0.844238 124.467 0.938323 124.909 1.12112C125.35 1.30391 125.751 1.57184 126.089 1.90959C126.427 2.24735 126.694 2.64831 126.877 3.08958C127.06 3.53086 127.154 4.0038 127.154 4.48139L127.155 33.4487Z" fill="white"/>
<path d="M123.514 37.926H4.48622C3.29779 37.9257 2.158 37.4541 1.31694 36.6147C0.475883 35.7753 0.00226125 34.6366 0 33.4485L0 4.48218C0.00175811 3.29348 0.475067 2.15401 1.3161 1.31374C2.15713 0.473464 3.2972 0.00100331 4.48622 0L123.513 0C124.702 0.00150394 125.841 0.474125 126.682 1.31429C127.523 2.15446 127.997 3.29364 127.999 4.48218V33.4485C128.001 35.9182 125.985 37.926 123.514 37.926Z" fill="#A6A6A6"/>
<path d="M127.151 33.4487C127.151 33.926 127.057 34.3987 126.874 34.8396C126.692 35.2806 126.424 35.6812 126.086 36.0185C125.748 36.3559 125.347 36.6233 124.906 36.8057C124.465 36.988 123.992 37.0816 123.514 37.0811H4.48664C3.52191 37.0821 2.59629 36.7 1.91332 36.0188C1.23036 35.3376 0.845984 34.4131 0.844727 33.4487V4.48139C0.845983 3.51648 1.23021 2.59152 1.91304 1.90958C2.59586 1.22765 3.52148 0.844489 4.48664 0.844238H123.513C123.991 0.844238 124.464 0.938323 124.905 1.12112C125.347 1.30391 125.748 1.57184 126.085 1.90959C126.423 2.24735 126.691 2.64831 126.874 3.08958C127.057 3.53086 127.151 4.0038 127.15 4.48139L127.151 33.4487Z" fill="black"/>
<path d="M28.5813 18.7631C28.5538 15.7063 31.0848 14.2192 31.2006 14.15C29.7672 12.0607 27.5454 11.7752 26.7646 11.7524C24.8986 11.5561 23.0886 12.8687 22.138 12.8687C21.1685 12.8687 19.7047 11.7714 18.1271 11.8036C16.097 11.8349 14.1977 13.01 13.1561 14.8348C11.0064 18.5554 12.6097 24.023 14.6692 27.0304C15.6995 28.5042 16.9033 30.1478 18.479 30.0899C20.0206 30.0273 20.5965 29.1083 22.4568 29.1083C24.3 29.1083 24.8408 30.0899 26.4478 30.0529C28.1023 30.0273 29.1439 28.5734 30.1381 27.0873C31.3287 25.4 31.8068 23.7365 31.8258 23.6512C31.7878 23.6379 28.6136 22.4258 28.5813 18.7631ZM25.5456 9.77404C26.3747 8.73743 26.942 7.32715 26.7846 5.896C25.5845 5.94911 24.0837 6.72585 23.2195 7.7397C22.4549 8.63311 21.7718 10.0975 21.9483 11.4745C23.2963 11.5751 24.6804 10.7945 25.5456 9.77404Z" fill="white"/>
<path d="M123.514 0H59.7588L84.7304 37.926H123.514C124.702 37.925 125.842 37.4528 126.683 36.6129C127.524 35.773 127.998 34.634 128 33.4457V4.48218C127.998 3.29356 127.524 2.15423 126.683 1.31401C125.842 0.473795 124.702 0.00125372 123.514 0Z" fill="url(#paint0_linear_48_12842)"/>
<path d="M50.9097 29.8783H48.7553L47.5751 26.171H43.4731L42.349 29.8783H40.2515L44.3165 17.2569H46.8266L50.9097 29.8783ZM47.2194 24.6156L46.1521 21.3199C46.0392 20.9832 45.8267 20.1903 45.5156 18.9422H45.4776C45.3524 19.479 45.1522 20.2719 44.8781 21.3199L43.8289 24.6156H47.2194ZM61.343 25.216C61.343 26.7638 60.9228 27.9872 60.0813 28.8854C59.3281 29.6849 58.3918 30.0841 57.2752 30.0841C56.0694 30.0841 55.2024 29.6545 54.6759 28.7934V33.5686H52.6533V23.7687C52.6533 22.7966 52.6277 21.7998 52.5784 20.7774H54.3571L54.47 22.2199H54.5079C55.1824 21.1331 56.206 20.5896 57.5797 20.5896C58.6536 20.5896 59.5501 21.0136 60.2673 21.8624C60.9835 22.7131 61.343 23.8303 61.343 25.216ZM59.2826 25.2899C59.2826 24.4041 59.0833 23.6738 58.683 23.0982C58.2457 22.4997 57.6584 22.2 56.9223 22.2C56.4233 22.2 55.9698 22.3669 55.5647 22.696C55.1587 23.028 54.8931 23.4614 54.7688 23.9982C54.7133 24.199 54.6818 24.4056 54.6749 24.6137V26.1321C54.6749 26.7932 54.8779 27.3518 55.2839 27.8089C55.69 28.2641 56.2174 28.4927 56.8663 28.4927C57.6281 28.4927 58.221 28.1978 58.6451 27.6126C59.0701 27.0255 59.2826 26.2516 59.2826 25.2899ZM71.8134 25.216C71.8134 26.7638 71.3932 27.9872 70.5517 28.8854C69.7975 29.6849 68.8621 30.0841 67.7446 30.0841C66.5389 30.0841 65.6718 29.6545 65.1453 28.7934V33.5686H63.1227V23.7687C63.1227 22.7966 63.0971 21.7998 63.0478 20.7774H64.8265L64.9394 22.2199H64.9774C65.6509 21.1331 66.6745 20.5896 68.0491 20.5896C69.1221 20.5896 70.0186 21.0136 70.7376 21.8624C71.4529 22.7131 71.8134 23.8303 71.8134 25.216ZM69.752 25.2899C69.752 24.4041 69.5518 23.6738 69.1515 23.0982C68.7141 22.4997 68.1288 22.2 67.3927 22.2C66.8937 22.2 66.4402 22.3669 66.0332 22.696C65.6272 23.028 65.3625 23.4614 65.2382 23.9982C65.1766 24.2486 65.1434 24.4525 65.1434 24.6137V26.1321C65.1434 26.7932 65.3473 27.3518 65.7515 27.8089C66.1575 28.2632 66.685 28.4927 67.3357 28.4927C68.0985 28.4927 68.6914 28.1978 69.1145 27.6126C69.5395 27.0255 69.752 26.2516 69.752 25.2899ZM83.5199 26.3379C83.5199 27.4125 83.1442 28.286 82.3976 28.9603C81.5761 29.6962 80.4292 30.0652 78.9587 30.0652C77.6003 30.0652 76.5112 29.8034 75.6896 29.2789L76.1573 27.5936C77.0443 28.119 78.0186 28.3808 79.0792 28.3808C79.8419 28.3808 80.4348 28.2082 80.858 27.8658C81.282 27.5225 81.4964 27.0635 81.4964 26.4906C81.4964 25.9775 81.319 25.5479 80.9708 25.1979C80.6208 24.8489 80.0421 24.5236 79.2291 24.2249C77.0187 23.4007 75.9126 22.1953 75.9126 20.6095C75.9126 19.5739 76.3034 18.726 77.0832 18.0631C77.863 17.4011 78.8971 17.0701 80.1835 17.0701C81.3323 17.0701 82.2895 17.2702 83.0494 17.6695L82.5418 19.3178C81.8265 18.9308 81.0192 18.7374 80.1161 18.7374C79.4027 18.7374 78.843 18.9128 78.4427 19.2618C78.1059 19.5739 77.9351 19.9542 77.9351 20.4056C77.9351 20.9035 78.1296 21.317 78.5167 21.6414C78.8525 21.9402 79.4653 22.2655 80.3514 22.6145C81.4385 23.0526 82.2373 23.5629 82.7486 24.149C83.2638 24.7351 83.5199 25.4663 83.5199 26.3379ZM90.2241 22.2949H87.9947V26.7135C87.9947 27.8374 88.3875 28.3979 89.1749 28.3979C89.5363 28.3979 89.8361 28.3675 90.0732 28.304L90.1292 29.8395C89.7308 29.9884 89.2062 30.0633 88.5563 30.0633C87.7576 30.0633 87.1333 29.8195 86.6827 29.3321C86.234 28.8446 86.0082 28.028 86.0082 26.8785V22.2911H84.6801V20.7736H86.0082V19.1073L87.9947 18.5079V20.7736H90.2241V22.2949ZM100.263 25.2529C100.263 26.6519 99.8625 27.8004 99.0637 28.6985C98.2279 29.6232 97.1161 30.0841 95.7301 30.0841C94.3925 30.0841 93.329 29.6412 92.536 28.7564C91.7429 27.8696 91.3463 26.7524 91.3463 25.4047C91.3463 23.9944 91.7562 22.8392 92.573 21.9411C93.3917 21.042 94.494 20.5925 95.88 20.5925C97.2157 20.5925 98.2886 21.0363 99.1007 21.9221C99.8767 22.7814 100.263 23.891 100.263 25.2529ZM98.1663 25.2994C98.1663 24.4658 97.986 23.7507 97.6246 23.1522C97.2005 22.4295 96.5934 22.0682 95.8069 22.0682C94.9968 22.0682 94.3754 22.4295 93.9523 23.1522C93.5899 23.7507 93.4097 24.4781 93.4097 25.3374C93.4097 26.172 93.5899 26.889 93.9523 27.4855C94.3897 28.2082 94.9996 28.5695 95.7899 28.5695C96.563 28.5695 97.1692 28.2006 97.6075 27.4675C97.9794 26.8548 98.1663 26.135 98.1663 25.2994ZM106.84 22.5557C106.63 22.5177 106.416 22.499 106.202 22.4997C105.491 22.4997 104.941 22.7672 104.554 23.3059C104.218 23.7801 104.049 24.3795 104.049 25.1031V29.8783H102.026V23.6435C102.028 22.6881 102.009 21.7328 101.968 20.7784H103.729L103.803 22.5196H103.859C104.074 21.9212 104.409 21.4384 104.87 21.0771C105.292 20.7614 105.805 20.5904 106.332 20.5896C106.519 20.5896 106.688 20.6029 106.838 20.6266L106.84 22.5557ZM115.885 24.8973C115.89 25.2047 115.866 25.5118 115.811 25.8144H109.744C109.766 26.7135 110.061 27.402 110.624 27.8762C111.135 28.2992 111.797 28.5117 112.609 28.5117C113.507 28.5117 114.327 28.3694 115.064 28.0821L115.381 29.4848C114.519 29.8603 113.502 30.0472 112.329 30.0472C110.917 30.0472 109.809 29.6318 109.003 28.8028C108.198 27.973 107.795 26.8577 107.795 25.4606C107.795 24.0892 108.17 22.9464 108.92 22.035C109.706 21.0619 110.767 20.5754 112.103 20.5754C113.415 20.5754 114.408 21.0619 115.083 22.035C115.617 22.806 115.885 23.762 115.885 24.8973ZM113.957 24.3728C113.971 23.7725 113.838 23.2556 113.564 22.8184C113.214 22.255 112.675 21.9743 111.953 21.9743C111.292 21.9743 110.753 22.2484 110.343 22.7985C110.007 23.2357 109.806 23.7611 109.745 24.3709L113.957 24.3728Z" fill="white"/>
<path d="M42.8903 12.7947C42.3278 12.7947 41.8411 12.7672 41.436 12.7207V6.61862C42.0026 6.53113 42.5751 6.488 43.1484 6.48964C45.4678 6.48964 46.536 7.63058 46.536 9.49041C46.536 11.6357 45.2743 12.7947 42.8903 12.7947ZM43.23 7.27208C42.9169 7.27208 42.6503 7.29104 42.4293 7.33657V11.9752C42.5488 11.9942 42.7784 12.0027 43.1009 12.0027C44.6207 12.0027 45.4859 11.1378 45.4859 9.51791C45.4859 8.07348 44.7032 7.27208 43.23 7.27208ZM49.8649 12.8411C48.5576 12.8411 47.7105 11.8652 47.7105 10.5403C47.7105 9.15941 48.5757 8.17496 49.9389 8.17496C51.2272 8.17496 52.0933 9.1044 52.0933 10.4673C52.0933 11.8652 51.2006 12.8411 49.8649 12.8411ZM49.9028 8.90144C49.1847 8.90144 48.7246 9.57292 48.7246 10.5118C48.7246 11.4327 49.1942 12.1042 49.8933 12.1042C50.5925 12.1042 51.0621 11.3863 51.0621 10.4929C51.0621 9.5824 50.602 8.90144 49.9028 8.90144ZM59.5479 8.26696L58.1486 12.7397H57.2369L56.6573 10.7973C56.5132 10.3222 56.3932 9.84011 56.2978 9.35289H56.2788C56.2057 9.84037 56.0672 10.3288 55.9202 10.7973L55.3036 12.7397H54.3824L53.0657 8.26696H54.0874L54.594 10.3933C54.7135 10.8997 54.8141 11.3777 54.8975 11.8292H54.9165C54.9896 11.4527 55.1091 10.9823 55.2846 10.4028L55.9202 8.26791H56.7303L57.3384 10.3573C57.4855 10.8637 57.605 11.3607 57.698 11.8301H57.7245C57.7891 11.3702 57.8906 10.8817 58.0281 10.3573L58.5717 8.26791L59.5479 8.26696ZM64.6991 12.7397H63.7049V10.1714C63.7049 9.38039 63.4013 8.98396 62.8027 8.98396C62.2136 8.98396 61.8085 9.49041 61.8085 10.0794V12.7397H60.8143V9.54541C60.8143 9.14993 60.8048 8.72599 60.7773 8.26601H61.652L61.6985 8.95645H61.726C61.9935 8.47845 62.5361 8.17496 63.1442 8.17496C64.0834 8.17496 64.7 8.89291 64.7 10.0613L64.6991 12.7397ZM67.4407 12.7397H66.4456V6.2146H67.4407V12.7397ZM71.0656 12.8411C69.7593 12.8411 68.9112 11.8652 68.9112 10.5403C68.9112 9.15941 69.7763 8.17496 71.1386 8.17496C72.4278 8.17496 73.293 9.1044 73.293 10.4673C73.294 11.8652 72.4003 12.8411 71.0656 12.8411ZM71.1026 8.90144C70.3844 8.90144 69.9243 9.57292 69.9243 10.5118C69.9243 11.4327 70.3949 12.1042 71.0921 12.1042C71.7922 12.1042 72.2609 11.3863 72.2609 10.4929C72.2618 9.5824 71.8027 8.90144 71.1026 8.90144ZM77.2129 12.7397L77.1408 12.2247H77.1142C76.8107 12.6391 76.3676 12.8411 75.806 12.8411C75.0044 12.8411 74.4352 12.2797 74.4352 11.5247C74.4352 10.4208 75.3924 9.84985 77.0497 9.84985V9.76734C77.0497 9.17838 76.7376 8.88342 76.121 8.88342C75.6798 8.88342 75.2928 8.99439 74.9522 9.21537L74.7502 8.56191C75.1638 8.30395 75.6799 8.17496 76.286 8.17496C77.4548 8.17496 78.0449 8.79143 78.0449 10.0253V11.6727C78.0449 12.1241 78.0648 12.4741 78.1094 12.7406L77.2129 12.7397ZM77.0763 10.5118C75.972 10.5118 75.418 10.7793 75.418 11.4138C75.418 11.8832 75.7036 12.1128 76.1001 12.1128C76.6057 12.1128 77.0763 11.7268 77.0763 11.2023V10.5118ZM82.8726 12.7397L82.8261 12.0217H82.7986C82.5131 12.5642 82.033 12.8411 81.3623 12.8411C80.2837 12.8411 79.4849 11.8927 79.4849 10.5583C79.4849 9.15941 80.3131 8.17401 81.4439 8.17401C82.0425 8.17401 82.4666 8.37603 82.7056 8.78194H82.7256V6.2146H83.7207V11.5342C83.7207 11.9667 83.7311 12.3717 83.7577 12.7397H82.8726ZM82.7256 10.1078C82.7256 9.48187 82.311 8.94792 81.6782 8.94792C80.9411 8.94792 80.4905 9.60137 80.4905 10.5213C80.4905 11.4233 80.9582 12.0407 81.6583 12.0407C82.2835 12.0407 82.7256 11.4972 82.7256 10.8533V10.1078ZM90.0302 12.8411C88.7239 12.8411 87.8768 11.8652 87.8768 10.5403C87.8768 9.15941 88.742 8.17496 90.1042 8.17496C91.3935 8.17496 92.2586 9.1044 92.2586 10.4673C92.2596 11.8652 91.3669 12.8411 90.0302 12.8411ZM90.0672 8.90144C89.3501 8.90144 88.8899 9.57292 88.8899 10.5118C88.8899 11.4327 89.3595 12.1042 90.0578 12.1042C90.7579 12.1042 91.2265 11.3863 91.2265 10.4929C91.2284 9.5824 90.7683 8.90144 90.0672 8.90144ZM97.6053 12.7397H96.6102V10.1714C96.6102 9.38039 96.3066 8.98396 95.708 8.98396C95.1189 8.98396 94.7147 9.49041 94.7147 10.0794V12.7397H93.7196V9.54541C93.7196 9.14993 93.7101 8.72599 93.6826 8.26601H94.5573L94.6037 8.95645H94.6312C94.8978 8.47845 95.4414 8.17401 96.0485 8.17401C96.9877 8.17401 97.6053 8.89196 97.6053 10.0604V12.7397ZM104.294 9.01241H103.201V11.1843C103.201 11.7372 103.392 12.0132 103.779 12.0132C103.955 12.0132 104.102 11.9942 104.22 11.9667L104.248 12.7216C104.055 12.7956 103.797 12.8326 103.477 12.8326C102.693 12.8326 102.224 12.4001 102.224 11.2677V9.01241H101.572V8.26696H102.224V7.44753L103.201 7.15258V8.26601H104.294V9.01241ZM109.557 12.7397H108.564V10.1903C108.564 9.38988 108.262 8.9849 107.662 8.9849C107.147 8.9849 106.667 9.33487 106.667 10.0433V12.7397H105.674V6.2146H106.667V8.90144H106.687C107 8.41396 107.453 8.17401 108.032 8.17401C108.979 8.17401 109.557 8.90998 109.557 10.0794V12.7397ZM114.95 10.7423H111.966C111.985 11.5892 112.546 12.0672 113.376 12.0672C113.817 12.0672 114.223 11.9933 114.582 11.8557L114.736 12.5462C114.313 12.7302 113.815 12.8222 113.235 12.8222C111.836 12.8222 111.008 11.9383 111.008 10.5678C111.008 9.1964 111.856 8.16548 113.123 8.16548C114.267 8.16548 114.984 9.01241 114.984 10.2918C114.99 10.4428 114.979 10.594 114.95 10.7423ZM114.038 10.0338C114.038 9.3434 113.69 8.85592 113.054 8.85592C112.483 8.85592 112.032 9.35289 111.967 10.0338H114.038Z" fill="white"/>
<defs>
<linearGradient id="paint0_linear_48_12842" x1="93.8782" y1="38.0267" x2="93.8782" y2="-98.7527" gradientUnits="userSpaceOnUse">
<stop stop-color="#1A1A1A" stop-opacity="0.1"/>
<stop offset="0.123" stop-color="#212121" stop-opacity="0.151"/>
<stop offset="0.308" stop-color="#353535" stop-opacity="0.227"/>
<stop offset="0.532" stop-color="#575757" stop-opacity="0.318"/>
<stop offset="0.783" stop-color="#858585" stop-opacity="0.421"/>
<stop offset="1" stop-color="#B3B3B3" stop-opacity="0.51"/>
</linearGradient>
</defs>
</svg>
