<svg width="130" height="38" viewBox="0 0 130 38" fill="none" xmlns="http://www.w3.org/2000/svg">
<path d="M124.473 37.1141H4.78741C2.10646 37.1141 0 35.0728 0 32.4748V4.63926C0 2.04127 2.10646 0 4.78741 0H124.473C127.154 0 129.26 2.04127 129.26 4.63926V32.4748C129.26 35.0728 127.154 37.1141 124.473 37.1141Z" fill="black"/>
<path d="M124.473 0.742281C126.675 0.742281 128.494 2.5052 128.494 4.63926V32.4748C128.494 34.6089 126.675 36.3718 124.473 36.3718H4.78741C2.5852 36.3718 0.765985 34.6089 0.765985 32.4748V4.63926C0.765985 2.5052 2.5852 0.742281 4.78741 0.742281H124.473ZM124.473 0H4.78741C2.10646 0 0 2.13406 0 4.63926V32.4748C0 35.0728 2.10646 37.1141 4.78741 37.1141H124.473C127.154 37.1141 129.26 35.0728 129.26 32.4748V4.63926C129.26 2.13406 127.154 0 124.473 0Z" fill="#A6A6A6"/>
<path d="M45.3845 9.46425C45.3845 10.2065 45.193 10.856 44.7143 11.32C44.1398 11.8767 43.4696 12.155 42.6078 12.155C41.7461 12.155 41.0759 11.8767 40.5014 11.32C39.9269 10.7632 39.6396 10.1138 39.6396 9.27868C39.6396 8.44362 39.9269 7.79412 40.5014 7.23741C41.0759 6.6807 41.7461 6.40234 42.6078 6.40234C42.9908 6.40234 43.3738 6.49513 43.7568 6.6807C44.1398 6.86627 44.4271 7.05184 44.6185 7.3302L44.1398 7.79412C43.7568 7.3302 43.2781 7.14462 42.6078 7.14462C42.0334 7.14462 41.4589 7.3302 41.0759 7.79412C40.5971 8.16526 40.4056 8.72197 40.4056 9.37147C40.4056 10.021 40.5971 10.5777 41.0759 10.9488C41.5546 11.32 42.0334 11.5983 42.6078 11.5983C43.2781 11.5983 43.7568 11.4127 44.2356 10.9488C44.5228 10.6705 44.7143 10.2993 44.7143 9.8354H42.6078V9.09311H45.3845V9.46425ZM49.7889 7.14462H47.2037V8.90754H49.5975V9.55704H47.2037V11.32H49.7889V12.0622H46.4378V6.49513H49.7889V7.14462ZM52.9486 12.0622H52.1827V7.14462H50.5549V6.49513H54.5764V7.14462H52.9486V12.0622ZM57.3531 12.0622V6.49513H58.119V12.0622H57.3531ZM61.3745 12.0622H60.6085V7.14462H58.9808V6.49513H62.9064V7.14462H61.2787V12.0622H61.3745ZM70.4705 11.32C69.8961 11.8767 69.2258 12.155 68.3641 12.155C67.5024 12.155 66.8321 11.8767 66.2576 11.32C65.6831 10.7632 65.3959 10.1138 65.3959 9.27868C65.3959 8.44362 65.6831 7.79412 66.2576 7.23741C66.8321 6.6807 67.5024 6.40234 68.3641 6.40234C69.2258 6.40234 69.8961 6.6807 70.4705 7.23741C71.045 7.79412 71.3323 8.44362 71.3323 9.27868C71.3323 10.1138 71.045 10.7632 70.4705 11.32ZM66.8321 10.856C67.2151 11.2272 67.7896 11.5055 68.3641 11.5055C68.9386 11.5055 69.5131 11.32 69.8961 10.856C70.2791 10.4849 70.5663 9.92818 70.5663 9.27868C70.5663 8.62919 70.3748 8.07248 69.8961 7.70134C69.5131 7.3302 68.9386 7.05184 68.3641 7.05184C67.7896 7.05184 67.2151 7.23741 66.8321 7.70134C66.4491 8.07248 66.1619 8.62919 66.1619 9.27868C66.1619 9.92818 66.3534 10.4849 66.8321 10.856ZM72.3855 12.0622V6.49513H73.2472L76.0239 10.856V6.49513H76.7899V12.0622H76.0239L73.0558 7.51577V12.0622H72.3855Z" fill="white" stroke="white" stroke-width="1.18519" stroke-miterlimit="10"/>
<path d="M65.2045 20.2271C62.9066 20.2271 61.0874 21.8972 61.0874 24.2169C61.0874 26.4437 62.9066 28.2066 65.2045 28.2066C67.5025 28.2066 69.3217 26.5365 69.3217 24.2169C69.3217 21.8045 67.5025 20.2271 65.2045 20.2271ZM65.2045 26.5365C63.9598 26.5365 62.9066 25.5159 62.9066 24.1241C62.9066 22.7323 63.9598 21.7117 65.2045 21.7117C66.4493 21.7117 67.5025 22.6395 67.5025 24.1241C67.5025 25.5159 66.4493 26.5365 65.2045 26.5365ZM56.3 20.2271C54.002 20.2271 52.1828 21.8972 52.1828 24.2169C52.1828 26.4437 54.002 28.2066 56.3 28.2066C58.5979 28.2066 60.4171 26.5365 60.4171 24.2169C60.4171 21.8045 58.5979 20.2271 56.3 20.2271ZM56.3 26.5365C55.0552 26.5365 54.002 25.5159 54.002 24.1241C54.002 22.7323 55.0552 21.7117 56.3 21.7117C57.5447 21.7117 58.5979 22.6395 58.5979 24.1241C58.5979 25.5159 57.5447 26.5365 56.3 26.5365ZM45.6719 21.4333V23.1035H49.7891C49.6933 24.0313 49.3103 24.7736 48.8316 25.2375C48.2571 25.7942 47.2996 26.4437 45.6719 26.4437C43.0867 26.4437 41.1718 24.4952 41.1718 21.99C41.1718 19.4848 43.1825 17.5363 45.6719 17.5363C47.0124 17.5363 48.0656 18.0931 48.8316 18.7426L50.0763 17.5363C49.0231 16.6085 47.6826 15.8662 45.7677 15.8662C42.3207 15.8662 39.3525 18.6498 39.3525 21.99C39.3525 25.3303 42.3207 28.1139 45.7677 28.1139C47.6826 28.1139 49.0231 27.5571 50.1721 26.3509C51.3211 25.2375 51.7041 23.6602 51.7041 22.454C51.7041 22.0828 51.7041 21.7117 51.6083 21.4333H45.6719ZM89.1416 22.7323C88.7586 21.8045 87.8011 20.2271 85.6946 20.2271C83.5882 20.2271 81.8647 21.8045 81.8647 24.2169C81.8647 26.4437 83.5882 28.2066 85.8861 28.2066C87.7053 28.2066 88.8543 27.0932 89.2373 26.4437L87.8969 25.5159C87.4181 26.1654 86.8436 26.6293 85.8861 26.6293C84.9286 26.6293 84.3542 26.2582 83.8754 25.4231L89.3331 23.1962L89.1416 22.7323ZM83.5882 24.0313C83.5882 22.5467 84.8329 21.7117 85.6946 21.7117C86.3649 21.7117 87.0351 22.0828 87.2266 22.5467L83.5882 24.0313ZM79.088 27.8355H80.9072V16.2374H79.088V27.8355ZM76.2156 21.0622C75.7368 20.5983 74.9709 20.1343 74.0134 20.1343C72.0027 20.1343 70.0877 21.8972 70.0877 24.1241C70.0877 26.3509 71.9069 28.0211 74.0134 28.0211C74.9709 28.0211 75.7368 27.5571 76.1198 27.0932H76.2156V27.6499C76.2156 29.1345 75.3538 29.9696 74.0134 29.9696C72.9601 29.9696 72.1941 29.2273 72.0027 28.5778L70.4707 29.2273C70.9494 30.2479 72.0984 31.5469 74.1091 31.5469C76.2156 31.5469 77.939 30.3407 77.939 27.4644V20.4127H76.2156V21.0622ZM74.1091 26.5365C72.8644 26.5365 71.8112 25.5159 71.8112 24.1241C71.8112 22.7323 72.8644 21.7117 74.1091 21.7117C75.3538 21.7117 76.3113 22.7323 76.3113 24.1241C76.3113 25.5159 75.3538 26.5365 74.1091 26.5365ZM97.4717 16.2374H93.163V27.8355H94.9822V23.4746H97.4717C99.4824 23.4746 101.397 22.0828 101.397 19.856C101.397 17.6291 99.4824 16.2374 97.4717 16.2374ZM97.5674 21.8045H94.9822V17.8147H97.5674C98.9079 17.8147 99.6739 18.9281 99.6739 19.7632C99.5781 20.7838 98.8121 21.8045 97.5674 21.8045ZM108.578 20.1343C107.238 20.1343 105.897 20.691 105.419 21.8972L107.046 22.5467C107.429 21.8972 108.004 21.7117 108.674 21.7117C109.632 21.7117 110.493 22.2684 110.589 23.1962V23.289C110.302 23.1035 109.536 22.8251 108.77 22.8251C107.046 22.8251 105.323 23.753 105.323 25.4231C105.323 27.0004 106.759 28.0211 108.291 28.0211C109.536 28.0211 110.11 27.4644 110.589 26.9076H110.685V27.8355H112.408V23.3818C112.217 21.3405 110.589 20.1343 108.578 20.1343ZM108.387 26.5365C107.812 26.5365 106.951 26.2582 106.951 25.5159C106.951 24.588 108.004 24.3097 108.866 24.3097C109.632 24.3097 110.015 24.4952 110.493 24.6808C110.302 25.7942 109.344 26.5365 108.387 26.5365ZM118.44 20.4127L116.43 25.4231H116.334L114.228 20.4127H112.313L115.472 27.4644L113.653 31.3613H115.472L120.355 20.4127H118.44ZM102.355 27.8355H104.174V16.2374H102.355V27.8355Z" fill="white"/>
<path d="M9.9577 6.95972C9.67045 7.23807 9.57471 7.702 9.57471 8.25871V28.7642C9.57471 29.3209 9.7662 29.7849 10.0534 30.0632L10.1492 30.156L22.022 18.6507V18.4651L9.9577 6.95972Z" fill="white"/>
<path d="M25.8524 22.5467L21.9268 18.7425V18.4641L25.8524 14.6599L25.9482 14.7527L30.6398 17.3507C31.9803 18.093 31.9803 19.2992 30.6398 20.0415L25.8524 22.5467Z" fill="white"/>
<path d="M25.9484 22.4546L21.927 18.5576L9.9585 30.1558C10.4372 30.6197 11.1075 30.6197 11.9692 30.2485L25.9484 22.4546Z" fill="white"/>
<path d="M25.9484 14.6605L11.9692 6.95931C11.1075 6.49538 10.4372 6.58816 9.9585 7.05209L21.927 18.5575L25.9484 14.6605Z" fill="white"/>
<path opacity="0.2" d="M25.8527 22.3613L11.9692 29.9697C11.2032 30.4336 10.533 30.3409 10.0542 29.9697L9.9585 30.0625L10.0542 30.1553C10.533 30.5264 11.2032 30.6192 11.9692 30.1553L25.8527 22.3613Z" fill="black"/>
<path opacity="0.12" d="M9.9577 29.9702C9.67045 29.6918 9.57471 29.2279 9.57471 28.6712V28.764C9.57471 29.3207 9.7662 29.7846 10.0534 30.063V29.9702H9.9577ZM30.6393 19.7638L25.8519 22.3618L25.9476 22.4546L30.6393 19.8566C31.3095 19.4855 31.5968 19.0215 31.5968 18.5576C31.5968 19.0215 31.2138 19.3927 30.6393 19.7638Z" fill="black"/>
<path opacity="0.25" d="M11.9684 7.05149L30.6393 17.3506C31.2138 17.7218 31.5968 18.0929 31.5968 18.5568C31.5968 18.0929 31.3095 17.629 30.6393 17.2579L11.9684 6.9587C10.6279 6.21642 9.57471 6.77313 9.57471 8.25769V8.35048C9.57471 6.9587 10.6279 6.30921 11.9684 7.05149Z" fill="white"/>
</svg>
