<svg width="38" height="38" viewBox="0 0 38 38" fill="none" xmlns="http://www.w3.org/2000/svg">
<path d="M17.5164 -0.00634766H18.1827C18.3763 0.054662 18.5839 0.054662 18.7775 -0.00634766H19.2231C19.4159 0.0546284 19.6229 0.0546284 19.8158 -0.00634766H20.4841C21.0369 0.0735682 21.596 0.0714649 22.1508 0.119835C23.3538 0.256606 24.5329 0.554395 25.6566 1.00522C27.8218 1.79452 29.8227 2.97737 31.5584 4.49418C33.3198 6.01322 34.7873 7.8431 35.888 9.89271C36.7261 11.4487 37.347 13.1122 37.7334 14.837C37.9015 15.6172 37.8994 16.4122 37.9646 17.2008C37.9646 17.2954 37.9309 17.3985 38.0003 17.4868V18.1535C37.9394 18.3465 37.9394 18.5536 38.0003 18.7465V19.1903C37.9394 19.3833 37.9394 19.5904 38.0003 19.7834V20.5257C37.9183 21.0536 37.9267 21.5878 37.8784 22.1177C37.7373 23.3185 37.4377 24.4953 36.9872 25.6172C36.1966 27.7792 35.0122 29.7758 33.4941 31.5057C31.9452 33.2926 30.078 34.7759 27.9875 35.8801C26.3132 36.7659 24.5191 37.4034 22.6616 37.7728C22.1236 37.8625 21.58 37.9145 21.0348 37.9285C19.2956 38.0411 17.5501 38.0094 15.8161 37.8338C14.1831 37.6139 12.5941 37.1414 11.106 36.4332C9.40862 35.6813 7.83476 34.6766 6.43802 33.4532C4.6683 31.9239 3.19495 30.0818 2.09156 28.0189C1.26263 26.4715 0.646824 24.8189 0.260916 23.1062C0.0948758 22.3386 0.101182 21.5562 0.0318235 20.7802C0.0318235 20.6961 0.0591468 20.6077 -0.00390625 20.532V19.7897C0.0549251 19.5964 0.0549251 19.3899 -0.00390625 19.1966V18.7529C0.0549251 18.5596 0.0549251 18.3531 -0.00390625 18.1598V17.4174C0.075961 16.9022 0.0696552 16.3806 0.113792 15.8633C0.245874 14.6753 0.538594 13.5108 0.983925 12.4016C1.77941 10.1993 2.98147 8.16607 4.52751 6.40795C6.10394 4.59501 8.00866 3.09657 10.1413 1.99155C11.6343 1.21632 13.2209 0.63672 14.8619 0.267049C15.6438 0.0967024 16.4382 0.100907 17.2285 0.0357127C17.3252 0.0294035 17.4282 0.0672591 17.5164 -0.00634766Z" fill="#3B5997"/>
<path d="M18.7774 -0.00634766C18.687 0.0458888 18.5844 0.0733895 18.48 0.0733895C18.3756 0.0733895 18.273 0.0458888 18.1826 -0.00634766H18.7774Z" fill="#5E77AA"/>
<path d="M19.8158 -0.00634766C19.7258 0.045911 19.6236 0.0734345 19.5195 0.0734345C19.4154 0.0734345 19.3132 0.045911 19.2231 -0.00634766H19.8158Z" fill="#5E77AA"/>
<path d="M0 18.1599C0.0522268 18.25 0.0797336 18.3523 0.0797336 18.4564C0.0797336 18.5606 0.0522268 18.6629 0 18.753V18.1599Z" fill="#5E77AA"/>
<path d="M38.0086 18.753C37.956 18.663 37.9282 18.5607 37.9282 18.4564C37.9282 18.3522 37.956 18.2499 38.0086 18.1599V18.753Z" fill="#5E77AA"/>
<path d="M0 19.1965C0.0522268 19.2866 0.0797336 19.3889 0.0797336 19.4931C0.0797336 19.5972 0.0522268 19.6995 0 19.7896V19.1965Z" fill="#5E77AA"/>
<path d="M38.0086 19.7896C37.956 19.6997 37.9282 19.5973 37.9282 19.4931C37.9282 19.3888 37.956 19.2865 38.0086 19.1965V19.7896Z" fill="#5E77AA"/>
<path d="M20.3935 25.9431C20.3935 27.8695 20.3935 29.7959 20.3935 31.7223C20.3935 32.0188 20.3347 32.1282 20.011 32.124C18.5398 32.1071 17.0685 32.1071 15.5973 32.124C15.2883 32.124 15.2337 32.0188 15.2358 31.7412C15.2358 27.8758 15.2358 24.0104 15.2484 20.1471C15.2484 19.7791 15.1454 19.6907 14.7965 19.7097C14.229 19.7391 13.6595 19.7097 13.0899 19.7202C12.9028 19.7202 12.7977 19.6991 12.7998 19.4678C12.8096 18.1835 12.8096 16.8993 12.7998 15.615C12.7998 15.3921 12.8902 15.3458 13.0878 15.35C13.67 15.35 14.2522 15.3353 14.8322 15.35C15.1454 15.3627 15.2526 15.2933 15.2526 14.9505C15.2046 13.9391 15.2165 12.9257 15.2883 11.9158C15.4985 9.95572 16.3392 8.43731 18.2749 7.69914C18.9904 7.45229 19.7442 7.33548 20.5007 7.35424C21.6378 7.35424 22.7769 7.37107 23.914 7.35424C24.1767 7.35424 24.2482 7.44047 24.2461 7.69494C24.2335 8.89157 24.2461 10.0903 24.2461 11.2891C24.2461 11.533 24.1704 11.6066 23.9266 11.6024C23.1616 11.5898 22.3944 11.5919 21.6273 11.6024C20.7613 11.6024 20.4103 11.9515 20.3977 12.8117C20.3851 13.554 20.3977 14.2838 20.3977 15.0346C20.3977 15.2785 20.4671 15.3479 20.7088 15.3458C21.7597 15.3332 22.8106 15.3458 23.8615 15.3332C24.1662 15.3332 24.2356 15.4215 24.204 15.7097C24.0639 16.9477 23.9364 18.1878 23.8215 19.43C23.8005 19.655 23.7101 19.7097 23.4936 19.7076C22.592 19.6949 21.6882 19.7076 20.7866 19.6949C20.4839 19.6949 20.3914 19.7601 20.3935 20.0756C20.4019 22.0419 20.3935 23.9936 20.3935 25.9431Z" fill="#FEFEFE"/>
</svg>
