<svg width="38" height="38" viewBox="0 0 38 38" fill="none" xmlns="http://www.w3.org/2000/svg">
<path d="M20.3371 -0.000116168H20.5592C21.0818 0.0834003 21.6111 0.08173 22.1371 0.125159C23.5798 0.243752 24.9339 0.699752 26.2564 1.24261C28.0106 1.95547 29.6466 2.93033 31.1086 4.13395C31.6635 4.58658 32.1878 5.07539 32.6782 5.59716C32.7644 5.66803 32.8234 5.7666 32.8452 5.8761C32.8187 6.06076 32.7275 6.23003 32.588 6.35382C31.6413 7.30424 30.6879 8.24964 29.7411 9.19338C29.7124 9.23341 29.6752 9.26659 29.6322 9.29056C29.5892 9.31453 29.5414 9.32868 29.4923 9.33202C29.4094 9.31341 29.3325 9.27437 29.2686 9.21843C28.5656 8.47013 27.704 8.16613 26.6771 8.16947C21.5009 8.18784 16.3247 8.16947 11.1385 8.16947C10.3036 8.16947 9.5556 8.3816 8.94114 8.98292C8.32667 9.58424 8.1263 10.2925 8.12463 11.0976C8.12463 14.0106 8.12463 16.9237 8.12463 19.8367C8.12463 22.0816 8.13632 24.3282 8.12463 26.5748C8.12463 27.4952 8.34337 28.3053 8.98622 28.9784C9.02859 29.0239 9.06353 29.0758 9.08975 29.1321C9.11237 29.166 9.13087 29.2024 9.14485 29.2407C9.14517 29.3209 9.12678 29.4002 9.09112 29.4721C9.05547 29.544 9.00355 29.6066 8.93947 29.6549C8.00441 30.6026 7.06212 31.5429 6.11259 32.4761C6.01817 32.5751 5.89874 32.6466 5.76696 32.6832C5.41631 32.6231 5.24266 32.3274 5.03227 32.0986C3.60721 30.5853 2.43356 28.8535 1.55587 26.969C0.923302 25.6268 0.463783 24.2096 0.188349 22.7514C0.0731367 22.1117 0.104862 21.4519 0.00634766 20.8072V17.1174C0.0915045 16.643 0.088165 16.162 0.131578 15.6843C0.263488 14.2561 0.731016 12.9216 1.26867 11.6103C2.00637 9.828 3.01326 8.16952 4.25417 6.69289C5.689 4.97542 7.41242 3.52158 9.34688 2.39681C10.9935 1.43742 12.775 0.731315 14.6316 0.302214C15.4581 0.106786 16.293 0.110126 17.1279 0.0316205C17.2114 0.0316205 17.2949 0.0583456 17.3767 -0.00512695H17.6722C17.7029 0.0225738 17.7428 0.0379069 17.7841 0.0379069C17.8254 0.0379069 17.8653 0.0225738 17.896 -0.00512695H20.0483C20.09 0.039972 20.1434 0.0299502 20.1969 0.0316205C20.2503 0.0332908 20.3004 0.0449827 20.3371 -0.000116168Z" fill="#EF5D4A"/>
<path d="M29.5309 9.27184C29.5872 9.10761 29.6913 8.96395 29.8298 8.85927C30.6936 7.9996 31.5563 7.13883 32.4179 6.27694C32.5297 6.16335 32.6299 6.03808 32.7351 5.91949C32.9472 5.81259 33.0607 5.97461 33.1759 6.08652C33.6777 6.61272 34.1382 7.17672 34.5535 7.77355C36.1367 9.94432 37.233 12.4312 37.7677 15.0645C37.918 15.8078 37.9113 16.5678 37.9648 17.3178C37.9748 17.4498 37.9247 17.5867 38.0015 17.7137V18.3818C37.9397 18.7747 37.9397 19.1749 38.0015 19.5678V20.2359C37.9213 20.8422 37.9113 21.4552 37.8679 22.0732C37.7878 23.174 37.4822 24.2196 37.1232 25.2469C36.3982 27.3554 35.301 29.3168 33.8839 31.0379C31.0371 34.5422 27.0462 36.9299 22.6131 37.781C22.1222 37.862 21.6262 37.9084 21.1287 37.9197C19.3271 38.0082 17.5171 38.055 15.7288 37.8228C13.5865 37.5438 11.5878 36.7772 9.69935 35.7382C8.37906 35.0036 7.14664 34.121 6.02592 33.1074C5.88232 32.9788 5.6519 32.8652 5.78214 32.5947C6.84743 31.4789 7.9311 30.3815 9.06151 29.3308C9.13053 29.3038 9.20511 29.2941 9.27875 29.3025C9.35239 29.311 9.42284 29.3373 9.48396 29.3793C10.0088 29.6396 10.588 29.7713 11.1737 29.7634C16.4145 29.7568 21.6558 29.7568 26.8977 29.7634C27.9914 29.7634 28.8663 29.3525 29.4524 28.4021C29.7047 27.9601 29.8268 27.4558 29.8047 26.9473C29.8047 22.9385 29.8047 18.9269 29.8047 14.9125C29.8047 13.6164 29.8047 12.3219 29.8047 11.0257C29.8152 10.5669 29.7269 10.1111 29.5459 9.68942C29.4841 9.55245 29.399 9.41215 29.5309 9.27184Z" fill="#D85443"/>
<path d="M38 19.5629C37.8815 19.1765 37.8815 18.7634 38 18.377V19.5629Z" fill="#E26E5F"/>
<path d="M17.8878 0C17.8127 0.0734945 17.7392 0.10022 17.6641 0H17.8878Z" fill="#F6A59A"/>
<path d="M20.192 0.0634733C20.1633 0.0669308 20.1343 0.0629001 20.1076 0.051776C20.081 0.0406518 20.0577 0.0228131 20.04 0H20.1886C20.2437 0.0183736 20.2454 0.0317371 20.192 0.0634733Z" fill="#F59C90"/>
<path d="M20.1919 0.0634733C20.1919 0.0417591 20.1919 0.0217143 20.1919 0H20.3405C20.3088 0.0668132 20.2503 0.066814 20.1919 0.0634733Z" fill="#F7B0A7"/>
<path d="M9.05304 29.2707C8.27828 28.6744 7.94434 27.8726 7.94434 26.9238C7.94434 24.1478 7.94434 21.3711 7.94434 18.5939C7.94434 16.1018 7.94434 13.6091 7.94434 11.1158C7.94434 9.24007 9.17661 8.00903 11.0551 8.00903H26.9276C27.9378 8.00903 28.7861 8.3431 29.3955 9.17826C29.4656 9.37369 29.3554 9.51233 29.2285 9.62925C28.8144 10.0452 28.3937 10.4644 27.9796 10.8736C27.9283 10.9427 27.8588 10.9961 27.7789 11.028C27.699 11.0598 27.6118 11.0689 27.5271 11.054C27.0128 10.7367 26.4451 10.6816 25.8573 10.7016C25.3764 10.7183 24.8939 10.6933 24.4147 10.7016C23.5598 10.7333 23.2642 11.0357 23.2592 11.8825C23.2592 12.4989 23.2726 13.1136 23.2592 13.7299C23.2244 14.1373 23.3279 14.5445 23.5531 14.8858C23.5719 14.9689 23.5693 15.0556 23.5453 15.1374C23.5213 15.2192 23.4769 15.2936 23.4162 15.3535C23.124 15.6491 22.8334 15.9448 22.5345 16.2321C22.4825 16.2929 22.4162 16.3399 22.3417 16.369C22.2671 16.3982 22.1866 16.4085 22.1071 16.3991C21.865 16.3156 21.7013 16.1218 21.5077 15.9715C20.3188 15.0511 19.003 14.8123 17.5988 15.3368C16.1945 15.8613 15.338 16.9136 15.0942 18.4219C14.8871 19.6763 15.3396 20.7202 16.1277 21.6573C16.2401 21.7714 16.3341 21.9021 16.4066 22.0448C16.4143 22.1246 16.4021 22.205 16.3709 22.2788C16.3397 22.3526 16.2905 22.4174 16.2279 22.4674C15.7103 22.9952 15.1894 23.5197 14.6584 24.0325C14.61 24.0969 14.5463 24.1483 14.4732 24.1822C14.4001 24.216 14.3197 24.2311 14.2393 24.2263C13.6148 23.8755 13.2074 23.3193 12.8283 22.7413C11.91 21.3366 11.6595 19.7798 11.7831 18.1379C11.8165 17.7103 11.7831 17.6752 11.3473 17.6685H11.0835C10.6159 17.6802 10.5024 17.7788 10.5024 18.2331C10.5024 20.9056 10.5024 23.5615 10.5024 26.2256C10.5024 26.6499 10.7178 26.9456 10.9766 27.2278C11.0218 27.3095 11.0369 27.4044 11.0192 27.496C11.0015 27.5876 10.9521 27.6701 10.8797 27.7289C10.4105 28.2117 9.933 28.6844 9.45378 29.1554C9.40846 29.2154 9.34489 29.2591 9.27263 29.2799C9.20036 29.3007 9.12331 29.2974 9.05304 29.2707Z" fill="#FEFEFE"/>
<path d="M22.1373 16.3024C22.652 15.9445 23.0987 15.4977 23.4564 14.9828C23.5265 14.9077 23.61 14.931 23.6919 14.9494C24.5756 15.0179 25.4626 15.0363 26.3484 15.0045C27.2651 14.9945 27.5707 14.6822 27.5773 13.7752C27.584 12.8682 27.5924 11.9796 27.5423 11.0826C27.5487 11.0403 27.5693 11.0014 27.6007 10.9724C28.2366 10.4103 28.8382 9.81073 29.4024 9.17676L29.5343 9.27197C29.9267 9.90168 30.0235 10.5932 30.0218 11.3231C30.0118 16.4733 30.0118 21.6224 30.0218 26.7703C30.0218 27.841 29.6879 28.7296 28.8096 29.3727C28.32 29.7375 27.7253 29.9333 27.1148 29.9306H10.8265C10.1941 29.9103 9.58201 29.7021 9.06825 29.3326C9.06148 29.3108 9.05646 29.2884 9.05322 29.2658C9.67437 28.7263 10.2304 28.1183 10.8115 27.5387C10.854 27.4793 10.8878 27.414 10.9116 27.3449C10.9292 27.316 10.9536 27.2919 10.9828 27.2747C11.0119 27.2575 11.0448 27.2478 11.0786 27.2464C11.3988 27.257 11.7192 27.2508 12.0387 27.228C16.6873 27.228 21.3364 27.228 25.9861 27.228C27.2634 27.228 27.4321 27.061 27.4321 25.7681C27.4321 23.3116 27.4321 20.8551 27.4321 18.3986C27.4321 17.7305 27.0981 17.495 26.4569 17.6804C26.2416 17.7422 26.2232 17.8942 26.2249 18.083C26.2249 18.7511 26.2883 19.4192 26.1798 20.079C25.9662 21.3018 25.4448 22.45 24.6646 23.4154C23.8845 24.3807 22.8714 25.1314 21.721 25.5965C20.5705 26.0616 19.3205 26.2259 18.0889 26.0739C16.8574 25.9219 15.6849 25.4585 14.6819 24.7275C14.5056 24.6351 14.3686 24.4821 14.2962 24.2966C14.2882 24.2525 14.2959 24.207 14.3179 24.168C14.8188 23.565 15.4183 23.0539 15.9576 22.4876C16.0845 22.354 16.2081 22.2187 16.3333 22.0851C16.344 22.0696 16.3582 22.0568 16.3747 22.0478C16.3913 22.0388 16.4097 22.0339 16.4285 22.0333C16.6229 22.0703 16.8063 22.1514 16.9645 22.2705C17.6887 22.7092 18.5355 22.9017 19.3782 22.8192C20.2209 22.7368 21.0142 22.3837 21.6397 21.8128C22.2695 21.2556 22.6964 20.5049 22.8536 19.6787C23.0107 18.8525 22.8892 17.9974 22.508 17.2478C22.3661 16.9622 22.1741 16.7033 22.0856 16.3876C22.0866 16.3702 22.0919 16.3534 22.1009 16.3386C22.1099 16.3237 22.1224 16.3113 22.1373 16.3024Z" fill="#F0F1F1"/>
<path d="M22.1372 16.3023C22.1372 16.3206 22.1372 16.339 22.1372 16.3591C22.1609 16.4358 22.1601 16.5181 22.1349 16.5944C22.1098 16.6707 22.0616 16.7373 21.997 16.785C20.571 18.2148 19.1584 19.6479 17.7041 21.056C17.4135 21.3383 17.0996 21.5989 16.8158 21.8912C16.7659 21.9542 16.7028 22.0056 16.631 22.0416C16.5592 22.0777 16.4803 22.0976 16.4 22.1H16.3666H16.3332C14.6985 20.6819 14.4698 18.5522 15.4082 16.9487C15.7326 16.4005 16.1782 15.9339 16.7107 15.5845C17.2432 15.2351 17.8485 15.0122 18.4804 14.9329C19.1123 14.8536 19.7539 14.9199 20.3562 15.1269C20.9585 15.3338 21.5054 15.6759 21.9552 16.1269L22.1372 16.3023Z" fill="#EF5D4A"/>
<path d="M14.3128 24.1762C14.3111 24.1946 14.3111 24.213 14.3128 24.2314C14.3096 24.2871 14.2949 24.3415 14.2696 24.3912C14.2443 24.441 14.209 24.4849 14.1659 24.5203C13.2809 25.3805 12.4561 26.3042 11.5143 27.106C11.387 27.2232 11.2308 27.3045 11.0618 27.3415L10.9115 27.3499C10.4757 27.111 10.3138 26.7402 10.3154 26.2474C10.3255 23.448 10.3255 20.6474 10.3154 17.8457C10.3154 17.5534 10.3906 17.4565 10.6845 17.4799C11.0178 17.5076 11.3529 17.5076 11.6863 17.4799C12.0203 17.4515 12.072 17.5534 12.0203 17.8657C11.7742 19.2618 11.9813 20.7 12.6113 21.9697C13.0141 22.8186 13.5943 23.5711 14.3128 24.1762Z" fill="#EF5D4A"/>
<path d="M27.5972 10.9723C27.6014 10.9966 27.6014 11.0215 27.5972 11.0458C27.5756 11.2303 27.4849 11.3998 27.3434 11.5202C26.2558 12.6059 25.1688 13.691 24.0824 14.7756C23.9598 14.9161 23.7898 15.0065 23.6049 15.0295L23.4562 14.9828C23.3266 14.8685 23.2247 14.7263 23.1582 14.5669C23.0917 14.4074 23.0623 14.2349 23.0722 14.0624C23.0856 13.249 23.0722 12.4355 23.0722 11.6221C23.0722 10.9539 23.4295 10.5764 24.0907 10.5614C24.9674 10.5414 25.844 10.5614 26.7206 10.5614C26.888 10.5608 27.0534 10.5973 27.205 10.6684C27.3566 10.7394 27.4905 10.8432 27.5972 10.9723Z" fill="#EF5D4A"/>
<path d="M11.062 27.3416C11.8435 26.5732 12.6199 25.7982 13.4113 25.0382C13.7019 24.7592 13.929 24.4068 14.313 24.2314C15.2627 25.0259 16.3956 25.5708 17.6091 25.8165C21.72 26.6066 25.4118 23.8005 25.9845 20.0506C26.102 19.1991 26.0851 18.3345 25.9344 17.4883C26.4453 17.4883 26.9363 17.4883 27.4372 17.4883C27.5925 17.4883 27.6292 17.5634 27.6208 17.6937C27.6208 17.7555 27.6208 17.8173 27.6208 17.8791C27.6208 20.682 27.6208 23.4837 27.6208 26.2842C27.6208 27.0426 27.2502 27.4167 26.4821 27.4184C21.4896 27.4184 16.4959 27.4184 11.5012 27.4184C11.3503 27.4414 11.1961 27.4144 11.062 27.3416Z" fill="#D85443"/>
<path d="M16.395 22.0967C16.7753 21.6795 17.1771 21.2826 17.5989 20.9074C19.0866 19.4543 20.5493 17.976 22.0204 16.5061C22.0604 16.4593 22.0978 16.4102 22.1323 16.3591C22.7965 17.1262 23.1437 18.1177 23.1031 19.1318C23.0624 20.1458 22.6371 21.1063 21.9135 21.8178C20.4191 23.3127 17.9429 23.438 16.395 22.0967Z" fill="#D85443"/>
<path d="M23.6016 15.0294C24.9095 13.6775 26.2403 12.3496 27.5939 11.0457C27.7071 11.2379 27.7611 11.4593 27.7492 11.682C27.7492 12.4588 27.7492 13.2355 27.7492 14.0122C27.7492 14.7889 27.3885 15.1446 26.6171 15.1547C25.814 15.163 25.0108 15.1547 24.2077 15.1547C23.9975 15.1779 23.7853 15.1341 23.6016 15.0294Z" fill="#D85443"/>
</svg>
