<svg width="38" height="38" viewBox="0 0 38 38" fill="none" xmlns="http://www.w3.org/2000/svg">
<path d="M17.4418 0H18.2589C18.4265 0.0601105 18.6099 0.0601105 18.7775 0H19.2221C19.3904 0.0600913 19.5744 0.0600913 19.7427 0H20.1132C20.1443 0.0262781 20.1837 0.0406948 20.2244 0.0406948C20.265 0.0406948 20.3044 0.0262781 20.3355 0H20.5598C21.1065 0.0821687 21.6612 0.0661367 22.2099 0.12626C23.5955 0.305144 24.9491 0.678224 26.2309 1.23453C28.4436 2.13395 30.4659 3.44508 32.1905 5.09847C33.801 6.61562 35.137 8.40022 36.1395 10.3733C36.9202 11.8884 37.478 13.5084 37.7956 15.1832C37.8867 15.8417 37.9429 16.5047 37.9638 17.1692C37.9638 17.2514 37.9377 17.3416 37.9998 17.4178V17.6402C37.9735 17.6713 37.9591 17.7107 37.9591 17.7514C37.9591 17.7922 37.9735 17.8316 37.9998 17.8627V18.2334C37.9423 18.4017 37.9423 18.5843 37.9998 18.7525V19.1954C37.9423 19.3636 37.9423 19.5462 37.9998 19.7145V20.5301C37.9217 21.0412 37.9217 21.5562 37.8837 22.0693C37.8003 22.9173 37.6209 23.753 37.349 24.5604C36.6314 26.9325 35.4512 29.1388 33.8766 31.0517C32.2894 33.0013 30.3363 34.621 28.1273 35.8195C26.3828 36.7556 24.5075 37.4238 22.5643 37.8016C22.0656 37.8833 21.5616 37.9281 21.0564 37.9359C19.2681 38.02 17.4759 38.0521 15.6976 37.8236C14.0956 37.6232 12.5757 37.0841 11.1038 36.4208C9.40685 35.6727 7.83353 34.6706 6.43794 33.4487C4.73672 31.971 3.30616 30.2077 2.2106 28.238C1.30153 26.5938 0.639586 24.8245 0.246114 22.9872C0.0899167 22.2617 0.0999294 21.5182 0.0458611 20.7827C0.0458611 20.7005 0.0718934 20.6103 0.0078125 20.5341V19.7185C0.0678755 19.5507 0.0678755 19.3672 0.0078125 19.1994V18.6823C0.0375536 18.612 0.0528798 18.5363 0.0528798 18.4599C0.0528798 18.3835 0.0375536 18.3078 0.0078125 18.2374V17.3476C0.0959238 16.8506 0.0859132 16.3456 0.131971 15.8465C0.258131 14.4436 0.696684 13.1189 1.21734 11.8243C2.10242 9.61979 3.39839 7.6039 5.03616 5.88408C6.50084 4.32623 8.21271 3.02134 10.1026 2.02215C11.7283 1.15404 13.4764 0.538416 15.2871 0.196404C15.922 0.109497 16.561 0.0566467 17.2015 0.0380786C17.2756 0.0300622 17.3657 0.0641316 17.4418 0Z" fill="#41A0F1"/>
<path d="M18.7779 0C18.701 0.0508525 18.6108 0.0779631 18.5186 0.0779631C18.4264 0.0779631 18.3362 0.0508525 18.2593 0H18.7779Z" fill="#52A8F2"/>
<path d="M19.7428 0C19.6656 0.0510258 19.5751 0.0782276 19.4825 0.0782276C19.3899 0.0782276 19.2994 0.0510258 19.2222 0H19.7428Z" fill="#52A8F2"/>
<path d="M37.9998 18.7544C37.949 18.6774 37.9219 18.5872 37.9219 18.4949C37.9219 18.4026 37.949 18.3124 37.9998 18.2354V18.7544Z" fill="#51A8F2"/>
<path d="M0 19.1975C0.0513139 19.2743 0.0787035 19.3646 0.0787035 19.457C0.0787035 19.5494 0.0513139 19.6398 0 19.7166V19.1975Z" fill="#4FA7F2"/>
<path d="M37.9998 19.7166C37.949 19.6396 37.9219 19.5493 37.9219 19.457C37.9219 19.3648 37.949 19.2745 37.9998 19.1975V19.7166Z" fill="#51A8F2"/>
<path d="M0 18.2354C0.0487204 18.2993 0.0751101 18.3774 0.0751101 18.4578C0.0751101 18.5382 0.0487204 18.6164 0 18.6803V18.2354Z" fill="#4FA7F2"/>
<path d="M20.3356 0C20.2615 0.10221 20.1874 0.0801645 20.1133 0H20.3356Z" fill="#A6D2F8"/>
<path d="M37.9999 17.8648C37.9198 17.7906 37.8998 17.7165 37.9999 17.6423V17.8648Z" fill="#A8D4F8"/>
<path d="M26.5775 13.6541C27.1725 13.5521 27.7565 13.3937 28.3217 13.1812C28.3577 13.3816 28.2276 13.4657 28.1515 13.5639C27.7823 14.0609 27.3432 14.5017 26.8478 14.8726C26.7479 14.9401 26.6683 15.0336 26.6178 15.1432C26.5673 15.2527 26.5478 15.374 26.5615 15.4939C26.6035 20.1936 23.6818 24.5124 19.3243 26.0315C16.1563 27.1418 13.0524 26.8893 10.0806 25.282C9.94046 25.2058 9.80229 25.1257 9.66211 25.0475C9.67212 24.8471 9.79428 24.9674 9.87438 24.9694C12.1192 25.1477 14.2579 24.2178 15.1691 23.342C13.4589 23.1556 12.2794 22.2919 11.6326 20.6545C12.1973 20.6765 12.712 20.7387 13.2226 20.5803C13.1305 20.432 12.9623 20.4481 12.8341 20.396C11.3062 19.7807 10.4591 18.6524 10.2729 17.021C10.2448 16.7685 10.3049 16.7044 10.5492 16.8206C10.893 16.9907 11.2649 17.0966 11.6466 17.1333C11.8469 17.1734 11.8469 17.1693 11.8669 17.0511C10.387 15.8767 9.8944 14.0309 10.6193 12.3775C10.8015 11.9587 10.7995 11.9607 11.0939 12.2893C12.924 14.3749 15.4695 15.6972 18.2269 15.9949C18.8037 16.0651 18.8057 16.0591 18.7736 15.4739C18.6855 13.7844 19.5146 12.3434 20.9764 11.642C21.6775 11.3055 22.4637 11.1882 23.2324 11.3054C24.0012 11.4227 24.7167 11.7691 25.2858 12.2994C25.3545 12.3679 25.4411 12.4157 25.5356 12.4373C25.6302 12.459 25.7289 12.4535 25.8205 12.4216C26.5597 12.2317 27.2712 11.9467 27.9372 11.5739C27.6834 12.3951 27.1534 13.1032 26.4373 13.578C26.4293 13.6782 26.4393 13.6842 26.5775 13.6541Z" fill="#FEFEFE"/>
<path d="M11.8668 17.0549C11.9148 17.071 11.9769 17.1191 11.9429 17.1531C11.8487 17.2493 11.7426 17.1872 11.6465 17.1371C11.7186 17.107 11.8127 17.1371 11.8668 17.0549Z" fill="#A2D1F8"/>
<path d="M9.87471 24.9693C9.80462 24.9994 9.7125 24.9693 9.66244 25.0475C9.61238 25.0334 9.5543 24.9893 9.58634 24.9533C9.67846 24.8551 9.78459 24.9252 9.87471 24.9693Z" fill="#83C1F6"/>
<path d="M26.5774 13.654C26.5033 13.7001 26.4212 13.7603 26.3531 13.6721C26.323 13.632 26.3911 13.5939 26.4412 13.5779L26.5774 13.654Z" fill="#ACD5F8"/>
</svg>
