<svg width="164" height="26" viewBox="0 0 164 26" fill="none" xmlns="http://www.w3.org/2000/svg">
<path fill-rule="evenodd" clip-rule="evenodd" d="M55.6445 22.5239C56.1577 23.2184 56.7607 23.7902 57.4538 24.2394C58.5616 24.9242 59.8104 25.2667 61.2003 25.2667C62.4894 25.2667 63.5972 24.9746 64.5238 24.3905C65.4503 23.8063 66.1351 23.0107 66.5783 22.0036V25.0552H71.7146V9.13216L65.8461 14.0226C66.3342 14.702 66.5783 15.5696 66.5783 16.6255C66.5783 17.8744 66.2258 18.8714 65.5208 19.6167C64.836 20.362 63.9497 20.7346 62.862 20.7346C61.7542 20.7346 60.8578 20.372 60.173 19.6469C60.0178 19.4776 59.8807 19.2929 59.7617 19.0929L55.6445 22.5239ZM138.491 3.45239C138.491 2.66683 138.773 2.02227 139.337 1.51871C139.901 0.995006 140.646 0.733154 141.573 0.733154C142.499 0.733154 143.244 0.995006 143.808 1.51871C144.372 2.02227 144.654 2.66683 144.654 3.45239C144.654 4.2178 144.372 4.86236 143.808 5.38606C143.244 5.88962 142.499 6.1414 141.573 6.1414C140.646 6.1414 139.901 5.88962 139.337 5.38606C138.773 4.86236 138.491 4.2178 138.491 3.45239ZM144.141 8.19593V25.0552H138.974V8.19593H144.141ZM90.5599 9.94833C89.4319 8.65921 87.9011 8.01465 85.9674 8.01465C84.6783 8.01465 83.5503 8.30672 82.5835 8.89085C81.6368 9.47498 80.9218 10.2706 80.4383 11.2777V8.19593H75.2718V25.0552H80.4383V16.1119C80.4383 14.8832 80.7405 13.9365 81.3447 13.2718C81.9692 12.6071 82.8051 12.2748 83.8525 12.2748C84.8395 12.2748 85.625 12.5971 86.2091 13.2416C86.8134 13.866 87.1156 14.7422 87.1156 15.8702V25.0552H92.2821V15.2659C92.2821 13.01 91.708 11.2374 90.5599 9.94833ZM105.449 3.4826C108.168 3.4826 110.414 4.19766 112.186 5.62777C113.979 7.05788 115.137 8.99156 115.661 11.4288H110.192C109.789 10.4418 109.165 9.66633 108.319 9.10234C107.493 8.53835 106.506 8.25636 105.358 8.25636C103.847 8.25636 102.629 8.81028 101.702 9.91811C100.776 11.0259 100.312 12.5064 100.312 14.3595C100.312 16.2126 100.776 17.6931 101.702 18.8009C102.629 19.8886 103.847 20.4325 105.358 20.4325C106.506 20.4325 107.493 20.1505 108.319 19.5865C109.165 19.0225 109.789 18.2571 110.192 17.2902H115.661C115.137 19.7073 113.979 21.641 112.186 23.0913C110.414 24.5214 108.168 25.2364 105.449 25.2364C103.374 25.2364 101.551 24.7832 99.98 23.8768C98.4089 22.9503 97.1902 21.6612 96.3241 20.0095C95.4781 18.3578 95.0551 16.4745 95.0551 14.3595C95.0551 12.2446 95.4781 10.3612 96.3241 8.70957C97.1902 7.05788 98.4089 5.77884 99.98 4.87243C101.551 3.94588 103.374 3.4826 105.449 3.4826ZM133.845 9.94833C132.717 8.65921 131.186 8.01465 129.252 8.01465C127.963 8.01465 126.835 8.30672 125.868 8.89085C124.921 9.47498 124.206 10.2706 123.723 11.2777V2.69705H118.556V25.0552H123.723V16.1119C123.723 14.8832 124.025 13.9365 124.629 13.2718C125.254 12.6071 126.09 12.2748 127.137 12.2748C128.124 12.2748 128.91 12.5971 129.494 13.2416C130.098 13.866 130.4 14.7422 130.4 15.8702V25.0552H135.567V15.2659C135.567 13.01 134.993 11.2374 133.845 9.94833ZM160.79 9.79726C159.32 8.58871 157.497 7.98444 155.322 7.98444C153.67 7.98444 152.2 8.33693 150.911 9.04191C149.621 9.72676 148.614 10.7238 147.889 12.0331C147.184 13.3222 146.832 14.853 146.832 16.6255C146.832 18.3779 147.194 19.9088 147.919 21.218C148.645 22.5273 149.642 23.5344 150.911 24.2394C152.2 24.9242 153.67 25.2667 155.322 25.2667C157.497 25.2667 159.32 24.6725 160.79 23.4841C162.261 22.2755 163.187 20.6238 163.57 18.529H158.101C157.94 19.2541 157.608 19.8181 157.104 20.221C156.601 20.6238 155.966 20.8252 155.201 20.8252C154.294 20.8252 153.549 20.4728 152.965 19.7678C152.381 19.0426 152.089 17.9952 152.089 16.6255C152.089 15.2559 152.381 14.2185 152.965 13.5135C153.549 12.7884 154.294 12.4258 155.201 12.4258C155.966 12.4258 156.601 12.6273 157.104 13.0301C157.608 13.433 157.94 13.997 158.101 14.7221H163.57C163.187 12.6273 162.261 10.9857 160.79 9.79726Z" fill="#7B7B7B"/>
<path fill-rule="evenodd" clip-rule="evenodd" d="M71.7143 9.13213V8.19591H66.5779V11.2475C66.1348 10.2404 65.45 9.44474 64.5234 8.86061C63.5969 8.27648 62.489 7.98441 61.1999 7.98441C59.8101 7.98441 58.5613 8.33691 57.4534 9.04189C56.3657 9.72673 55.4996 10.7238 54.855 12.033C54.2306 13.3222 53.9184 14.853 53.9184 16.6255C53.9184 18.3779 54.2306 19.9087 54.855 21.218C55.0889 21.6931 55.352 22.1284 55.6442 22.5239L59.7614 19.0929C59.3709 18.4361 59.1756 17.6137 59.1756 16.6255C59.1756 15.3364 59.5079 14.3293 60.1726 13.6042C60.8575 12.879 61.7538 12.5165 62.8617 12.5165C63.9494 12.5165 64.8356 12.8891 65.5205 13.6344C65.6388 13.7561 65.7472 13.8855 65.8457 14.0226L71.7143 9.13213ZM48.5484 9.04189C47.4607 8.33691 46.222 7.98441 44.8321 7.98441C43.543 7.98441 42.4352 8.27648 41.5086 8.86061C40.5821 9.44474 39.9073 10.2404 39.4843 11.2475V2.69702H34.3178V25.0551H39.4843V22.0036C39.9073 23.0107 40.5821 23.8063 41.5086 24.3904C42.4352 24.9746 43.543 25.2666 44.8321 25.2666C46.222 25.2666 47.4607 24.9242 48.5484 24.2394C49.6562 23.5344 50.5224 22.5273 51.1468 21.218C51.7914 19.9087 52.1136 18.3779 52.1136 16.6255C52.1136 14.853 51.7914 13.3222 51.1468 12.033C50.5224 10.7238 49.6562 9.72673 48.5484 9.04189ZM40.4814 13.6344C41.1864 12.8891 42.0827 12.5165 43.1704 12.5165C44.2782 12.5165 45.1645 12.879 45.8292 13.6042C46.514 14.3293 46.8564 15.3364 46.8564 16.6255C46.8564 17.9146 46.514 18.9218 45.8292 19.6469C45.1645 20.372 44.2782 20.7346 43.1704 20.7346C42.0827 20.7346 41.1864 20.3619 40.4814 19.6167C39.7965 18.8714 39.4541 17.8744 39.4541 16.6255C39.4541 15.3565 39.7965 14.3595 40.4814 13.6344ZM5.13632 3.69407V16.0212C5.13632 17.4312 5.44853 18.5088 6.07295 19.2541C6.71751 19.9994 7.64406 20.372 8.85261 20.372C10.0612 20.372 10.9776 19.9994 11.6021 19.2541C12.2466 18.5088 12.5689 17.4312 12.5689 16.0212V3.69407H17.7354V16.0212C17.7354 18.0355 17.3426 19.7375 16.5571 21.1274C15.7715 22.497 14.6939 23.5344 13.3242 24.2394C11.9747 24.9242 10.4439 25.2666 8.73175 25.2666C7.01964 25.2666 5.50896 24.9242 4.1997 24.2394C2.89044 23.5545 1.86318 22.5172 1.11791 21.1274C0.372635 19.7375 0 18.0355 0 16.0212V3.69407H5.13632ZM26.3543 11.3683C26.9989 10.3411 27.8247 9.52531 28.8319 8.92104C29.8591 8.31676 30.967 8.01463 32.1554 8.01463V13.5437H30.6749C29.3052 13.5437 28.2377 13.8358 27.4723 14.4199C26.727 15.0041 26.3543 15.991 26.3543 17.3809V25.0551H21.1878V8.19591H26.3543V11.3683Z" fill="black"/>
</svg>
