<svg width="164" height="25" viewBox="0 0 164 25" fill="none" xmlns="http://www.w3.org/2000/svg">
<path fill-rule="evenodd" clip-rule="evenodd" d="M56.0742 21.8606C56.5873 22.555 57.1904 23.1269 57.8834 23.5761C58.9913 24.2609 60.2401 24.6033 61.6299 24.6033C62.9191 24.6033 64.0269 24.3113 64.9534 23.7271C65.88 23.143 66.5648 22.3474 67.008 21.3403V24.3918H72.1443V8.46883L66.2758 13.3593C66.7639 14.0386 67.008 14.9063 67.008 15.9622C67.008 17.211 66.6555 18.2081 65.9505 18.9534C65.2656 19.6986 64.3794 20.0713 63.2917 20.0713C62.1839 20.0713 61.2875 19.7087 60.6027 18.9836C60.4475 18.8143 60.3104 18.6296 60.1914 18.4295L56.0742 21.8606ZM138.921 2.78906C138.921 2.0035 139.203 1.35894 139.767 0.85538C140.33 0.331676 141.076 0.0698242 142.002 0.0698242C142.929 0.0698242 143.674 0.331676 144.238 0.85538C144.802 1.35894 145.084 2.0035 145.084 2.78906C145.084 3.55447 144.802 4.19903 144.238 4.72273C143.674 5.22629 142.929 5.47807 142.002 5.47807C141.076 5.47807 140.33 5.22629 139.767 4.72273C139.203 4.19903 138.921 3.55447 138.921 2.78906ZM144.57 7.5326V24.3918H139.404V7.5326H144.57ZM90.9896 9.285C89.8616 7.99588 88.3308 7.35132 86.3971 7.35132C85.108 7.35132 83.98 7.64339 83.0132 8.22752C82.0665 8.81165 81.3514 9.60727 80.868 10.6144V7.5326H75.7015V24.3918H80.868V15.4486C80.868 14.2199 81.1702 13.2732 81.7744 12.6085C82.3988 11.9438 83.2348 11.6114 84.2822 11.6114C85.2691 11.6114 86.0547 11.9337 86.6388 12.5783C87.2431 13.2027 87.5452 14.0789 87.5452 15.2069V24.3918H92.7118V14.6026C92.7118 12.3466 92.1377 10.5741 90.9896 9.285ZM105.878 2.81927C108.598 2.81927 110.843 3.53433 112.616 4.96444C114.409 6.39455 115.567 8.32823 116.091 10.7655H110.622C110.219 9.77848 109.595 9.003 108.749 8.43901C107.923 7.87502 106.936 7.59303 105.788 7.59303C104.277 7.59303 103.058 8.14695 102.132 9.25478C101.205 10.3626 100.742 11.8431 100.742 13.6962C100.742 15.5493 101.205 17.0298 102.132 18.1376C103.058 19.2253 104.277 19.7691 105.788 19.7691C106.936 19.7691 107.923 19.4871 108.749 18.9232C109.595 18.3592 110.219 17.5938 110.622 16.6269H116.091C115.567 19.044 114.409 20.9777 112.616 22.4279C110.843 23.8581 108.598 24.5731 105.878 24.5731C103.804 24.5731 101.981 24.1199 100.41 23.2135C98.8385 22.2869 97.6199 20.9978 96.7538 19.3461C95.9078 17.6945 95.4848 15.8111 95.4848 13.6962C95.4848 11.5812 95.9078 9.69792 96.7538 8.04624C97.6199 6.39455 98.8385 5.11551 100.41 4.2091C101.981 3.28255 103.804 2.81927 105.878 2.81927ZM134.274 9.285C133.146 7.99588 131.615 7.35132 129.682 7.35132C128.393 7.35132 127.265 7.64339 126.298 8.22752C125.351 8.81165 124.636 9.60727 124.153 10.6144V2.03372H118.986V24.3918H124.153V15.4486C124.153 14.2199 124.455 13.2732 125.059 12.6085C125.683 11.9438 126.519 11.6114 127.567 11.6114C128.554 11.6114 129.339 11.9337 129.923 12.5783C130.528 13.2027 130.83 14.0789 130.83 15.2069V24.3918H135.996V14.6026C135.996 12.3466 135.422 10.5741 134.274 9.285ZM161.22 9.13393C159.75 7.92538 157.927 7.32111 155.751 7.32111C154.1 7.32111 152.629 7.6736 151.34 8.37858C150.051 9.06343 149.044 10.0605 148.319 11.3697C147.614 12.6589 147.261 14.1897 147.261 15.9622C147.261 17.7146 147.624 19.2454 148.349 20.5547C149.074 21.864 150.071 22.8711 151.34 23.5761C152.629 24.2609 154.1 24.6033 155.751 24.6033C157.927 24.6033 159.75 24.0091 161.22 22.8207C162.691 21.6122 163.617 19.9605 164 17.8657H158.531C158.37 18.5908 158.038 19.1548 157.534 19.5576C157.03 19.9605 156.396 20.1619 155.631 20.1619C154.724 20.1619 153.979 19.8094 153.395 19.1044C152.811 18.3793 152.519 17.3319 152.519 15.9622C152.519 14.5925 152.811 13.5552 153.395 12.8502C153.979 12.1251 154.724 11.7625 155.631 11.7625C156.396 11.7625 157.03 11.9639 157.534 12.3668C158.038 12.7696 158.37 13.3336 158.531 14.0588H164C163.617 11.9639 162.691 10.3223 161.22 9.13393Z" fill="#7B7B7B"/>
<path fill-rule="evenodd" clip-rule="evenodd" d="M72.1445 8.4688V7.53258H67.0081V10.5842C66.565 9.57704 65.8801 8.78141 64.9536 8.19728C64.027 7.61315 62.9192 7.32108 61.6301 7.32108C60.2403 7.32108 58.9914 7.67358 57.8836 8.37856C56.7959 9.0634 55.9298 10.0605 55.2852 11.3697C54.6608 12.6588 54.3486 14.1897 54.3486 15.9622C54.3486 17.7146 54.6608 19.2454 55.2852 20.5547C55.5191 21.0297 55.7822 21.465 56.0744 21.8605L60.1916 18.4295C59.801 17.7728 59.6058 16.9503 59.6058 15.9622C59.6058 14.6731 59.9381 13.666 60.6028 12.9408C61.2877 12.2157 62.184 11.8531 63.2918 11.8531C64.3795 11.8531 65.2658 12.2258 65.9506 12.971C66.069 13.0928 66.1774 13.2222 66.2759 13.3593L72.1445 8.4688ZM48.9786 8.37856C47.8909 7.67358 46.6521 7.32108 45.2623 7.32108C43.9732 7.32108 42.8654 7.61315 41.9388 8.19728C41.0123 8.78141 40.3375 9.57704 39.9145 10.5842V2.03369H34.748V24.3918H39.9145V21.3402C40.3375 22.3473 41.0123 23.143 41.9388 23.7271C42.8654 24.3112 43.9732 24.6033 45.2623 24.6033C46.6521 24.6033 47.8909 24.2609 48.9786 23.576C50.0864 22.8711 50.9526 21.8639 51.577 20.5547C52.2215 19.2454 52.5438 17.7146 52.5438 15.9622C52.5438 14.1897 52.2215 12.6588 51.577 11.3697C50.9526 10.0605 50.0864 9.0634 48.9786 8.37856ZM40.9115 12.971C41.6165 12.2258 42.5129 11.8531 43.6006 11.8531C44.7084 11.8531 45.5947 12.2157 46.2594 12.9408C46.9442 13.666 47.2866 14.6731 47.2866 15.9622C47.2866 17.2513 46.9442 18.2584 46.2594 18.9836C45.5947 19.7087 44.7084 20.0713 43.6006 20.0713C42.5129 20.0713 41.6165 19.6986 40.9115 18.9533C40.2267 18.2081 39.8843 17.211 39.8843 15.9622C39.8843 14.6932 40.2267 13.6962 40.9115 12.971ZM5.5665 3.03074V15.3579C5.5665 16.7679 5.87871 17.8455 6.50312 18.5908C7.14768 19.3361 8.07423 19.7087 9.28278 19.7087C10.4913 19.7087 11.4078 19.3361 12.0322 18.5908C12.6768 17.8455 12.9991 16.7679 12.9991 15.3579V3.03074H18.1656V15.3579C18.1656 17.3722 17.7728 19.0742 16.9873 20.464C16.2017 21.8337 15.1241 22.8711 13.7544 23.576C12.4049 24.2609 10.874 24.6033 9.16193 24.6033C7.44982 24.6033 5.93914 24.2609 4.62988 23.576C3.32062 22.8912 2.29335 21.8539 1.54808 20.464C0.802811 19.0742 0.430176 17.3722 0.430176 15.3579V3.03074H5.5665ZM26.7845 10.705C27.4291 9.67775 28.2549 8.86198 29.262 8.25771C30.2893 7.65343 31.3971 7.3513 32.5855 7.3513V12.8804H31.1051C29.7354 12.8804 28.6678 13.1725 27.9024 13.7566C27.1572 14.3407 26.7845 15.3277 26.7845 16.7175V24.3918H21.618V7.53258H26.7845V10.705Z" fill="black"/>
</svg>
