<svg width="17" height="12" viewBox="0 0 17 12" fill="none" xmlns="http://www.w3.org/2000/svg">
<path d="M8.50665 0.00797349C11.0035 0.00797349 13.5044 0.00797349 16.0012 0.00797349C16.2844 0.00797349 16.5478 0.0472952 16.7562 0.263561C16.9528 0.464098 17 0.715753 17 0.987068C17 3.50362 17 6.0241 17 8.54064C17 9.27988 17 10.0191 17 10.7583C17 11.4189 16.6736 11.7414 16.0091 11.7414C11.0507 11.7414 6.09627 11.7414 1.13788 11.7414C1.0789 11.7414 1.01992 11.7414 0.96094 11.7414C0.335735 11.7335 0.00543807 11.4032 0.00543807 10.778C0.00543807 8.03733 0.00543807 5.29666 0.00543807 2.55598C0.00543807 2.0448 0.0211666 1.53363 0.00150602 1.02639C-0.0260187 0.409049 0.323939 -0.00775481 1.03565 0.000109404C3.52467 0.0158378 6.01763 0.00797349 8.50665 0.00797349ZM16.2647 1.21906C16.1585 1.31736 16.076 1.38814 15.9973 1.46285C13.8347 3.49968 11.6759 5.53258 9.51327 7.56941C8.85661 8.18675 8.15276 8.18675 7.50003 7.56941C5.30198 5.50899 3.10787 3.4407 0.909822 1.37635C0.858705 1.32916 0.807588 1.28591 0.744674 1.23479C0.744674 4.30577 0.744674 7.35315 0.744674 10.432C0.803656 10.373 0.839044 10.3337 0.874433 10.2944C1.76309 9.3074 2.65174 8.32045 3.5404 7.33742C3.91002 6.92848 4.2757 6.51954 4.64532 6.11453C4.78295 5.96118 4.96776 5.92973 5.12111 6.0241C5.27839 6.11847 5.32165 6.26395 5.27839 6.4291C5.2548 6.51168 5.19189 6.59032 5.1329 6.65716C3.88643 8.04126 2.63602 9.42537 1.38954 10.8095C1.33842 10.8645 1.29124 10.9235 1.22832 10.9982C6.09234 10.9982 10.921 10.9982 15.7889 10.9982C15.7063 10.9078 15.6474 10.837 15.5884 10.7741C14.3458 9.39391 13.0993 8.01767 11.8568 6.6375C11.6759 6.43697 11.6681 6.21284 11.8332 6.06735C11.9984 5.92186 12.2146 5.95332 12.3994 6.15779C13.3943 7.25878 14.3851 8.3637 15.38 9.46469C15.667 9.78319 15.9541 10.0978 16.2686 10.4438C16.2647 7.34921 16.2647 4.30577 16.2647 1.21906ZM1.34235 0.735414C1.33056 0.74721 1.32269 0.762938 1.3109 0.774735C1.36201 0.814056 1.41313 0.849445 1.45639 0.888766C2.84835 2.19816 4.23638 3.50755 5.62835 4.81301C6.4423 5.57977 7.25624 6.34653 8.07412 7.10936C8.3415 7.36101 8.66 7.35315 8.93525 7.11329C8.99423 7.06217 9.05321 7.00712 9.10826 6.95207C11.2513 4.9349 13.3943 2.91773 15.5373 0.900561C15.5884 0.853376 15.6513 0.82192 15.7103 0.786531C15.6945 0.76687 15.6827 0.751142 15.667 0.731481C10.8895 0.735413 6.11593 0.735414 1.34235 0.735414Z" fill="black"/>
</svg>
