<svg width="46" height="44" viewBox="0 0 46 44" fill="none" xmlns="http://www.w3.org/2000/svg">
<path d="M46 11.4342C45.883 11.9916 45.7912 12.5553 45.6446 13.1045C44.8222 16.1924 42.9714 18.4238 40.1121 19.7868C39.7585 19.955 39.6127 20.1305 39.6145 20.5515C39.6316 27.4329 39.61 34.3144 39.6415 41.1958C39.6469 42.376 38.9577 42.8461 38.0076 42.8434C28.9067 42.8179 19.8059 42.8261 10.7041 42.8216C10.3326 42.8216 9.96186 42.7816 9.54798 42.7579C9.1521 43.7563 8.33784 44.05 7.32023 43.9918C6.82808 43.9636 6.33232 43.9873 5.83836 43.9873C4.31691 43.9873 3.87784 43.6563 3.46396 42.1596C3.03208 42.1596 2.58581 42.1623 2.14044 42.1596C0.728753 42.1478 0.015261 41.4258 0.0143612 40.0083C0.0143612 38.5261 0.0125618 37.044 0.0143612 35.5619C0.0143612 35.0027 0.275285 34.6753 0.699962 34.6844C1.10844 34.6935 1.35947 35.0109 1.36037 35.5419C1.36397 37.024 1.36037 38.5061 1.36217 39.9883C1.36307 40.6184 1.50253 40.7566 2.12515 40.7584C2.57142 40.7602 3.01769 40.7584 3.49185 40.7584V31.3201C2.93941 31.3201 2.40407 31.3028 1.87052 31.3265C1.53402 31.341 1.37387 31.5738 1.36397 31.9066C1.35587 32.1785 1.37926 32.454 1.34687 32.7222C1.30369 33.0814 1.08235 33.2914 0.717956 33.3069C0.330169 33.3232 0.0692452 33.115 0.0314563 32.7395C-0.0108314 32.3212 -0.0189291 31.8875 0.0422531 31.4729C0.169116 30.6154 0.937492 29.9716 1.80394 29.9516C2.35638 29.9389 2.90972 29.9489 3.48015 29.9489C3.52784 29.7434 3.56113 29.5543 3.61511 29.3706C3.82655 28.6432 4.45547 28.1467 5.20675 28.1349C5.98502 28.1222 6.76329 28.1294 7.54157 28.1303C8.82279 28.1303 9.35634 28.5595 9.64875 29.8471C10.0914 29.7234 10.4063 29.4315 10.6133 29.0496C11.0649 28.2158 11.4896 27.3675 11.9053 26.5146C11.9791 26.3627 11.9755 26.1636 11.9764 25.9863C11.9809 23.2939 11.9791 20.6024 11.9791 17.9101C11.9791 16.7871 12.4109 16.3525 13.5266 16.3525C17.8976 16.3525 22.2685 16.3525 26.6394 16.3525C26.8185 16.3525 26.9966 16.3525 27.2575 16.3525C27.1702 16.1924 27.1172 16.0815 27.0524 15.9778C23.0369 9.57378 26.9111 1.12477 34.3412 0.0836412C34.4266 0.0718205 34.5076 0.0272659 34.5904 -0.00183105C35.3093 -0.00183105 36.0273 -0.00183105 36.7462 -0.00183105C36.7983 0.0227195 36.8487 0.0618185 36.9036 0.0709113C37.3202 0.138198 37.5514 0.381885 37.5388 0.808336C37.5271 1.19478 37.2068 1.43756 36.7525 1.44029C36.6175 1.44029 36.4825 1.41846 36.3485 1.42574C35.545 1.46665 34.7253 1.42301 33.9417 1.57122C28.9904 2.5096 25.7802 7.74341 27.1037 12.6617C28.5801 18.1492 34.2197 20.8825 39.3662 18.6057C43.1451 16.9335 45.2919 12.8199 44.4965 8.77362C43.891 5.6948 42.1608 3.50799 39.3662 2.16316C38.8569 1.91857 38.6824 1.56213 38.865 1.16568C39.0441 0.775602 39.4364 0.67831 39.942 0.911994C42.7483 2.21044 44.6486 4.32543 45.5456 7.3215C45.7435 7.98164 45.8488 8.66996 45.9964 9.34465V11.4324L46 11.4342ZM27.1343 17.7618C27.1343 17.9928 27.1343 18.1574 27.1343 18.321C27.1343 20.1205 27.1307 21.9209 27.137 23.7203C27.1388 24.1695 27.0569 24.5623 26.6295 24.7987C26.1733 25.0506 25.7981 24.8633 25.4392 24.5787C24.803 24.0759 24.1534 23.5885 23.5353 23.0638C23.2735 22.842 23.1025 22.8665 22.8515 23.0702C22.1407 23.6476 21.4272 24.225 20.6795 24.7524C20.1424 25.1315 19.4811 24.8424 19.3128 24.2014C19.2643 24.0149 19.2499 23.814 19.249 23.6203C19.2445 21.8354 19.2463 20.0514 19.2463 18.2665C19.2463 18.1065 19.2463 17.9473 19.2463 17.7928H13.3998V24.7451C13.8514 24.8997 14.2968 24.9661 14.6441 25.1879C15.8542 25.9635 16.2582 27.4457 15.6689 28.7659C15.4845 29.1797 15.2784 29.5843 15.058 30.0426C15.3108 30.0426 15.4746 30.0426 15.6383 30.0426C18.1828 30.0426 20.7272 30.0398 23.2717 30.0426C24.2038 30.0435 24.9623 30.4163 25.3222 31.3028C25.5093 31.7629 25.4868 32.3094 25.5678 32.8786C26.7249 32.8104 27.7551 33.2123 28.1006 34.5362C28.4056 35.7065 27.8738 36.5494 26.7933 37.0431C27.092 37.8969 26.9561 38.6434 26.374 39.2972C25.8953 39.8346 25.2664 39.9773 24.588 39.9792C23.8889 39.9819 23.1907 39.9792 22.5132 39.9792V41.4231H33.0437C33.0437 40.5047 33.0437 39.6164 33.0437 38.728C33.0437 35.3255 33.0419 31.922 33.0455 28.5195C33.0455 27.9385 33.2876 27.6339 33.7176 27.6302C34.1423 27.6266 34.3996 27.9539 34.4077 28.5104C34.4095 28.6159 34.4077 28.7223 34.4077 28.8278C34.4077 32.8504 34.4077 36.8731 34.4077 40.8966V41.4295H38.2523V20.597C36.9747 20.6715 35.7169 20.7452 34.4077 20.8216C34.4077 20.9052 34.4077 21.068 34.4077 21.2316C34.4077 22.6083 34.4095 23.984 34.4068 25.3607C34.4059 25.9253 34.1603 26.2509 33.7401 26.2627C33.293 26.2754 33.0536 25.9626 33.0428 25.3543C33.041 25.2334 33.0428 25.1124 33.0428 24.9915C33.0428 23.6003 33.0356 22.2091 33.0491 20.8179C33.0518 20.5315 32.9736 20.3951 32.6883 20.3078C31.175 19.8468 29.8497 19.0512 28.6926 17.9637C28.5909 17.8682 28.4416 17.7818 28.3093 17.7728C27.9386 17.7473 27.5661 17.7637 27.1352 17.7637L27.1343 17.7618ZM9.64606 31.321C9.63436 31.421 9.62086 31.4801 9.62086 31.5392C9.61996 34.6853 9.62446 37.8305 9.61187 40.9766C9.61007 41.334 9.8188 41.3694 10.0617 41.3867C10.5539 41.4204 11.0478 41.4576 11.5409 41.4576C14.385 41.4622 17.229 41.4567 20.0731 41.4531C20.2225 41.4531 20.3736 41.4549 20.5203 41.4304C20.9486 41.3594 21.2131 41.043 21.1834 40.6557C21.1546 40.2756 20.8955 40.021 20.4564 40.0101C19.5891 39.9873 18.7208 39.9955 17.8526 39.9855C17.6744 39.9837 17.4936 39.971 17.319 39.9382C16.9762 39.8746 16.8035 39.6455 16.7936 39.3027C16.7837 38.958 16.9537 38.7225 17.2866 38.6398C17.4576 38.5971 17.6402 38.5871 17.8184 38.5861C19.5846 38.5816 21.3507 38.5834 23.1169 38.5825C23.7009 38.5825 24.2848 38.5916 24.8678 38.5743C25.2754 38.5616 25.5552 38.2752 25.575 37.8969C25.5948 37.5214 25.3402 37.2022 24.9479 37.1331C24.8021 37.1077 24.6501 37.1158 24.4998 37.1158C22.614 37.1149 20.7281 37.1158 18.8414 37.1158C18.5724 37.1158 18.2997 37.1368 18.0343 37.104C17.6582 37.0586 17.4387 36.824 17.4405 36.4339C17.4423 36.0456 17.6582 35.8183 18.0361 35.7646C18.1828 35.7437 18.3348 35.7537 18.4842 35.7537C20.909 35.7537 23.3338 35.7547 25.7586 35.751C25.9511 35.751 26.1463 35.7274 26.3344 35.6865C26.6367 35.6201 26.7816 35.4137 26.7915 35.1018C26.8077 34.5962 26.4802 34.2925 25.8827 34.2916C23.4282 34.288 20.9729 34.2916 18.5184 34.2871C18.3267 34.2871 18.082 34.3116 17.9551 34.208C17.7581 34.0461 17.5179 33.7806 17.5242 33.5669C17.5305 33.3532 17.7905 33.1123 17.9938 32.9541C18.1144 32.8604 18.3393 32.8895 18.5166 32.8886C19.7888 32.8841 21.061 32.8877 22.3333 32.8859C22.7219 32.8859 23.1115 32.8886 23.5002 32.8686C23.9114 32.8477 24.1372 32.5758 24.1552 32.1948C24.1732 31.8311 23.9663 31.5611 23.5938 31.4801C23.4057 31.4392 23.2096 31.4238 23.0162 31.4238C20.4861 31.421 17.9551 31.361 15.4278 31.4474C13.7174 31.5056 13.2297 30.1999 13.9792 29.0705C14.1924 28.7487 14.3373 28.374 14.4767 28.0103C14.7026 27.4211 14.5109 26.9101 14.1007 26.48C13.801 26.1654 13.6139 26.2018 13.4196 26.5837C13.0435 27.322 12.6656 28.0594 12.3066 28.8068C11.7343 29.9971 11.0299 31.0382 9.64246 31.3256L9.64606 31.321ZM4.88734 36.0274C4.88734 37.9924 4.88554 39.9564 4.88824 41.9214C4.88824 42.4979 4.97192 42.5797 5.53245 42.5815C6.23515 42.5842 6.93874 42.5842 7.64144 42.5815C8.16599 42.5788 8.25326 42.486 8.26046 41.9396C8.26316 41.7132 8.26046 41.4858 8.26046 41.2594C8.26046 37.6178 8.26046 33.9752 8.26046 30.3335C8.26046 29.5561 8.19838 29.4952 7.41201 29.4952C6.81368 29.4952 6.21535 29.4952 5.61703 29.4952C4.98271 29.4961 4.88824 29.5888 4.88734 30.2253C4.88554 32.1594 4.88734 34.0943 4.88734 36.0283V36.0274ZM20.6696 17.7891V23.0484C21.3274 22.5319 21.9203 22.0564 22.5231 21.5945C23.0171 21.2153 23.3662 21.2144 23.8646 21.5899C24.2839 21.9054 24.6879 22.24 25.1027 22.5628C25.306 22.721 25.5165 22.8684 25.7532 23.0429V17.79H20.6696V17.7891Z" fill="white"/>
<path d="M33.9687 13.3337C35.4578 11.646 36.901 10.0111 38.3441 8.37626C38.9218 7.72158 39.494 7.06235 40.0761 6.41222C40.4216 6.02578 40.831 5.95849 41.1387 6.21673C41.4743 6.49951 41.468 6.90869 41.0955 7.33241C39.0882 9.6147 37.08 11.897 35.0619 14.1702C34.3691 14.9503 33.5584 14.9413 32.8629 14.1611C32.0325 13.2282 31.2128 12.2853 30.3931 11.3432C30.027 10.9222 30 10.504 30.3032 10.2239C30.6217 9.93022 31.0365 10.0075 31.4242 10.4458C32.2601 11.3905 33.0924 12.3389 33.9678 13.3337H33.9687Z" fill="white"/>
</svg>
