<svg width="46" height="41" viewBox="0 0 46 41" fill="none" xmlns="http://www.w3.org/2000/svg">
<path d="M23.5143 40.9948C21.4541 40.2301 19.395 39.4623 17.3329 38.7027C13.9247 37.4467 10.5134 36.1959 7.10423 34.944C6.32525 34.6582 6.20074 34.4897 6.20074 33.6736C6.19971 31.1801 6.18736 28.6855 6.21206 26.192C6.21617 25.7552 6.06593 25.5702 5.67387 25.4294C4.0696 24.8518 2.47562 24.2433 0.87753 23.6471C-0.101084 23.2823 -0.25544 22.7714 0.38565 21.9594C2.33156 19.4906 4.27335 17.0197 6.24087 14.5684C6.44874 14.3093 6.78935 14.0986 7.11041 13.9989C11.0835 12.7635 15.0669 11.5599 19.0421 10.3296C19.9631 10.0449 19.782 10.2844 19.8046 9.31206C19.8077 9.17638 19.8046 9.04071 19.8046 8.81151C19.2952 8.81151 18.8064 8.79712 18.3197 8.81562C17.6982 8.83926 17.2001 8.64294 16.9377 8.05503C16.6784 7.47533 16.8533 6.97581 17.2505 6.50095C18.8744 4.56248 20.4848 2.61269 22.0983 0.667017C22.8341 -0.219997 23.6789 -0.226164 24.4147 0.659822C26.0313 2.60447 27.6387 4.55734 29.2604 6.49684C29.6556 6.96964 29.8346 7.47122 29.5763 8.05092C29.3139 8.6378 28.819 8.83926 28.1964 8.81459C27.722 8.79609 27.2466 8.81048 26.8 8.81048C26.7557 8.88962 26.7269 8.91737 26.7249 8.94718C26.6817 9.59471 26.9643 10.01 27.5728 10.1929C31.8166 11.4695 36.0634 12.7378 40.2989 14.0401C40.6549 14.15 41.0305 14.4286 41.2436 14.7349C42.8509 17.0475 44.4202 19.3868 46.0018 21.7179V22.2308C45.7456 22.4436 45.5182 22.717 45.227 22.8567C43.8748 23.5084 42.5103 24.1343 41.1376 24.7428C40.8361 24.8764 40.7548 25.0398 40.7558 25.3544C40.7681 28.2066 40.763 31.0598 40.763 33.912C40.763 34.6829 40.6529 34.8474 39.9202 35.1136C38.3664 35.6789 36.8105 36.238 35.2556 36.8013C34.3737 37.1209 33.5042 37.4786 32.6068 37.7458C32.3259 37.8291 31.903 37.7654 31.6756 37.5947C31.4924 37.458 31.3823 37.014 31.4656 36.7889C31.5583 36.5361 31.8731 36.2915 32.1458 36.1887C34.3006 35.3787 36.4657 34.5955 38.6349 33.8236C38.9869 33.6982 39.1371 33.5441 39.133 33.1412C39.1104 30.8183 39.1227 28.4954 39.1207 26.1725C39.1207 26.0296 39.1052 25.8868 39.0949 25.7007C38.8696 25.7984 38.6977 25.8683 38.53 25.9443C35.7547 27.2168 32.9794 28.4923 30.203 29.7627C29.6113 30.034 29.318 29.959 28.9095 29.4574C28.1213 28.4913 27.3351 27.5231 26.5469 26.5569C25.8409 25.6915 25.1319 24.8291 24.4342 23.9771V38.9443C24.7481 38.8415 24.957 38.7798 25.1618 38.7058C26.2844 38.2998 27.404 37.8856 28.5288 37.4868C29.0927 37.2874 29.5239 37.4776 29.6936 37.9689C29.8511 38.4242 29.6278 38.8199 29.0886 39.0388C28.9939 39.0769 28.8961 39.1087 28.8004 39.1437C27.1416 39.7593 25.4828 40.375 23.8251 40.9917H23.5174L23.5143 40.9948ZM9.57186 14.9661C9.72725 15.0422 9.77149 15.0679 9.8178 15.0864C14.2787 16.8851 18.7375 18.6858 23.2035 20.4722C23.3836 20.5441 23.6409 20.5328 23.8261 20.464C24.8181 20.097 25.7987 19.6993 26.7835 19.3138C27.864 18.8914 28.9435 18.4679 30.026 18.0496C30.6651 17.8029 31.1261 17.9499 31.3144 18.4505C31.4986 18.9407 31.2763 19.3251 30.6568 19.58C30.4994 19.6448 30.3409 19.7085 30.1824 19.7712C28.4197 20.4599 26.657 21.1475 24.8479 21.8536C26.553 23.9452 28.2334 26.007 29.918 28.073C34.597 25.9258 39.2421 23.7951 43.9201 21.648C43.8048 21.461 43.7307 21.3294 43.6464 21.2061C42.5453 19.5811 41.4339 17.9612 40.3462 16.327C40.1404 16.0186 39.9686 15.9426 39.6074 16.0885C37.8673 16.7895 36.1148 17.4617 34.3655 18.137C33.745 18.3765 33.2891 18.2397 33.0967 17.7772C32.8909 17.2828 33.1337 16.844 33.7573 16.6004C34.917 16.1481 36.0798 15.702 37.2406 15.2508C37.4011 15.1881 37.5545 15.111 37.7983 15.0011C34.0424 13.8735 30.3965 12.7789 26.7064 11.6709C26.7064 13.039 26.7094 14.3196 26.7053 15.6003C26.7033 16.2499 26.3966 16.6035 25.8677 16.5911C25.3614 16.5798 25.062 16.2283 25.062 15.6137C25.0589 13.1366 25.0589 10.6595 25.062 8.18248C25.062 7.46197 25.3635 7.17315 26.0992 7.16801C26.5818 7.16493 27.0655 7.16801 27.6531 7.16801C26.1424 5.34671 24.7162 3.62818 23.2601 1.87368C21.7958 3.63743 20.3644 5.36212 18.8651 7.16801C19.4311 7.16801 19.8725 7.16801 20.314 7.16801C21.1845 7.17007 21.4541 7.43319 21.4541 8.28937C21.4552 10.6811 21.4541 13.0729 21.4541 15.4646C21.4541 15.6178 21.4727 15.7791 21.4325 15.923C21.3142 16.3475 21.0343 16.6117 20.5774 16.5798C20.1318 16.549 19.8334 16.292 19.819 15.8316C19.7933 15.0299 19.8056 14.2261 19.8036 13.4234C19.8025 12.9177 19.8036 12.412 19.8036 11.8354C16.3779 12.8838 13.0263 13.9095 9.57186 14.9672V14.9661ZM22.1745 21.8546C17.1991 19.8524 12.2659 17.8677 7.30695 15.8727C5.60184 18.0311 3.91319 20.169 2.18338 22.3582C3.65902 22.9143 5.05851 23.4436 6.45903 23.9688C7.68872 24.4293 8.92151 24.8826 10.1492 25.3482C10.3375 25.4191 10.533 25.5137 10.677 25.6483C10.9765 25.9279 11.0074 26.2897 10.8057 26.6299C10.5783 27.0133 10.2222 27.1387 9.79002 26.9824C9.17465 26.7594 8.56135 26.5333 7.88424 26.2866C7.88424 26.5312 7.88424 26.6833 7.88424 26.8355C7.88424 28.886 7.8935 30.9365 7.87498 32.987C7.87189 33.355 7.98817 33.5112 8.33393 33.6366C12.1496 35.0221 15.9591 36.4261 19.7706 37.825C20.7606 38.1878 21.7515 38.5486 22.7209 38.9032V24.0922C22.4945 24.2073 22.3772 24.344 22.2681 24.4879C21.0199 26.1365 19.7758 27.7872 18.5245 29.4328C18.1355 29.9446 17.868 30.0248 17.2876 29.8079C15.9447 29.3064 14.6039 28.8007 13.2651 28.2898C12.6898 28.0709 12.4676 27.668 12.6363 27.187C12.801 26.7203 13.262 26.5405 13.8197 26.7409C14.4618 26.9722 15.0978 27.2199 15.7379 27.4552C16.2966 27.6608 16.9305 28.1182 17.3967 27.9876C17.8618 27.8571 18.1612 27.1346 18.5327 26.671C18.5646 26.6309 18.5965 26.5898 18.6274 26.5497C19.8005 24.9967 20.9736 23.4436 22.1734 21.8556L22.1745 21.8546Z" fill="white"/>
</svg>
