<svg width="40" height="43" viewBox="0 0 40 43" fill="none" xmlns="http://www.w3.org/2000/svg">
<path d="M-9.73209e-05 10.5894C0.355289 10.1102 0.906463 10.1379 1.41031 10.0574C2.27697 9.9196 3.15013 9.81785 4.01401 9.66613C4.1866 9.63561 4.3963 9.48389 4.47703 9.33033C4.96882 8.3923 5.43834 7.44225 5.89394 6.48664C6.05446 6.14992 6.27159 5.91587 6.65203 5.9094C7.0566 5.90292 7.28115 6.14992 7.44817 6.50144C7.89078 7.43022 8.3603 8.34605 8.80662 9.27298C8.9291 9.52737 9.06736 9.65873 9.38099 9.69481C10.436 9.81507 11.4901 9.96216 12.5321 10.161C12.8077 10.2138 13.126 10.4367 13.2735 10.6745C13.4721 10.9945 13.2615 11.3118 12.997 11.5662C12.2306 12.3026 11.4799 13.0556 10.7051 13.7837C10.4852 13.9909 10.4453 14.1842 10.4991 14.4728C10.6986 15.5283 10.8935 16.5866 11.028 17.6514C11.0605 17.9067 10.9259 18.2823 10.7339 18.4359C10.5613 18.5737 10.1567 18.5811 9.93588 18.4756C8.9356 17.9992 7.9613 17.4701 6.98608 16.9428C6.75781 16.8188 6.58151 16.8179 6.35232 16.9419C5.404 17.4534 4.4427 17.9391 3.49253 18.446C3.18539 18.6098 2.88661 18.6903 2.58411 18.4692C2.27512 18.2434 2.2213 17.9437 2.29182 17.5709C2.49225 16.5154 2.67412 15.4562 2.83093 14.3942C2.85691 14.2184 2.77804 13.965 2.65463 13.8382C1.93365 13.1 1.18205 12.3923 0.447152 11.6671C0.283841 11.5061 0.146511 11.3192 -0.00195312 11.1453C-0.00195312 10.9603 -0.00195312 10.7762 -0.00195312 10.5912L-9.73209e-05 10.5894ZM4.00937 16.4867C4.74519 16.101 5.40586 15.7781 6.0424 15.4136C6.47759 15.1648 6.86359 15.1639 7.29878 15.4127C7.93439 15.7763 8.5932 16.0982 9.32161 16.4793C9.19634 15.7124 9.13139 15.0242 8.96344 14.3628C8.81033 13.7587 8.97364 13.3424 9.42368 12.9391C9.94145 12.4747 10.4026 11.9455 10.9083 11.4247C10.1948 11.3239 9.5109 11.2101 8.82332 11.1361C8.27308 11.0769 7.88336 10.8734 7.65602 10.3257C7.38322 9.66798 7.02969 9.04448 6.66781 8.32015C6.32541 9.00933 5.98858 9.59398 5.7399 10.2129C5.48937 10.8391 5.06439 11.0982 4.41022 11.149C3.75048 11.1999 3.09631 11.334 2.44864 11.4303C2.99053 11.9918 3.48417 12.5403 4.01957 13.0454C4.38331 13.3896 4.50208 13.7466 4.39445 14.2388C4.23856 14.9511 4.14484 15.6773 4.00937 16.4877V16.4867Z" fill="white"/>
<path d="M19.7233 42.807C19.6129 42.7053 19.4858 42.6164 19.3967 42.499C19.1685 42.1992 19.2306 41.7515 19.5164 41.5064C19.8059 41.2584 20.2448 41.2723 20.5186 41.5369C20.7932 41.8033 20.8229 42.2372 20.5752 42.5323C20.4898 42.6349 20.3784 42.7154 20.2782 42.8061H19.7224L19.7233 42.807Z" fill="white"/>
<path d="M9.0127 37.3046C9.90812 32.9605 12.4218 30.0493 16.6373 28.5118C14.6265 26.9456 13.7227 24.9253 14.1941 22.4118C14.4678 20.953 15.2547 19.7735 16.4526 18.879C18.9134 17.0408 22.2798 17.3498 24.3732 19.6218C25.5906 20.9437 26.0954 22.5238 25.8931 24.2944C25.6927 26.0437 24.8074 27.4276 23.346 28.5016C27.5717 30.0317 30.0918 32.954 30.9919 37.3157C31.9829 36.5285 32.8087 35.6256 33.5557 34.6478C35.4588 32.1575 36.5612 29.3425 36.9305 26.2417C37.1096 24.7375 37.0632 23.2324 36.8275 21.7356C36.7328 21.1361 36.9361 20.7374 37.3954 20.6588C37.8723 20.5774 38.2175 20.867 38.3047 21.4701C38.9839 26.1602 38.1089 30.5349 35.4867 34.4998C32.6009 38.8643 28.5191 41.4906 23.3831 42.4943C23.1363 42.5424 22.8477 42.5443 22.6176 42.461C22.2984 42.3463 22.1759 42.0466 22.226 41.7043C22.2873 41.2871 22.5749 41.1224 22.9572 41.0549C25.1823 40.6636 27.2488 39.8653 29.1677 38.671C29.498 38.4656 29.5824 38.2436 29.5407 37.8893C29.0619 33.8643 25.9738 30.5303 21.956 29.7098C16.8841 28.6746 11.9588 31.7542 10.6894 36.7598C10.5911 37.1455 10.5447 37.5442 10.4639 37.9355C10.3962 38.2621 10.5094 38.4619 10.8008 38.6451C12.7271 39.8542 14.8084 40.6571 17.0474 41.0531C17.4102 41.1169 17.696 41.2705 17.7721 41.6581C17.837 41.9902 17.747 42.3056 17.426 42.4351C17.1996 42.5267 16.9017 42.5609 16.6688 42.4971C15.3939 42.1511 14.0744 41.8949 12.8718 41.3759C6.81821 38.7644 3.13165 34.1862 1.79176 27.7541C1.36215 25.6903 1.37885 23.5987 1.69155 21.5127C1.70269 21.4368 1.72403 21.3628 1.74259 21.2879C1.86043 20.8216 2.18705 20.5848 2.61017 20.657C3.02866 20.7282 3.28476 21.126 3.20867 21.5987C2.98597 22.9706 2.92009 24.3434 3.03794 25.7338C3.32744 29.1519 4.5133 32.2167 6.65861 34.893C7.30072 35.6932 8.07366 36.3897 8.78907 37.1307C8.84939 37.1927 8.92826 37.2371 9.01455 37.3009L9.0127 37.3046ZM24.4446 23.6274C24.4613 21.2111 22.4422 19.1833 20.012 19.1759C17.6041 19.1676 15.5897 21.15 15.5572 23.5608C15.5247 25.9715 17.5345 28.0122 19.9675 28.0372C22.3884 28.0622 24.4289 26.0529 24.4446 23.6283V23.6274Z" fill="white"/>
<path d="M24.4567 15.4886C24.3751 15.4543 24.1867 15.3905 24.0132 15.3008C22.8385 14.6893 21.6572 14.0908 20.5011 13.4469C20.1243 13.2369 19.8441 13.2684 19.485 13.4636C18.3233 14.0972 17.1411 14.693 15.9729 15.3146C15.6379 15.4932 15.3132 15.5922 14.98 15.3489C14.6618 15.1167 14.6581 14.7911 14.7212 14.4349C14.9615 13.075 15.1768 11.7096 15.431 10.3525C15.4904 10.0362 15.4125 9.84189 15.1898 9.63005C14.2071 8.69572 13.2439 7.74197 12.265 6.80301C11.9839 6.53289 11.7509 6.25074 11.8911 5.83816C12.0238 5.44962 12.3504 5.36082 12.7299 5.30901C14.118 5.1203 15.5043 4.91215 16.8869 4.68459C17.0595 4.65591 17.2729 4.50327 17.3527 4.34971C17.9846 3.1212 18.5952 1.88068 19.1974 0.637373C19.369 0.280293 19.5797 -0.00463089 20.0121 -5.50791e-06C20.4454 0.00461988 20.6458 0.30342 20.8166 0.655874C21.4123 1.88623 22.0265 3.10733 22.625 4.33583C22.7345 4.56062 22.8616 4.66978 23.1354 4.70586C24.5393 4.89088 25.9376 5.1203 27.3406 5.31456C27.7109 5.36544 28.0022 5.49218 28.1191 5.85851C28.2361 6.22761 28.0533 6.50144 27.7907 6.75306C26.7904 7.71329 25.8059 8.69017 24.7982 9.643C24.5662 9.86317 24.5217 10.0639 24.5783 10.372C24.8372 11.7753 25.0719 13.1842 25.3002 14.5931C25.3846 15.1167 25.0608 15.4941 24.4558 15.4876L24.4567 15.4886ZM23.5761 13.384C23.385 12.2434 23.2439 11.2101 23.0296 10.1916C22.9145 9.64577 23.0398 9.26834 23.4342 8.87796C24.1867 8.1342 24.8863 7.33586 25.5813 6.58932C25.6017 6.5958 25.5043 6.55139 25.4032 6.53751C24.4586 6.40245 23.5149 6.26184 22.5675 6.14621C22.0553 6.0833 21.6925 5.88996 21.4679 5.38209C21.0764 4.49864 20.6198 3.64387 20.1874 2.77893C20.1383 2.67994 20.0668 2.59114 19.9768 2.45422C19.4702 3.47458 18.9775 4.42926 18.5237 5.40152C18.3205 5.83631 18.0301 6.0722 17.5503 6.12678C16.8164 6.21096 16.0861 6.3266 15.3558 6.43298C15.0042 6.48479 14.6544 6.54677 14.2813 6.60782C14.3305 6.69848 14.3389 6.73086 14.3602 6.75028C14.9012 7.27573 15.4459 7.79839 15.985 8.32569C17.3044 9.61802 17.1189 9.20914 16.8516 10.8511C16.8321 10.9723 16.808 11.0926 16.7885 11.2138C16.6744 11.9113 16.5603 12.6088 16.4341 13.3849C17.4724 12.8438 18.4254 12.3766 19.3458 11.853C19.82 11.5838 20.2125 11.5995 20.6783 11.8604C21.6006 12.3775 22.5499 12.8475 23.5761 13.3831V13.384Z" fill="white"/>
<path d="M39.9999 11.0713C39.9303 11.1712 39.8153 11.4044 39.6408 11.5783C38.9236 12.298 38.197 13.0103 37.4547 13.7041C37.193 13.9492 37.1049 14.1713 37.1819 14.5441C37.3925 15.5654 37.566 16.5959 37.6941 17.6311C37.7266 17.8901 37.5967 18.2277 37.4269 18.4368C37.2125 18.7014 36.8738 18.6385 36.5769 18.4821C35.597 17.9659 34.62 17.4423 33.628 16.9493C33.4712 16.8716 33.2095 16.8716 33.0527 16.9493C32.0877 17.4257 31.1357 17.9308 30.1855 18.4368C29.8654 18.607 29.5545 18.6995 29.2372 18.4562C28.931 18.2222 28.8967 17.9178 28.9662 17.5496C29.1639 16.5099 29.343 15.4664 29.4942 14.4183C29.5211 14.2295 29.4413 13.9594 29.3105 13.8244C28.5691 13.063 27.8017 12.3276 27.0344 11.5931C26.7588 11.3294 26.5723 11.0436 26.7133 10.6569C26.846 10.2924 27.1615 10.1851 27.5178 10.1361C28.6007 9.98714 29.6835 9.8382 30.7617 9.66151C30.9046 9.63839 31.0707 9.48205 31.1422 9.34421C31.6349 8.38953 32.1155 7.42838 32.5786 6.45889C32.7419 6.11662 32.9757 5.90477 33.3534 5.91032C33.7097 5.91587 33.9352 6.12309 34.0901 6.44687C34.555 7.41542 35.0292 8.38028 35.5284 9.33218C35.6082 9.48482 35.8207 9.63561 35.9923 9.66429C37.0696 9.84375 38.1534 9.98714 39.2344 10.1472C39.729 10.2203 40.0018 10.5015 40.0009 11.0713H39.9999ZM30.6736 16.4849C31.2572 16.1833 31.7889 15.9715 32.2492 15.6551C32.9878 15.1491 33.6605 15.1232 34.4075 15.6431C34.8668 15.9631 35.4031 16.1741 35.9914 16.4784C35.8568 15.6727 35.7631 14.9493 35.6082 14.2379C35.5015 13.7467 35.6184 13.3905 35.9849 13.0464C36.5286 12.5348 37.0269 11.9761 37.5595 11.4229C36.871 11.3248 36.189 11.2055 35.5024 11.1379C34.928 11.0806 34.5281 10.8604 34.3091 10.2943C34.1217 9.80952 33.8554 9.35531 33.6225 8.88815C33.5399 8.72256 33.4527 8.55882 33.3311 8.32293C32.9739 9.04356 32.6287 9.64579 32.3716 10.2832C32.136 10.8669 31.724 11.0815 31.1366 11.1407C30.4583 11.2092 29.7856 11.3285 29.111 11.4266C29.6733 12.0075 30.192 12.5727 30.7441 13.1028C31.0707 13.4155 31.1598 13.7504 31.0744 14.1814C30.9297 14.9141 30.8165 15.6532 30.6736 16.4849Z" fill="white"/>
</svg>
