<svg width="244" height="46" viewBox="0 0 244 46" fill="none" xmlns="http://www.w3.org/2000/svg">
<g clip-path="url(#clip0_40_5346)">
<path d="M23.3833 0C10.4513 0 0 10.32 0 23C0 35.68 10.492 46 23.3833 46C36.2747 46 46.8073 35.68 46.8073 23C46.8073 10.32 36.3153 0 23.3833 0Z" fill="black"/>
<path d="M39.7312 33.24C38.8365 33.68 37.1285 34.4 35.6645 34.4C34.9325 34.4 34.2412 34.2 33.5498 33.72C29.7678 31.24 31.0692 28.28 33.6312 23.68C34.7292 21.72 35.8678 19.72 36.3558 17.64C36.8845 15.4 37.3725 12.16 35.4205 9.68004C34.4852 8.52004 33.1025 7.64004 31.2318 7.04004C29.3205 6.40004 26.8398 6.08004 23.8712 6.04004H22.8952C19.9265 6.08004 17.4458 6.40004 15.5345 7.04004C13.6638 7.64004 12.2812 8.52004 11.3458 9.68004C9.39382 12.16 9.88182 15.4 10.4105 17.64C10.8985 19.72 12.0372 21.72 13.1352 23.68C15.7378 28.28 16.9985 31.24 13.2165 33.72C12.5252 34.16 11.8338 34.4 11.1018 34.4C9.63782 34.4 7.92982 33.68 7.03516 33.24L7.23849 33.64C9.10916 36.4 11.5085 37.88 14.1925 37.88C15.3718 37.88 16.5918 37.6 17.8525 37.04C19.1945 36.44 20.3738 35.4 21.1872 34.04C22.0005 32.68 22.2852 31.2 22.0818 29.92C21.7972 28.76 21.1872 27.2 20.4552 25.36C18.5845 20.6 16.0225 14.12 18.2592 10.96C19.1945 9.64004 20.8618 8.96004 23.3832 8.96004C25.9045 8.96004 27.5718 9.64004 28.5072 10.96C30.7032 14.12 28.1412 20.6 26.3112 25.36C25.5792 27.2 24.9692 28.76 24.6845 29.92C24.4405 31.24 24.7658 32.72 25.5792 34.08C26.3925 35.44 27.5718 36.52 28.9138 37.08C30.1745 37.64 31.4352 37.92 32.5738 37.92C35.2578 37.92 37.6572 36.44 39.5278 33.68L39.7312 33.24Z" fill="white"/>
<path d="M62.3013 6.23999H67.2219V37.6H62.3013V6.23999ZM91.3779 37.6H86.4573V35.56C85.2779 36.92 83.1633 38.08 80.6013 38.08C75.6399 38.08 72.9559 34.84 72.9559 30.12V16.16H77.8766V29.28C77.8766 31.92 79.1373 33.68 81.9433 33.68C84.0579 33.68 85.9286 32.36 86.4573 30.24V16.16H91.3779V37.6ZM97.4779 6.23999H102.399V37.6H97.4779V6.23999ZM126.595 37.6H121.675V35.56C120.495 36.92 118.381 38.08 115.819 38.08C110.857 38.08 108.173 34.84 108.173 30.12V16.16H113.094V29.28C113.094 31.92 114.355 33.68 117.161 33.68C119.275 33.68 121.146 32.36 121.675 30.24V16.16H126.595V37.6ZM132.655 6.23999H137.575V37.6H132.655V6.23999ZM161.609 30.96C160.877 35.2 157.665 38.12 152.419 38.12C146.319 38.12 142.13 33.6 142.13 26.96C142.13 20.32 146.4 15.72 152.337 15.72C158.275 15.72 161.813 20 161.813 26.28V28H146.929C147.091 31.76 149.287 34.04 152.419 34.04C154.777 34.04 156.526 33.04 157.095 30.96H161.609ZM147.091 24.48H156.973C156.933 21.88 155.387 19.76 152.419 19.76C149.694 19.76 147.701 21.4 147.091 24.48ZM188.897 15.72C193.37 15.72 195.973 18.8 195.973 23.68V37.64H191.052V24.48C191.052 21.84 189.873 20.08 187.473 20.08C185.725 20.08 184.057 21.16 183.61 23.28V37.68H178.689V24.52C178.689 21.88 177.51 20.12 175.111 20.12C173.362 20.12 171.695 21.2 171.247 23.32V37.72H166.327V16.28H171.247V18.08C172.264 16.72 174.257 15.8 176.697 15.8C179.137 15.8 181.292 17 182.431 18.64C183.935 16.8 185.969 15.72 188.897 15.72ZM210.572 38.08C204.431 38.08 200.202 33.44 200.202 26.88C200.202 20.32 204.431 15.68 210.572 15.68C216.713 15.68 220.942 20.32 220.942 26.88C220.942 33.44 216.713 38.08 210.572 38.08ZM210.572 19.84C207.034 19.84 205.123 22.84 205.123 26.88C205.123 30.92 207.034 33.92 210.572 33.92C214.11 33.92 216.021 30.92 216.021 26.88C216.021 22.84 214.11 19.84 210.572 19.84ZM225.497 16.2H230.417V18.24C231.597 16.88 233.752 15.72 236.314 15.72C241.275 15.72 244 18.96 244 23.68V37.64H239.079V24.48C239.079 21.84 237.737 20.08 234.972 20.08C232.857 20.08 230.946 21.4 230.417 23.52V37.6H225.497V16.2Z" fill="black"/>
</g>
<defs>
<clipPath id="clip0_40_5346">
<rect width="244" height="46" fill="white"/>
</clipPath>
</defs>
</svg>
