<svg width="69" height="45" viewBox="0 0 69 45" fill="none" xmlns="http://www.w3.org/2000/svg">
<g clip-path="url(#clip0_40_5320)">
<path d="M48.4906 1.36506C50.9968 0.14817 52.2388 0.307861 52.2667 1.54131C52.3002 3.14363 52.0606 5.2744 51.8879 6.81616C50.9577 15.1959 49.4038 22.0433 49.2869 30.6472C53.3805 20.1701 56.8113 12.8883 61.2335 3.91995C62.6371 1.06224 63.5338 1.59637 64.6866 1.08977C69.1757 -0.886893 69.3429 0.324421 68.7579 2.74165C66.5803 11.6946 61.0051 39.8836 60.1531 44.2242C59.9079 45.4801 58.5268 44.9477 58.1703 44.4566C56.5719 42.2706 54.7674 42.2365 54.9678 40.7829C55.9704 33.5461 59.5793 15.3892 60.5207 11.1109C55.7252 20.8303 50.7517 32.9807 48.1952 39.87C47.6549 41.3329 46.6691 41.2256 46.0566 40.1552C45.1932 38.6515 43.5168 37.8839 43.2383 36.107C42.3639 30.4578 44.2409 19.69 44.5025 12.8778C41.8906 20.3194 37.5073 34.7668 35.5858 41.2943C34.795 43.9951 32.1549 43.5545 32.8567 40.9221C35.775 29.9677 42.0632 10.5933 44.7811 3.62809C45.4218 1.98718 47.0981 2.04224 48.4906 1.36506Z" fill="black"/>
<path d="M32.5725 0.0215278C31.726 -0.182154 29.2698 1.12831 27.7604 1.38705C27.2814 1.46964 26.8247 1.97066 26.6632 2.32864C24.2459 7.81824 22.0794 13.0512 20.2025 17.8184C17.802 18.2237 14.9951 18.7572 11.8538 19.4548C14.1039 13.7488 16.3763 8.12098 18.5929 2.70848C19.6845 0.0434747 16.8107 -0.209777 15.6968 2.48824C14.2486 5.9957 11.5363 12.5672 8.53428 20.2268C6.32873 20.7614 3.98959 21.3725 1.54452 22.0708C-0.232226 22.5779 -0.304539 23.0459 0.464073 24.0992C0.887326 24.6858 1.76176 24.6266 2.16271 25.0446C3.19869 26.1277 3.82806 27.4232 5.6826 27.6193C4.02844 31.9939 2.3743 36.5051 0.876122 40.8488C-0.0651205 43.5754 2.61379 44.1332 3.64422 41.2479C5.30394 36.5969 7.05278 31.8897 8.85172 27.1964C10.3499 26.8521 13.9756 26.0801 17.3229 25.3622C14.6663 32.5608 12.9173 38.0279 12.2547 40.689C12.1322 41.201 12.3382 41.4852 12.4496 41.6939C13.3462 42.9839 14.1984 43.0368 15.3513 44.6319C15.6633 45.0669 16.7104 45.3014 17.0667 44.2305C19.5285 36.8792 22.0626 29.9818 24.4241 23.7983C25.4042 23.5864 27.1698 23.1652 28.2503 21.5711C30.1717 18.742 30.7231 19.3158 31.1855 18.4557C31.7647 17.376 31.3803 16.3623 29.3308 16.6128C29.3308 16.6128 28.5567 16.6673 27.1253 16.8286C29.3976 11.0444 31.3859 6.13844 32.8173 2.39987C33.3076 1.13379 33.3689 0.20875 32.5725 0.0215278Z" fill="black"/>
<path d="M29.2201 37.5368C29.7492 38.8588 31.4033 38.4585 30.7739 36.8629C30.1334 35.2374 28.5405 30.3441 28.1227 28.7677C27.5547 26.6435 30.0164 27.2244 28.7688 28.6131C27.6996 29.8073 26.9866 30.2858 25.0094 32.5565C23.0991 34.7485 23.6171 37.5931 25.6611 38.2213C27.9668 38.9305 29.9998 36.4186 31.2584 34.5758C32.4782 32.7912 31.2974 31.7445 30.0666 32.7995C29.2757 33.4778 28.3623 34.5195 27.4377 35.0812C26.6858 35.5332 26.0954 35.0476 27.098 33.6832C28.262 32.1036 29.5652 30.7799 30.5343 29.2871C32.5116 26.245 28.6017 24.4914 26.9197 26.4674C26.0174 27.5208 26.2458 28.5549 26.4909 29.4424C26.8864 30.864 28.3567 35.4022 29.2201 37.5368Z" fill="black"/>
</g>
<defs>
<clipPath id="clip0_40_5320">
<rect width="69" height="45" fill="white"/>
</clipPath>
</defs>
</svg>
