<svg width="153" height="45" viewBox="0 0 153 45" fill="none" xmlns="http://www.w3.org/2000/svg">
<path d="M33.1041 1.27812C31.8173 1.27497 30.3801 1.42697 28.8212 1.82911C28.8212 1.82911 20.8277 3.84078 12.0174 12.1833C12.0174 12.1833 7.81649 16.5025 4.84082 22.0642C4.84082 22.0642 1.74847 27.8625 1.2817 32.7142C1.2817 32.7142 0.814933 38.1575 3.84894 40.9384C3.84894 40.9384 7.34972 44.1925 14.9931 43.5417C14.9931 43.5417 19.7775 42.95 24.9703 39.6367C24.9703 39.6367 27.4792 37.98 29.1129 36.4417C29.1129 36.4417 28.3544 39.2225 29.463 41.2342C29.463 41.2342 30.5132 43.1275 32.9054 43.5417C32.9054 43.5417 34.6558 43.8967 37.1647 42.95C37.1647 42.95 38.74 42.24 39.7903 41.7075C39.7903 41.7075 41.9491 40.5242 44.0495 38.8675C44.0495 38.8675 43.6411 40.5242 44.5746 41.9442C44.5746 41.9442 45.6832 43.5417 47.7253 43.7192C47.7253 43.7192 53.2099 44.1334 60.8533 34.6075L55.4854 43.3642L60.3865 43.305L64.6458 35.85C64.6458 35.85 69.0801 28.1583 70.0136 27.2117C70.0136 27.2117 72.2891 24.135 75.7316 23.425L78.0071 23.6025C78.0071 23.6025 78.9406 24.0758 78.9406 25.1408L77.2486 24.845C77.2486 24.845 76.2567 24.9633 75.7316 26.0283C75.7316 26.0283 75.2648 27.0342 75.4982 28.04C75.4982 28.04 75.7899 28.8683 76.5484 29.1642L77.0735 29.3417L78.7656 29.105C78.7656 29.105 81.7412 27.9808 85.8255 22.7742L84.8919 24.49L81.4495 30.4658L77.4236 37.6842C77.4236 37.6842 76.2567 40.0508 76.7818 41.4709C76.7818 41.4709 77.3069 42.8317 79.0573 43.1867L82.8498 42.8909C82.8498 42.8909 85.0086 42.24 86.759 40.7017L89.2679 38.6308C89.2679 38.6308 92.3019 36.0275 95.0442 32.9508L94.8692 33.1875C94.8692 33.1875 92.477 37.625 92.0685 39.1042C92.0685 39.1042 91.135 42.24 93.2938 43.4825L95.7443 43.7192C95.7443 43.7192 97.7865 43.4234 99.8286 41.9442L103.154 39.045C103.154 39.045 106.013 36.3233 107.53 34.3708C107.53 34.3708 106.772 36.1458 106.597 37.4475C106.597 37.4475 106.013 41.5892 109.806 43.2459L113.365 43.5417C113.365 43.5417 114.765 43.4234 116.924 42.6542C116.924 42.6542 121.942 40.9975 129.002 34.43C129.002 34.43 132.561 31.1167 135.07 28.1583L126.201 43.2459H130.577L133.844 37.6842L138.045 30.7617C138.045 30.7617 140.438 26.9158 144.814 24.4308C144.814 24.4308 146.564 23.3658 147.906 23.1292C147.906 23.1292 149.306 22.8333 149.598 23.5433C149.598 23.5433 147.614 23.1292 147.147 25.2C147.147 25.2 146.681 27.2708 148.314 27.9217C148.314 27.9217 149.54 28.3358 150.532 27.6258C150.532 27.6258 151.407 26.975 151.698 25.7325C151.698 25.7325 151.932 24.49 151.348 23.6025C151.348 23.6025 150.648 22.5375 149.015 22.4192C149.015 22.4192 147.206 22.36 143.588 24.7858C143.588 24.7858 140.904 26.5608 139.796 27.685L142.771 22.5375H138.337C138.337 22.5375 134.136 29.7558 126.726 35.9683C126.726 35.9683 119.491 41.9442 115.407 42.1217C115.407 42.1217 111.439 42.4175 111.031 39.3408C111.031 39.3408 110.798 37.5067 111.848 34.9033C111.848 34.9033 114.298 35.14 117.566 34.075C117.566 34.075 120.658 33.0692 123.225 31.2942C123.225 31.2942 125.968 29.4008 126.96 27.3892C126.96 27.3892 128.127 25.1408 126.785 23.2475C126.785 23.2475 124.334 20.8216 119.025 23.07C119.025 23.07 113.54 25.3775 109.456 30.88L108.405 32.4775L108.289 32.655L105.371 36.0867L102.396 39.1042C102.396 39.1042 98.7784 42.7134 96.9696 41.6483C96.9696 41.6483 96.2695 41.175 96.2695 40.0508C96.2695 40.0508 96.2695 38.9267 97.0863 37.5658L105.547 22.6558H101.754C101.754 22.6558 99.6535 26.1467 97.203 29.46C97.203 29.46 92.4186 35.9092 87.2258 39.6367C87.2258 39.6367 83.6667 42.4175 81.6829 41.4709C81.6829 41.4709 80.8077 41.0567 80.866 39.9325C80.866 39.9325 80.9244 38.69 82.0913 36.9742L90.3765 22.6558L94.9858 22.5967L95.5693 22.005H90.9016L95.861 13.0708L91.6601 13.13C91.6601 13.13 88.7428 18.1591 86.5256 21.1766C86.5256 21.1766 82.4414 26.62 79.0573 28.0992C79.0573 28.0992 79.6408 27.33 79.6991 26.1467L79.6408 25.2C79.6408 25.2 79.4074 23.9575 78.2405 23.3658L77.1902 23.07L75.2065 23.2475C75.2065 23.2475 72.8726 23.78 70.7138 25.6733L72.5225 22.5967H68.3216C68.3216 22.5967 64.5291 29.46 59.5696 35.3175C59.5696 35.3175 53.0932 42.8909 49.5341 42.0034C49.5341 42.0034 48.4839 41.4709 48.4255 40.1692C48.4255 40.1692 48.4255 38.8675 49.5341 37.0333L57.9943 22.5375L53.7934 22.5967L52.4514 24.9633L51.5762 26.6792C51.5762 26.6792 51.7512 26.1467 51.5762 25.0225C51.5762 25.0225 51.2261 22.36 48.7172 21.8275L46.7335 21.65C46.7335 21.65 41.7157 21.5908 35.9977 26.6792C35.9977 26.6792 32.0885 30.2292 29.1129 35.6133C29.1129 35.6133 23.1616 41.2342 16.8602 42.4767C16.8602 42.4767 11.2589 43.66 8.86672 41.1158C8.86672 41.1158 6.24114 38.3942 6.24114 33.6608C6.24114 33.6608 6.29948 28.04 10.267 20.4075C10.267 20.4075 14.468 14.1358 17.0352 11.2958C17.0352 11.2958 23.57 4.01829 30.3382 2.18412C30.3382 2.18412 35.8811 0.704946 38.9734 3.24912C38.9734 3.24912 41.599 5.43829 41.8324 9.87579L43.3494 7.27246C43.3494 7.27246 45.2748 4.19579 46.9668 2.42078C46.9668 2.42078 45.3915 3.13078 43.4661 3.36745C43.4661 3.36745 41.0739 3.66328 39.9069 2.95328C39.9069 2.95328 37.3077 1.28842 33.1041 1.27812ZM47.3534 22.1862C49.0629 22.1949 49.9425 23.0108 49.9425 23.0108C51.9846 24.9042 50.3509 28.4542 50.3509 28.4542C47.2002 35.0808 42.5909 39.1042 42.5909 39.1042L39.7903 41.1158C35.4143 43.305 33.5472 41.7667 33.5472 41.7667C32.0302 40.465 32.672 37.5067 32.672 37.5067C33.0804 35.495 34.7141 32.5958 34.7141 32.5958L37.8648 27.9217C40.7238 24.7267 43.9912 23.07 43.9912 23.07C45.335 22.3988 46.458 22.1816 47.3534 22.1862ZM122.41 22.7076C122.469 22.7069 122.527 22.7094 122.584 22.715C122.584 22.715 123.517 22.8333 123.926 23.3067C123.926 23.3067 124.334 23.8983 124.217 25.0817C124.217 25.0817 123.926 28.2175 120.483 31.1758C120.483 31.1758 116.574 34.5483 112.023 34.43L112.898 32.5958C112.898 32.5958 114.882 28.6908 117.799 25.6733C117.799 25.6733 120.591 22.7301 122.41 22.7076Z" fill="black"/>
<path d="M104.671 16.0878C104.671 16.0878 104.671 16.857 105.255 17.4486C105.255 17.4486 105.78 17.9811 106.597 17.9811C106.597 17.9811 107.355 17.9811 107.88 17.4486C107.88 17.4486 108.406 16.857 108.406 16.0878L107.88 14.727C107.88 14.727 107.297 14.1945 106.597 14.1945C106.597 14.1945 105.78 14.1945 105.255 14.727C105.255 14.727 104.671 15.2595 104.671 16.0878Z" fill="black"/>
</svg>
