<svg width="290" height="35" viewBox="0 0 290 35" fill="none" xmlns="http://www.w3.org/2000/svg">
<g clip-path="url(#clip0_40_5302)">
<path d="M28.855 0.883484L28.9051 9.87894C28.7854 9.96485 28.2453 10.0286 28.2174 9.95376C26.0709 4.65791 24.3531 1.90054 17.919 1.90054H17.1757V29.7987C17.1757 31.1954 17.3343 32.1736 18.0499 32.8276C18.5426 33.2793 20.3551 33.49 21.8251 33.49C21.9059 33.49 21.9142 34.277 21.8251 34.277H7.90177C7.81268 34.277 7.82382 33.49 7.90177 33.49C9.369 33.49 11.1842 33.2793 11.6742 32.8276C12.3925 32.1736 12.5512 31.1954 12.5512 29.7987V1.90054H11.8079C5.37659 1.90054 3.656 4.65791 1.50944 9.95376C1.47882 10.0286 0.941493 9.96485 0.821777 9.87894L0.871891 0.883484H28.855Z" fill="black"/>
<path d="M37.202 30.1229C37.202 31.406 37.0432 32.4258 36.3946 32.9662C35.8517 33.4179 34.7297 33.5398 33.1149 33.5398C33.0286 33.5398 33.0174 34.277 33.1149 34.277H45.7297C45.8271 34.277 45.8188 33.5398 45.7297 33.5398C44.1149 33.5398 42.9929 33.4179 42.45 32.9662C41.7985 32.4258 41.6426 31.406 41.6426 30.1229V12.1818C41.6426 10.896 41.7985 9.87894 42.45 9.33855C42.9929 8.88683 44.1149 8.76766 45.7297 8.76766C45.8188 8.76766 45.8271 8.02774 45.7297 8.02774H33.1149C33.0174 8.02774 33.0286 8.76766 33.1149 8.76766C34.7297 8.76766 35.8517 8.88683 36.3946 9.33855C37.0432 9.87894 37.202 10.896 37.202 12.1818V30.1229Z" fill="black"/>
<path d="M70.6251 8.02774H51.0584C50.9693 8.02774 50.9776 8.76766 51.0584 8.76766C52.5256 8.76766 53.5835 8.88683 54.0763 9.33855C54.6666 9.87894 54.8113 10.896 54.8113 12.1818V30.1229C54.8113 31.406 54.6666 32.4258 54.0763 32.9662C53.5835 33.4179 52.5256 33.5398 51.0584 33.5398C50.9776 33.5398 50.9693 34.277 51.0584 34.277H63.5813C63.676 34.277 63.6676 33.5398 63.5813 33.5398C61.9637 33.5398 60.5995 33.4179 60.0594 32.9662C59.4079 32.4258 59.2492 31.406 59.2492 30.1229V21.6013H61.2593C63.289 21.6013 64.269 21.9172 65.1237 22.5657C65.8336 23.1061 66.396 24.2229 66.396 25.2843C66.396 25.3702 66.7942 25.3868 67.0252 25.2843V16.9262C66.7942 16.8292 66.396 16.8403 66.396 16.9262C66.396 17.9904 65.8336 19.2069 65.1237 19.7473C64.269 20.3958 63.289 20.7478 61.2593 20.7478H59.2492V8.98381H61.5628C67.5403 8.98381 69.3472 11.816 70.2465 15.1083C70.2659 15.1831 70.7894 15.1138 70.7699 15.0307L70.6251 8.02774Z" fill="black"/>
<path d="M94.4264 8.02774H74.8596C74.7705 8.02774 74.7789 8.76766 74.8596 8.76766C76.3269 8.76766 77.3848 8.88683 77.8776 9.33855C78.4706 9.87894 78.6126 10.896 78.6126 12.1818V30.1229C78.6126 31.406 78.4706 32.4258 77.8776 32.9662C77.3848 33.4179 76.3269 33.5398 74.8596 33.5398C74.7789 33.5398 74.7705 34.277 74.8596 34.277H87.3798C87.4772 34.277 87.4689 33.5398 87.3798 33.5398C85.765 33.5398 84.4036 33.4179 83.8607 32.9662C83.2092 32.4258 83.0505 31.406 83.0505 30.1229V21.6013H85.0606C87.0902 21.6013 88.0702 21.9172 88.925 22.5657C89.6377 23.1061 90.1973 24.2229 90.1973 25.2843C90.1973 25.3702 90.5954 25.3868 90.8265 25.2843V16.9262C90.5954 16.8292 90.1973 16.8403 90.1973 16.9262C90.1973 17.9904 89.6377 19.2069 88.925 19.7473C88.0702 20.3958 87.0902 20.7478 85.0606 20.7478H83.0505V8.98381H85.3641C91.3416 8.98381 93.1485 11.816 94.0449 15.1083C94.0672 15.1831 94.5906 15.1138 94.5711 15.0307L94.4264 8.02774Z" fill="black"/>
<path d="M102.564 24.0539L106.562 13.149L110.599 24.0539H102.564ZM121.073 33.5731C118.996 33.3043 118.292 32.5976 117.337 30.1229L108.87 7.38206C108.87 7.28506 107.576 7.29615 107.576 7.38206L99.29 29.6324C98.1708 32.5339 97.2855 33.0521 94.7575 33.5731C94.6823 33.587 94.6684 34.277 94.7575 34.277H102.792C102.882 34.277 102.873 33.5759 102.792 33.5731C100.443 33.3985 99.4376 32.5117 100.548 29.6324L102.241 25.0072H110.964L112.779 29.7654C113.728 32.2235 112.849 33.3819 110.323 33.5731C110.246 33.5759 110.237 34.277 110.323 34.277H121.073C121.162 34.277 121.151 33.5814 121.073 33.5731Z" fill="black"/>
<path d="M149.602 8.0278H140.342C140.253 8.0278 140.264 8.7594 140.342 8.76772C142.336 8.9423 143.307 9.12246 143.825 10.0065C144.418 11.0208 144.688 12.7417 144.688 15.0197V27.4709L129.774 8.0278H122.17C122.078 8.0278 122.09 8.76772 122.17 8.76772C124.94 8.76772 126.296 10.3085 126.296 12.5616V27.421C126.296 29.6989 126.152 31.2841 125.559 32.2956C125.046 33.1713 124.495 33.3764 122.635 33.5399C122.557 33.5427 122.546 34.277 122.635 34.277H131.803C131.892 34.277 131.881 33.5427 131.803 33.5399C129.81 33.3598 128.841 33.1852 128.32 32.2956C127.73 31.2841 127.454 29.6989 127.454 27.421V12.2733L144.877 34.5264C145.031 34.7232 145.849 34.7066 145.849 34.5264V15.0197C145.849 12.7417 145.994 11.0208 146.587 10.0065C147.105 9.12246 147.611 8.9423 149.602 8.76772C149.683 8.7594 149.694 8.0278 149.602 8.0278Z" fill="black"/>
<path d="M176.457 8.02774H168.417C168.333 8.02774 168.336 8.76212 168.414 8.76766C170.875 8.8508 171.713 9.74038 170.833 11.4779L165.563 21.2605L159.758 11.3172C158.892 9.65446 159.864 8.76766 162.272 8.76766C162.35 8.76766 162.356 8.02774 162.267 8.02774H151.253C151.164 8.02774 151.178 8.75935 151.256 8.76766C153.33 8.91176 153.951 9.42999 154.803 11.0706L161.69 23.0728V30.1229C161.69 31.406 161.532 32.4258 160.942 32.9662C160.446 33.4179 159.288 33.5398 157.818 33.5398C157.74 33.5398 157.731 34.277 157.818 34.277H170.007C170.093 34.277 170.085 33.5398 170.007 33.5398C168.534 33.5398 167.376 33.4179 166.88 32.9662C166.293 32.4258 166.131 31.406 166.131 30.1229V22.2969L172.212 11.4031C173.225 9.51867 174.319 8.95057 176.455 8.76766C176.533 8.75935 176.552 8.02774 176.457 8.02774Z" fill="black"/>
<path d="M187.491 25.1208C187.491 21.7704 189.084 19.3289 192.04 17.9765L200.646 29.25C198.619 31.1594 196.233 32.2956 194.089 32.2956C190.35 32.2956 187.491 29.552 187.491 25.1208ZM196.255 4.1425C198.697 4.1425 200.145 5.95212 200.145 8.8647C200.145 11.5417 198.073 14.4598 195.097 15.6265C192.839 12.5976 192.252 10.6383 192.252 8.81203C192.252 5.61401 193.925 4.1425 196.255 4.1425ZM213.678 18.0181H203.141C203.046 18.3008 203.051 18.7026 203.132 18.7054C205.827 18.7857 206.999 19.8166 206.017 21.8812C205.268 23.447 204.474 24.8492 203.472 26.2266L195.804 16.4745C200.382 14.2658 202.742 12.0128 202.742 8.45455C202.742 5.8468 200.092 3.03953 196.047 3.03953C191.985 3.03953 188.424 6.30129 188.424 9.9621C188.424 12.3093 189.131 14.0441 191.433 17.1812C186.817 18.7192 182.903 22.405 182.903 26.6256C182.903 31.3728 186.698 34.7537 191.754 34.7537C195.479 34.7537 198.764 32.7999 201.32 30.0037L204.469 34.277H212.634C212.729 34.277 212.701 33.5509 212.626 33.5509C211.256 33.5011 210.683 33.3597 209.775 32.9302C208.661 32.4036 207.798 31.5307 206.59 30.1118L204.109 26.9498C205.563 25.0765 206.768 23.0313 208.116 21.1773C209.171 19.7363 210.293 19.0573 213.67 18.7747C213.751 18.7691 213.77 18.3008 213.678 18.0181Z" fill="black"/>
<path d="M250.579 24.1925C250.579 24.101 249.939 24.0234 249.891 24.234C248.666 30.0537 244.32 33.6701 240.35 33.6701C232.791 33.6701 227.975 27.094 227.975 17.6717C227.975 8.25227 232.184 1.49596 239.562 1.49596C244.039 1.49596 248.435 5.1069 249.658 10.5053C249.674 10.5829 250.365 10.5164 250.345 10.4277L250.072 0.309853C250.053 0.229492 249.354 0.221176 249.343 0.309853C249.17 1.77031 248.243 2.56012 246.773 1.98924C244.652 1.17173 242.246 0.417957 239.746 0.417957C230.227 0.417957 222.098 8.16636 222.098 17.6717C222.098 27.1799 230.044 34.7454 239.746 34.7454C244.011 34.7454 247.311 33.8752 250.086 31.9935L250.579 24.1925Z" fill="black"/>
<path d="M276.19 21.1524C276.19 28.56 273.428 33.7422 268.163 33.7422C262.893 33.7422 260.131 28.56 260.131 21.1524C260.131 13.7505 262.893 8.5682 268.163 8.5682C273.428 8.5682 276.19 13.7505 276.19 21.1524ZM254.928 21.1524C254.928 28.535 260.76 34.6456 268.163 34.6456C275.566 34.6456 281.396 28.535 281.396 21.1524C281.396 13.7671 275.566 7.65648 268.163 7.65648C260.76 7.65648 254.928 13.7671 254.928 21.1524Z" fill="black"/>
<path d="M286.396 28.9895C287.947 28.9895 289.178 30.2338 289.178 31.8162C289.178 33.3986 287.947 34.6456 286.396 34.6456C284.843 34.6456 283.612 33.3986 283.612 31.8162C283.612 30.2338 284.843 28.9895 286.396 28.9895Z" fill="#231F20"/>
</g>
<defs>
<clipPath id="clip0_40_5302">
<rect width="290" height="35" fill="white"/>
</clipPath>
</defs>
</svg>
