<svg width="105" height="44" viewBox="0 0 105 44" fill="none" xmlns="http://www.w3.org/2000/svg">
<g clip-path="url(#clip0_40_5318)">
<path d="M99.6144 42.698L84.0579 0.0281568L84.0472 0H83.7402L80.5367 8.76854L74.7047 24.7317L74.691 24.7191C72.6697 22.9423 69.8181 21.8316 66.2267 21.4179L65.1312 21.3053L66.2179 21.1665C72.1405 20.1062 76.1218 16.3797 76.1218 11.8901C76.1218 5.7334 70.3093 1.43602 61.9833 1.43602H44.6599V1.7477H49.6937V33.5605L37.4683 0.0281568L37.4576 0H37.1506L33.9471 8.76854L21.5912 42.5883L21.5152 42.597C21.304 42.6229 21.0951 42.6436 20.8885 42.6591C20.5776 42.6834 20.2687 42.698 19.9587 42.698H7.47417L31.2056 1.74769L31.382 1.4399H2.35755V14.1077H2.66552C2.7201 7.93742 6.32707 1.74769 14.2963 1.74769H23.9107L0 43.0048H32.2123V30.8681H31.9044C31.8625 36.2461 28.8022 41.3542 22.1477 42.5077L21.9362 42.5436L27.0041 28.666H41.201L46.3167 42.698H41.2702V43.0048H61.0769V42.698H56.009V21.5315H61.8566C67.8075 21.5315 71.2205 24.1802 71.2205 28.7961V32.5507C71.2205 32.9643 71.2488 33.5692 71.28 34.0751V34.0935L68.1369 42.696H64.0309V43.0028H72.5304V42.696H68.4683L71.3307 34.8625C71.3365 34.9382 71.3394 34.9839 71.3394 34.9839L71.4184 35.6897L71.4944 36.1568C71.9719 39.0453 73.081 41.1687 74.7895 42.4679L75.0351 42.6455C76.3332 43.5446 77.9462 44 79.832 44C82.3299 44 83.9955 43.3796 85.3707 41.9193L85.1904 41.7503C83.9234 42.9155 82.8601 43.3873 81.5278 43.3873C79.258 43.3873 78.07 40.6444 78.07 37.9394V32.6789C78.0821 31.3735 77.8769 30.0753 77.4628 28.8369L77.4063 28.6737V28.6679H87.7906L92.9062 42.6999H87.8598V43.0067H105V42.6999L99.6144 42.698ZM27.1171 28.3592L34.1108 9.21711L41.0889 28.3592H27.1171ZM56.012 21.2237V1.74769H60.4756C66.4382 1.74769 69.5861 5.27899 69.5861 11.9561C69.5861 19.0576 67.7792 21.2237 61.8566 21.2237H56.012ZM77.2854 28.3592L77.2552 28.2834C76.7937 27.1637 76.1219 26.1421 75.2758 25.2735L74.9834 24.9822L74.9522 24.9531L80.6965 9.21711L87.6746 28.3592H77.2854Z" fill="black"/>
</g>
<defs>
<clipPath id="clip0_40_5318">
<rect width="105" height="44" fill="white"/>
</clipPath>
</defs>
</svg>
