<svg width="75" height="20" viewBox="0 0 75 20" fill="none" xmlns="http://www.w3.org/2000/svg">
<g clip-path="url(#clip0_38_569)">
<path d="M23.9826 3.97632C23.8283 3.97632 23.6972 4.08838 23.673 4.24096L21.8863 15.5718C21.8798 15.6132 21.8824 15.6555 21.8938 15.6958C21.9052 15.7361 21.9252 15.7735 21.9525 15.8053C21.9797 15.8371 22.0135 15.8627 22.0515 15.8802C22.0896 15.8978 22.131 15.9068 22.1729 15.9068H24.2918C24.4459 15.9068 24.5772 15.7946 24.6014 15.6422L25.1262 12.3148C25.1501 12.1625 25.2815 12.0502 25.4358 12.0502H27.3623C29.6132 12.0502 31.5239 10.4079 31.8729 8.18244C32.2248 5.9382 30.4715 3.98119 27.9866 3.97632H23.9826ZM26.0424 6.5058H27.5837C28.8527 6.5058 29.2659 7.25454 29.1353 8.08257C29.0046 8.91236 28.3628 9.52358 27.1353 9.52358H25.5665L26.0424 6.5058ZM36.1824 7.27602C35.6474 7.27801 35.0318 7.38764 34.3406 7.67553C32.7552 8.33636 31.9938 9.70208 31.6705 10.6977C31.6705 10.6977 30.6414 13.7355 32.9665 15.4044C32.9665 15.4044 35.1228 17.011 37.5502 15.3054L37.5083 15.5718C37.5018 15.6131 37.5044 15.6554 37.5157 15.6957C37.5271 15.736 37.5471 15.7733 37.5743 15.8051C37.6015 15.837 37.6352 15.8625 37.6732 15.8801C37.7112 15.8977 37.7526 15.9068 37.7944 15.9068H39.8059C39.9603 15.9068 40.0914 15.7946 40.1155 15.6422L41.3391 7.88281C41.3456 7.84143 41.3431 7.79911 41.3318 7.75878C41.3204 7.71844 41.3004 7.68105 41.2733 7.64917C41.2461 7.61728 41.2123 7.59167 41.1743 7.57408C41.1362 7.5565 41.0948 7.54737 41.0529 7.54731H39.0414C38.8871 7.54731 38.7558 7.65958 38.7318 7.81195L38.6661 8.22961C38.6661 8.22961 37.7878 7.27004 36.1824 7.27602ZM36.2482 9.72688C36.4792 9.72688 36.6905 9.75877 36.88 9.81967C37.7479 10.0983 38.24 10.932 38.0976 11.8358C37.922 12.9486 37.0094 13.768 35.839 13.768C35.6082 13.768 35.3969 13.7364 35.2071 13.6755C34.3395 13.3969 33.8443 12.5631 33.9867 11.6593C34.1623 10.5465 35.0778 9.72688 36.2482 9.72688Z" fill="#003087"/>
<path d="M52.9494 3.97632C52.7951 3.97632 52.664 4.08838 52.6398 4.24096L50.8531 15.5718C50.8466 15.6132 50.8492 15.6555 50.8606 15.6958C50.872 15.7361 50.892 15.7735 50.9193 15.8053C50.9465 15.8371 50.9803 15.8627 51.0183 15.8802C51.0564 15.8978 51.0978 15.9068 51.1397 15.9068H53.2586C53.4127 15.9068 53.544 15.7946 53.5682 15.6422L54.093 12.3148C54.1169 12.1625 54.2483 12.0502 54.4026 12.0502H56.3291C58.58 12.0502 60.4905 10.4079 60.8393 8.18244C61.1914 5.9382 59.4383 3.98119 56.9534 3.97632H52.9494ZM55.0092 6.5058H56.5505C57.8195 6.5058 58.2327 7.25454 58.1021 8.08257C57.9714 8.91236 57.3298 9.52358 56.1021 9.52358H54.5333L55.0092 6.5058ZM65.149 7.27602C64.614 7.27801 63.9983 7.38764 63.3072 7.67553C61.7218 8.33636 60.9604 9.70208 60.6371 10.6977C60.6371 10.6977 59.6084 13.7355 61.9335 15.4044C61.9335 15.4044 64.0894 17.011 66.517 15.3054L66.4751 15.5718C66.4686 15.6132 66.4712 15.6555 66.4826 15.6958C66.494 15.7361 66.514 15.7735 66.5412 15.8053C66.5685 15.8371 66.6023 15.8627 66.6403 15.8802C66.6784 15.8978 66.7198 15.9068 66.7617 15.9068H68.7729C68.9273 15.9068 69.0584 15.7946 69.0825 15.6422L70.3065 7.88281C70.3131 7.84139 70.3106 7.79904 70.2992 7.75867C70.2878 7.71831 70.2678 7.68089 70.2406 7.649C70.2134 7.61711 70.1795 7.5915 70.1414 7.57395C70.1033 7.55639 70.0619 7.5473 70.02 7.54731H68.0085C67.8541 7.54731 67.7228 7.65958 67.6989 7.81195L67.6331 8.22961C67.6331 8.22961 66.7544 7.27004 65.149 7.27602ZM65.2148 9.72688C65.4458 9.72688 65.6571 9.75877 65.8466 9.81967C66.7145 10.0983 67.2066 10.932 67.0642 11.8358C66.8886 12.9486 65.9759 13.768 64.8055 13.768C64.5748 13.768 64.3635 13.7364 64.1737 13.6755C63.3061 13.3969 62.8109 12.5631 62.9533 11.6593C63.1289 10.5465 64.0444 9.72688 65.2148 9.72688Z" fill="#0070E0"/>
<path d="M42.2936 7.54734C42.1342 7.54734 42.0208 7.70302 42.0695 7.85472L44.2748 14.698L42.2808 17.9228C42.184 18.0794 42.2965 18.2816 42.4805 18.2816H44.8373C44.9047 18.2815 44.9709 18.2641 45.0296 18.2309C45.0883 18.1978 45.1375 18.1501 45.1723 18.0924L51.3313 7.90389C51.4258 7.74732 51.3129 7.54712 51.13 7.54712H48.7735C48.7054 7.54718 48.6385 7.56495 48.5794 7.5987C48.5203 7.63244 48.471 7.68099 48.4364 7.73956L46.0121 11.8325L44.7815 7.7699C44.7414 7.63769 44.6194 7.54712 44.4814 7.54712L42.2936 7.54734Z" fill="#003087"/>
<path d="M72.5915 3.97632C72.4374 3.97632 72.3061 4.0886 72.2819 4.24096L70.4948 15.5713C70.4882 15.6128 70.4907 15.6551 70.5021 15.6955C70.5135 15.7358 70.5335 15.7733 70.5607 15.8052C70.588 15.837 70.6218 15.8626 70.6599 15.8802C70.698 15.8978 70.7394 15.9068 70.7813 15.9068H72.9002C73.0544 15.9068 73.1857 15.7946 73.2098 15.6422L74.9965 4.31138C75.003 4.27003 75.0005 4.22776 74.9891 4.18748C74.9777 4.1472 74.9577 4.10987 74.9306 4.07803C74.9034 4.0462 74.8696 4.02063 74.8316 4.00307C74.7936 3.98551 74.7523 3.97639 74.7104 3.97632H72.5915Z" fill="#0070E0"/>
<path d="M6.31809 3.97632C6.18159 3.97643 6.04962 4.02522 5.94587 4.11391C5.84211 4.2026 5.77338 4.32539 5.75204 4.4602L4.81152 10.4254C4.85537 10.1468 5.09542 9.94147 5.37756 9.94147H8.13359C10.9073 9.94147 13.261 7.91802 13.691 5.17595C13.723 4.97123 13.7412 4.76458 13.7453 4.55742C13.0404 4.18781 12.2124 3.97632 11.3051 3.97632H6.31809Z" fill="#001C64"/>
<path d="M13.745 4.55762C13.7408 4.76478 13.7227 4.97143 13.6907 5.17615C13.2606 7.91822 10.9068 9.94167 8.13324 9.94167H5.37722C5.0953 9.94167 4.85503 10.1467 4.81118 10.4256L3.94638 15.907L3.40471 19.3458C3.39413 19.4123 3.3981 19.4802 3.41633 19.545C3.43456 19.6097 3.46664 19.6697 3.51032 19.7209C3.55401 19.7721 3.60827 19.8131 3.66938 19.8413C3.73048 19.8694 3.79696 19.884 3.86423 19.884H6.85566C6.99216 19.8838 7.12413 19.8351 7.22789 19.7464C7.33164 19.6577 7.40036 19.5349 7.4217 19.4001L8.20964 14.4025C8.231 14.2676 8.29979 14.1447 8.40363 14.056C8.50747 13.9673 8.63956 13.9186 8.77613 13.9186H10.5374C13.3111 13.9186 15.6648 11.8951 16.0948 9.15306C16.4002 7.2069 15.4201 5.43591 13.745 4.55762Z" fill="#0070E0"/>
<path d="M2.91926 0.000244141C2.63735 0.000244141 2.39707 0.205313 2.35322 0.483684L0.00577741 15.3691C-0.0387354 15.6517 0.179627 15.9072 0.465748 15.9072H3.94682L4.81117 10.4258L5.75168 4.4606C5.77303 4.32578 5.84176 4.203 5.94551 4.11431C6.04926 4.02561 6.18124 3.97683 6.31773 3.97672H11.3047C12.2122 3.97672 13.0401 4.18843 13.7449 4.55782C13.7932 2.06134 11.7332 0.000244141 8.90102 0.000244141H2.91926Z" fill="#003087"/>
</g>
<defs>
<clipPath id="clip0_38_569">
<rect width="75" height="19.8835" fill="white"/>
</clipPath>
</defs>
</svg>
