<svg width="35" height="22" viewBox="0 0 35 22" fill="none" xmlns="http://www.w3.org/2000/svg">
<path d="M22.2216 2.31543H12.75V19.332H22.2216V2.31543Z" fill="#FF5A00"/>
<path d="M13.3807 10.8237C13.3807 7.36639 15.006 4.29794 17.5 2.31535C15.6645 0.872197 13.3492 0 10.8237 0C4.84087 0 0 4.84087 0 10.8237C0 16.8064 4.84087 21.6473 10.8237 21.6473C13.3492 21.6473 15.6645 20.7751 17.5 19.332C15.0025 17.3774 13.3807 14.2809 13.3807 10.8237Z" fill="#EB001B"/>
<path d="M35 10.8237C35 16.8064 30.1591 21.6473 24.1763 21.6473C21.6508 21.6473 19.3355 20.7751 17.5 19.332C20.0255 17.3459 21.6193 14.2809 21.6193 10.8237C21.6193 7.36639 19.994 4.29794 17.5 2.31535C19.332 0.872197 21.6473 0 24.1728 0C30.1591 0 35 4.8724 35 10.8237Z" fill="#F79E1B"/>
</svg>
