<svg width="50" height="24" viewBox="0 0 50 24" fill="none" xmlns="http://www.w3.org/2000/svg">
<g clip-path="url(#clip0_38_586)">
<path d="M23.625 12.3125V18.125H21.75V3.75H26.625C27.8125 3.75 28.9375 4.1875 29.8125 5C30.6875 5.75 31.125 6.875 31.125 8.0625C31.125 9.25 30.6875 10.3125 29.8125 11.125C28.9375 11.9375 27.875 12.375 26.625 12.375L23.625 12.3125ZM23.625 5.5V10.5H26.75C27.4375 10.5 28.125 10.25 28.5625 9.75C29.5625 8.8125 29.5625 7.25 28.625 6.3125L28.5625 6.25C28.0625 5.75 27.4375 5.4375 26.75 5.5H23.625Z" fill="#5F6368"/>
<path d="M35.4375 8C36.8125 8 37.875 8.375 38.6875 9.125C39.5 9.875 39.875 10.875 39.875 12.125V18.125H38.125V16.75H38.0625C37.3125 17.875 36.25 18.4375 35 18.4375C33.9375 18.4375 33 18.125 32.25 17.5C31.5625 16.875 31.125 16 31.125 15.0625C31.125 14.0625 31.5 13.25 32.25 12.625C33 12 34.0625 11.75 35.3125 11.75C36.4375 11.75 37.3125 11.9375 38 12.375V11.9375C38 11.3125 37.75 10.6875 37.25 10.3125C36.75 9.875 36.125 9.625 35.4375 9.625C34.375 9.625 33.5625 10.0625 33 10.9375L31.375 9.9375C32.375 8.625 33.6875 8 35.4375 8ZM33.0625 15.125C33.0625 15.625 33.3125 16.0625 33.6875 16.3125C34.125 16.625 34.625 16.8125 35.125 16.8125C35.875 16.8125 36.625 16.5 37.1875 15.9375C37.8125 15.375 38.125 14.6875 38.125 13.9375C37.5625 13.5 36.75 13.25 35.6875 13.25C34.9375 13.25 34.3125 13.4375 33.8125 13.8125C33.3125 14.125 33.0625 14.5625 33.0625 15.125Z" fill="#5F6368"/>
<path d="M50 8.3125L43.8125 22.5H41.9375L44.25 17.5625L40.1875 8.375H42.1875L45.125 15.4375H45.1875L48.0625 8.375H50V8.3125Z" fill="#5F6368"/>
<path d="M16.1875 11.0625C16.1875 10.5 16.125 9.9375 16.0625 9.375H8.25V12.5625H12.6875C12.5 13.5625 11.9375 14.5 11.0625 15.0625V17.125H13.75C15.3125 15.6875 16.1875 13.5625 16.1875 11.0625Z" fill="#4285F4"/>
<path d="M8.25 19.125C10.5 19.125 12.375 18.375 13.75 17.125L11.0625 15.0625C10.3125 15.5625 9.375 15.875 8.25 15.875C6.125 15.875 4.25 14.4375 3.625 12.4375H0.875V14.5625C2.3125 17.375 5.125 19.125 8.25 19.125Z" fill="#34A853"/>
<path d="M3.625 12.4375C3.25 11.4375 3.25 10.3125 3.625 9.25V7.125H0.875C-0.3125 9.4375 -0.3125 12.1875 0.875 14.5625L3.625 12.4375Z" fill="#FBBC04"/>
<path d="M8.25 5.87494C9.4375 5.87494 10.5625 6.31244 11.4375 7.12494L13.8125 4.74994C12.3125 3.37494 10.3125 2.56244 8.3125 2.62494C5.1875 2.62494 2.3125 4.37494 0.9375 7.18744L3.6875 9.31244C4.25 7.31244 6.125 5.87494 8.25 5.87494Z" fill="#EA4335"/>
</g>
<defs>
<clipPath id="clip0_38_586">
<rect width="50" height="23.8125" fill="white"/>
</clipPath>
</defs>
</svg>
