<svg width="50" height="21" viewBox="0 0 50 21" fill="none" xmlns="http://www.w3.org/2000/svg">
<g clip-path="url(#clip0_38_578)">
<path d="M9.14076 2.64648C8.55482 3.33984 7.61732 3.88672 6.67982 3.80859C6.56263 2.87109 7.02162 1.875 7.55873 1.25977C8.14466 0.546875 9.17005 0.0390625 10.0001 0C10.0978 0.976562 9.71693 1.93359 9.14076 2.64648ZM9.99037 3.99414C8.63294 3.91602 7.47083 4.76562 6.8263 4.76562C6.17201 4.76562 5.18568 4.0332 4.11146 4.05273C2.71497 4.07227 1.41615 4.86328 0.703256 6.12305C-0.761587 8.64258 0.322397 12.373 1.73841 14.4238C2.43177 15.4395 3.26185 16.5527 4.3556 16.5137C5.39076 16.4746 5.80091 15.8398 7.05091 15.8398C8.31068 15.8398 8.67201 16.5137 9.76576 16.4941C10.8986 16.4746 11.6115 15.4785 12.3048 14.4629C13.0958 13.3105 13.4181 12.1875 13.4376 12.1289C13.4181 12.1094 11.2501 11.2793 11.2306 8.7793C11.2111 6.68945 12.9396 5.69336 13.0177 5.63477C12.0411 4.18945 10.5177 4.0332 9.99037 3.99414ZM17.8322 1.16211V16.3867H20.1954V11.1816H23.4669C26.4552 11.1816 28.5548 9.13086 28.5548 6.16211C28.5548 3.19336 26.4943 1.16211 23.5451 1.16211H17.8322ZM20.1954 3.1543H22.9201C24.9708 3.1543 26.1427 4.24805 26.1427 6.17188C26.1427 8.0957 24.9708 9.19922 22.9103 9.19922H20.1954V3.1543ZM32.8712 16.5039C34.3556 16.5039 35.7326 15.752 36.3576 14.5605H36.4064V16.3867H38.5939V8.80859C38.5939 6.61133 36.8361 5.19531 34.131 5.19531C31.6212 5.19531 29.7658 6.63086 29.6974 8.60352H31.8263C32.0021 7.66602 32.8712 7.05078 34.0626 7.05078C35.5079 7.05078 36.3185 7.72461 36.3185 8.96484V9.80469L33.3693 9.98047C30.6251 10.1465 29.1408 11.2695 29.1408 13.2227C29.1408 15.1953 30.674 16.5039 32.8712 16.5039ZM33.506 14.6973C32.2462 14.6973 31.4454 14.0918 31.4454 13.1641C31.4454 12.207 32.2169 11.6504 33.6915 11.5625L36.3185 11.3965V12.2559C36.3185 13.6816 35.1076 14.6973 33.506 14.6973ZM41.5138 20.5273C43.8185 20.5273 44.9025 19.6484 45.8497 16.9824L50.0001 5.3418H47.5978L44.8146 14.3359H44.7658L41.9826 5.3418H39.5119L43.5158 16.4258L43.3009 17.0996C42.9396 18.2422 42.3536 18.6816 41.3087 18.6816C41.1232 18.6816 40.7618 18.6621 40.6154 18.6426V20.4688C40.7521 20.5078 41.338 20.5273 41.5138 20.5273Z" fill="black"/>
</g>
<defs>
<clipPath id="clip0_38_578">
<rect width="50" height="20.5273" fill="white"/>
</clipPath>
</defs>
</svg>
