<svg width="45" height="29" viewBox="0 0 45 29" fill="none" xmlns="http://www.w3.org/2000/svg">
<path d="M0.153809 0.177734H44.8341V28.6225H0.165651L0.153809 0.177734Z" fill="white"/>
<path d="M44.6804 15.9988C44.6804 15.9988 32.4712 24.608 10.1133 28.4685H44.6804V15.9988Z" fill="#F48120"/>
<path d="M44.8342 0.0118428H0V28.7882H45V0H44.8342V0.0118428ZM44.6803 0.331579C44.6803 0.651316 44.6803 28.1368 44.6803 28.4566C44.3605 28.4566 0.651316 28.4566 0.331579 28.4566C0.331579 28.1368 0.331579 0.651316 0.331579 0.331579C0.651316 0.331579 44.3487 0.331579 44.6803 0.331579Z" fill="white"/>
<path d="M3.93148 8.81055H2.07227V15.3237H3.93148C4.91437 15.3237 5.6249 15.0869 6.25253 14.5777C6.99858 13.9619 7.43674 13.0382 7.43674 12.079C7.4249 10.1487 5.992 8.81055 3.93148 8.81055ZM5.42358 13.7132C5.02095 14.0684 4.51174 14.2342 3.68279 14.2342H3.33937V9.9237H3.68279C4.4999 9.9237 4.99727 10.0658 5.42358 10.4448C5.86174 10.8355 6.12227 11.4395 6.12227 12.0671C6.12227 12.6948 5.86174 13.3224 5.42358 13.7132Z" fill="black"/>
<path d="M9.28419 8.81055H8.01709V15.3237H9.28419V8.81055Z" fill="black"/>
<path d="M12.3869 11.3092C11.629 11.025 11.404 10.8356 11.404 10.4921C11.404 10.0777 11.8066 9.76977 12.3514 9.76977C12.7303 9.76977 13.05 9.92371 13.3698 10.3027L14.0329 9.43819C13.4882 8.96451 12.8369 8.71582 12.1145 8.71582C10.9658 8.71582 10.0777 9.52108 10.0777 10.5869C10.0777 11.4869 10.4921 11.9487 11.6764 12.375C12.1737 12.5527 12.4224 12.6711 12.5527 12.7421C12.8014 12.9079 12.9316 13.1448 12.9316 13.4171C12.9316 13.95 12.5171 14.3408 11.9487 14.3408C11.3448 14.3408 10.8593 14.0329 10.5632 13.4763L9.74609 14.2698C10.3264 15.1342 11.0369 15.5132 11.9961 15.5132C13.3106 15.5132 14.2461 14.6369 14.2461 13.3698C14.2698 12.3158 13.8316 11.8421 12.3869 11.3092Z" fill="black"/>
<path d="M14.6606 12.079C14.6606 13.9974 16.1646 15.4777 18.0949 15.4777C18.6396 15.4777 19.1133 15.3711 19.6817 15.0987V13.6066C19.1725 14.1158 18.7225 14.3171 18.1541 14.3171C16.8751 14.3171 15.9633 13.3935 15.9633 12.0671C15.9633 10.8119 16.8988 9.82898 18.0949 9.82898C18.6988 9.82898 19.1606 10.0421 19.6817 10.5632V9.07109C19.1251 8.78688 18.6633 8.66846 18.1185 8.66846C16.212 8.66846 14.6606 10.1842 14.6606 12.079Z" fill="black"/>
<path d="M29.7708 13.1921L28.0301 8.81055H26.6445L29.4037 15.4895H30.0906L32.8972 8.81055H31.5235L29.7708 13.1921Z" fill="black"/>
<path d="M33.4775 15.3237H37.0775V14.2224H34.7446V12.4698H36.9946V11.3684H34.7446V9.9237H37.0775V8.81055H33.4775V15.3237Z" fill="black"/>
<path d="M42.1106 10.7407C42.1106 9.52095 41.2698 8.82227 39.8014 8.82227H37.9185V15.3354H39.1856V12.7183H39.3513L41.104 15.3354H42.6671L40.6185 12.5881C41.5777 12.3867 42.1106 11.7354 42.1106 10.7407ZM39.5527 11.8183H39.1856V9.84069H39.5764C40.3698 9.84069 40.7961 10.1723 40.7961 10.8117C40.7961 11.4631 40.3698 11.8183 39.5527 11.8183Z" fill="black"/>
<path d="M23.5776 15.5606C25.4939 15.5606 27.0474 14.0071 27.0474 12.0908C27.0474 10.1745 25.4939 8.62109 23.5776 8.62109C21.6614 8.62109 20.1079 10.1745 20.1079 12.0908C20.1079 14.0071 21.6614 15.5606 23.5776 15.5606Z" fill="url(#paint0_linear_38_612)"/>
<path opacity="0.65" d="M23.5776 15.5606C25.4939 15.5606 27.0474 14.0071 27.0474 12.0908C27.0474 10.1745 25.4939 8.62109 23.5776 8.62109C21.6614 8.62109 20.1079 10.1745 20.1079 12.0908C20.1079 14.0071 21.6614 15.5606 23.5776 15.5606Z" fill="url(#paint1_linear_38_612)"/>
<path d="M42.9158 9.05922C42.9158 8.9408 42.8329 8.88159 42.7027 8.88159H42.5132V9.45001H42.6553V9.22501L42.8211 9.45001H42.9869L42.7974 9.21317C42.8684 9.20133 42.9158 9.14212 42.9158 9.05922ZM42.679 9.14212H42.6553V8.98817H42.679C42.75 8.98817 42.7856 9.01185 42.7856 9.05922C42.7856 9.11843 42.75 9.14212 42.679 9.14212Z" fill="black"/>
<path d="M42.7264 8.66846C42.454 8.66846 42.229 8.89346 42.229 9.16583C42.229 9.43819 42.454 9.66319 42.7264 9.66319C42.9987 9.66319 43.2237 9.43819 43.2237 9.16583C43.2237 8.89346 42.9987 8.66846 42.7264 8.66846ZM42.7264 9.5803C42.5132 9.5803 42.3237 9.40267 42.3237 9.16583C42.3237 8.94083 42.5014 8.75135 42.7264 8.75135C42.9395 8.75135 43.1172 8.94083 43.1172 9.16583C43.1172 9.39083 42.9395 9.5803 42.7264 9.5803Z" fill="black"/>
<defs>
<linearGradient id="paint0_linear_38_612" x1="25.351" y1="14.8674" x2="22.9525" y2="11.1121" gradientUnits="userSpaceOnUse">
<stop stop-color="#F89F20"/>
<stop offset="0.2502" stop-color="#F79A20"/>
<stop offset="0.5331" stop-color="#F68D20"/>
<stop offset="0.6196" stop-color="#F58720"/>
<stop offset="0.7232" stop-color="#F48120"/>
<stop offset="1" stop-color="#F37521"/>
</linearGradient>
<linearGradient id="paint1_linear_38_612" x1="24.9724" y1="14.8169" x2="21.4669" y2="7.96528" gradientUnits="userSpaceOnUse">
<stop stop-color="#F58720"/>
<stop offset="0.3587" stop-color="#E16F27"/>
<stop offset="0.703" stop-color="#D4602C"/>
<stop offset="0.9816" stop-color="#D05B2E"/>
</linearGradient>
</defs>
</svg>
