<svg width="125" height="46" viewBox="0 0 125 46" fill="none" xmlns="http://www.w3.org/2000/svg">
<rect width="125" height="45.0736" rx="5" fill="#003087"/>
<path d="M29.8886 13C29.6828 13 29.508 13.1494 29.4758 13.3529L27.0935 28.4606C27.0849 28.5158 27.0883 28.5722 27.1035 28.626C27.1187 28.6797 27.1454 28.7295 27.1817 28.772C27.218 28.8144 27.2631 28.8485 27.3138 28.8719C27.3646 28.8953 27.4198 28.9074 27.4756 28.9074H30.3008C30.5063 28.9074 30.6814 28.7577 30.7136 28.5545L31.4134 24.118C31.4453 23.9149 31.6204 23.7651 31.8262 23.7651H34.3948C37.396 23.7651 39.9436 21.5754 40.409 18.6082C40.8782 15.6158 38.5405 13.0065 35.2272 13H29.8886ZM32.635 16.3726H34.6901C36.382 16.3726 36.933 17.371 36.7588 18.475C36.5846 19.5814 35.7289 20.3963 34.0922 20.3963H32.0004L32.635 16.3726ZM46.155 17.3996C45.4416 17.4023 44.6208 17.5484 43.6992 17.9323C41.5854 18.8134 40.5702 20.6343 40.1391 21.9619C40.1391 21.9619 38.767 26.0122 41.8671 28.2374C41.8671 28.2374 44.7421 30.3796 47.9787 28.1054L47.9228 28.4606C47.9142 28.5158 47.9176 28.5721 47.9328 28.6258C47.948 28.6795 47.9746 28.7293 48.0108 28.7717C48.0471 28.8142 48.0921 28.8483 48.1427 28.8717C48.1934 28.8951 48.2485 28.9073 48.3043 28.9074H50.9863C51.1921 28.9074 51.3669 28.7577 51.3991 28.5545L53.0305 18.2087C53.0393 18.1535 53.036 18.0971 53.0208 18.0433C53.0057 17.9895 52.9791 17.9396 52.9428 17.8971C52.9065 17.8546 52.8615 17.8205 52.8108 17.797C52.7601 17.7736 52.7049 17.7614 52.649 17.7613H49.967C49.7612 17.7613 49.5861 17.911 49.5543 18.1142L49.4666 18.6711C49.4666 18.6711 48.2955 17.3916 46.155 17.3996ZM46.2427 20.6674C46.5507 20.6674 46.8324 20.7099 47.0852 20.7911C48.2423 21.1626 48.8984 22.2743 48.7086 23.4793C48.4744 24.9631 47.2576 26.0556 45.6971 26.0556C45.3894 26.0556 45.1077 26.0134 44.8546 25.9322C43.6978 25.5607 43.0375 24.449 43.2274 23.244C43.4615 21.7602 44.6822 20.6674 46.2427 20.6674Z" fill="white"/>
<path d="M68.5107 13C68.3049 13 68.1301 13.1494 68.0979 13.3529L65.7156 28.4606C65.707 28.5158 65.7104 28.5722 65.7256 28.626C65.7408 28.6797 65.7675 28.7295 65.8038 28.772C65.8401 28.8144 65.8852 28.8485 65.9359 28.8719C65.9866 28.8953 66.0418 28.9074 66.0977 28.9074H68.9229C69.1284 28.9074 69.3035 28.7577 69.3357 28.5545L70.0355 24.118C70.0674 23.9149 70.2425 23.7651 70.4483 23.7651H73.0169C76.0181 23.7651 78.5654 21.5754 79.0305 18.6082C79.5 15.6158 77.1626 13.0065 73.8493 13H68.5107ZM71.257 16.3726H73.3122C75.0041 16.3726 75.5551 17.371 75.3809 18.475C75.2067 19.5814 74.3512 20.3963 72.7142 20.3963H70.6225L71.257 16.3726ZM84.7768 17.3996C84.0634 17.4023 83.2426 17.5484 82.321 17.9323C80.2071 18.8134 79.192 20.6343 78.7609 21.9619C78.7609 21.9619 77.3893 26.0122 80.4894 28.2374C80.4894 28.2374 83.3639 30.3796 86.6007 28.1054L86.5449 28.4606C86.5363 28.5158 86.5397 28.5722 86.5549 28.626C86.5701 28.6797 86.5968 28.7295 86.6331 28.772C86.6694 28.8144 86.7145 28.8485 86.7652 28.8719C86.816 28.8953 86.8711 28.9074 86.927 28.9074H89.6087C89.8145 28.9074 89.9893 28.7577 90.0215 28.5545L91.6535 18.2087C91.6622 18.1534 91.6589 18.097 91.6437 18.0431C91.6286 17.9893 91.6019 17.9394 91.5656 17.8969C91.5293 17.8544 91.4841 17.8202 91.4334 17.7968C91.3826 17.7734 91.3273 17.7613 91.2714 17.7613H88.5894C88.3836 17.7613 88.2085 17.911 88.1766 18.1142L88.0889 18.6711C88.0889 18.6711 86.9173 17.3916 84.7768 17.3996ZM84.8645 20.6674C85.1725 20.6674 85.4542 20.7099 85.7069 20.7911C86.8641 21.1626 87.5202 22.2743 87.3304 23.4793C87.0962 24.9631 85.8794 26.0556 84.3188 26.0556C84.0112 26.0556 83.7295 26.0134 83.4764 25.9322C82.3195 25.5607 81.6593 24.449 81.8492 23.244C82.0833 21.7602 83.304 20.6674 84.8645 20.6674Z" fill="white"/>
<path d="M54.3033 17.7615C54.0907 17.7615 53.9395 17.9691 54.0045 18.1714L56.9448 27.2957L54.2862 31.5955C54.1571 31.8042 54.3071 32.0738 54.5525 32.0738H57.6948C57.7847 32.0737 57.873 32.0505 57.9513 32.0063C58.0295 31.9621 58.0951 31.8985 58.1416 31.8216L66.3535 18.2369C66.4796 18.0282 66.329 17.7612 66.0851 17.7612H62.9431C62.8523 17.7613 62.7631 17.785 62.6843 17.83C62.6055 17.875 62.5398 17.9397 62.4936 18.0178L59.2613 23.4751L57.6204 18.0583C57.567 17.882 57.4043 17.7612 57.2203 17.7612L54.3033 17.7615Z" fill="white"/>
<path d="M94.7008 13C94.4953 13 94.3202 13.1497 94.288 13.3529L91.9052 28.46C91.8964 28.5153 91.8997 28.5717 91.9149 28.6255C91.9301 28.6794 91.9568 28.7293 91.9931 28.7718C92.0294 28.8143 92.0745 28.8484 92.1253 28.8718C92.1761 28.8953 92.2313 28.9074 92.2872 28.9074H95.1124C95.3179 28.9074 95.493 28.7577 95.5252 28.5545L97.9075 13.4468C97.9162 13.3916 97.9128 13.3353 97.8976 13.2816C97.8824 13.2278 97.8558 13.1781 97.8195 13.1356C97.7833 13.0932 97.7383 13.0591 97.6876 13.0357C97.637 13.0123 97.5818 13.0001 97.526 13H94.7008Z" fill="white"/>
</svg>
