<svg width="20" height="25" viewBox="0 0 20 25" fill="none" xmlns="http://www.w3.org/2000/svg">
<g clip-path="url(#clip0_722_7361)">
<path d="M16.7226 13.1117C16.6966 10.0159 19.272 8.48108 19.3761 8.42905C17.9193 6.29586 15.656 6.0097 14.8756 5.98368C12.9765 5.77556 11.1295 7.12832 10.1669 7.12832C9.20438 7.12832 7.69553 6.0097 6.08263 6.03571C4.02748 6.06173 2.07639 7.2584 1.0358 9.10543C-1.14942 12.8775 0.489496 18.4447 2.57066 21.5144C3.61124 23.0232 4.83393 24.6882 6.44683 24.6361C8.00771 24.5841 8.60604 23.6476 10.4791 23.6476C12.3521 23.6476 12.8984 24.6361 14.5374 24.6101C16.2283 24.5841 17.2689 23.1013 18.2835 21.5924C19.5061 19.8755 19.9744 18.1845 20.0004 18.1065C19.9744 18.0544 16.7486 16.8318 16.7226 13.1117Z" fill="white"/>
<path d="M13.6268 3.95422C14.4593 2.88762 15.0576 1.45682 14.8755 0C13.6528 0.0520291 12.118 0.832466 11.2595 1.87305C10.479 2.78356 9.77665 4.26639 9.95875 5.67118C11.3635 5.80125 12.7683 4.9948 13.6268 3.95422Z" fill="white"/>
</g>
<defs>
<clipPath id="clip0_722_7361">
<rect width="20" height="24.6358" fill="white"/>
</clipPath>
</defs>
</svg>
