<svg width="36" height="36" viewBox="0 0 36 36" fill="none" xmlns="http://www.w3.org/2000/svg">
<path d="M18.4977 11.7948C19.9555 11.7937 21.3665 12.3088 22.4808 13.2488L25.6007 10.2768C24.4028 9.17215 22.9638 8.36195 21.3981 7.91047C19.8324 7.45899 18.183 7.37866 16.5808 7.67586C14.9786 7.97307 13.4677 8.63961 12.1681 9.62261C10.8685 10.6056 9.81584 11.878 9.09375 13.3388L12.6128 16.0508C13.023 14.8136 13.8122 13.7368 14.8684 12.973C15.9245 12.2091 17.1943 11.7969 18.4977 11.7948Z" fill="#D94F3D"/>
<path d="M12.2951 17.9979C12.2951 17.3359 12.4031 16.6779 12.6131 16.0509L9.09407 13.3389C8.37448 14.7865 8 16.3812 8 17.9979C8 19.6145 8.37448 21.2092 9.09407 22.6569L12.6131 19.9449C12.4034 19.3171 12.296 18.6597 12.2951 17.9979Z" fill="#F2C042"/>
<path d="M28.5669 16.0899H18.5459V20.3839H24.2239C23.8861 21.5979 23.1124 22.6447 22.0509 23.3239L25.5409 26.0159C27.7729 24.0139 29.0829 20.7589 28.5669 16.0899Z" fill="#5085ED"/>
<path d="M22.0497 23.3243C20.9706 23.942 19.7403 24.2458 18.4977 24.2013C17.1941 24.1994 15.9242 23.7873 14.8678 23.0234C13.8114 22.2596 13.0221 21.1827 12.6118 19.9453L9.09375 22.6573C9.96271 24.4093 11.3032 25.884 12.9646 26.9157C14.6259 27.9475 16.5421 28.4952 18.4977 28.4973C21.0707 28.5673 23.5788 27.6823 25.5398 26.0153L22.0497 23.3253V23.3243Z" fill="#57A75C"/>
</svg>
