<svg width="36" height="36" viewBox="0 0 36 36" fill="none" xmlns="http://www.w3.org/2000/svg">
<path d="M18 28.542C23.822 28.542 28.542 23.822 28.542 18C28.542 12.178 23.822 7.45801 18 7.45801C12.178 7.45801 7.45801 12.178 7.45801 18C7.45801 23.822 12.178 28.542 18 28.542Z" fill="#1877F2"/>
<path d="M22.1038 21.0472L22.5698 18.0002H19.6458V16.0232C19.6458 15.1892 20.0548 14.3762 21.3638 14.3762H22.6938V11.7822C21.9132 11.6559 21.1244 11.5871 20.3338 11.5762C17.9258 11.5762 16.3518 13.0362 16.3518 15.6782V18.0002H13.6748V21.0472H16.3518V28.4132C17.4428 28.5842 18.5548 28.5842 19.6458 28.4132V21.0472H22.1038Z" fill="white"/>
</svg>
