<svg width="25" height="24" viewBox="0 0 25 24" fill="none" xmlns="http://www.w3.org/2000/svg">
<g clip-path="url(#clip0_722_7692)">
<path d="M8.5 20L12.5 11" stroke="#727272" stroke-width="2" stroke-linecap="round" stroke-linejoin="round"/>
<path d="M11.2 14C11.637 15.263 12.63 16 13.75 16C15.821 16 17.5 14.446 17.5 12C17.5009 11.2698 17.3418 10.5483 17.0339 9.88621C16.7261 9.2241 16.277 8.63744 15.7182 8.16747C15.1593 7.69751 14.5044 7.35564 13.7993 7.1659C13.0942 6.97616 12.3561 6.94316 11.6369 7.0692C10.9177 7.19525 10.2348 7.47729 9.63623 7.89551C9.03768 8.31372 8.538 8.85795 8.1723 9.48994C7.8066 10.1219 7.58376 10.8264 7.51944 11.5537C7.45512 12.281 7.55088 13.0136 7.8 13.7" stroke="#727272" stroke-width="2" stroke-linecap="round" stroke-linejoin="round"/>
<path d="M12.5 21C17.4706 21 21.5 16.9706 21.5 12C21.5 7.02944 17.4706 3 12.5 3C7.52944 3 3.5 7.02944 3.5 12C3.5 16.9706 7.52944 21 12.5 21Z" stroke="#727272" stroke-width="2" stroke-linecap="round" stroke-linejoin="round"/>
</g>
<defs>
<clipPath id="clip0_722_7692">
<rect width="24" height="24" fill="white" transform="translate(0.5)"/>
</clipPath>
</defs>
</svg>
