<svg width="25" height="24" viewBox="0 0 25 24" fill="none" xmlns="http://www.w3.org/2000/svg">
<path d="M22.6623 5.65495C21.8989 5.99264 21.0893 6.21442 20.2603 6.31295C21.134 5.79038 21.788 4.96796 22.1003 3.99895C21.2803 4.48695 20.3813 4.82895 19.4443 5.01395C18.8149 4.34053 17.9807 3.89391 17.0713 3.74353C16.1618 3.59316 15.2282 3.74744 14.4156 4.1824C13.6029 4.61737 12.9567 5.30863 12.5774 6.14874C12.1981 6.98885 12.107 7.93073 12.3183 8.82795C10.6554 8.7446 9.02863 8.31247 7.54358 7.55961C6.05854 6.80675 4.74842 5.75 3.6983 4.45795C3.32659 5.0964 3.13125 5.82218 3.1323 6.56095C3.1323 8.01095 3.8703 9.29195 4.9923 10.042C4.32831 10.021 3.67893 9.84173 3.0983 9.51895V9.57095C3.0985 10.5367 3.43267 11.4726 4.04414 12.22C4.65562 12.9675 5.50678 13.4804 6.4533 13.672C5.83691 13.839 5.1906 13.8636 4.5633 13.7439C4.83016 14.5752 5.3503 15.3021 6.05089 15.8231C6.75147 16.344 7.59742 16.6327 8.4703 16.6489C7.60278 17.3303 6.60947 17.8339 5.54718 18.1311C4.48488 18.4283 3.37442 18.5132 2.2793 18.3809C4.19099 19.6104 6.41639 20.2631 8.6893 20.2609C16.3823 20.2609 20.5893 13.888 20.5893 8.36095C20.5893 8.18095 20.5843 7.99895 20.5763 7.82095C21.3952 7.22912 22.1019 6.49597 22.6633 5.65595L22.6623 5.65495Z" fill="#727272"/>
</svg>
