<svg width="100" height="17" viewBox="0 0 100 17" fill="none" xmlns="http://www.w3.org/2000/svg">
<path d="M8.60001 2.09833L10.1333 5.43166C10.2 5.63166 10.4 5.76499 10.6 5.83166L14.0667 6.36499C14.6667 6.36499 14.8667 7.03166 14.4667 7.43166L11.9333 10.0317C11.8 10.165 11.7333 10.4317 11.7333 10.6317L12.3333 14.2317C12.4 14.765 11.8667 15.2317 11.4 14.965L8.26667 13.2317C8.06667 13.0983 7.86667 13.0983 7.66667 13.2317L4.53334 14.965C4.06667 15.2317 3.46667 14.8317 3.60001 14.2317L4.20001 10.6317C4.26667 10.4317 4.13334 10.165 4.00001 10.0317L1.46667 7.43166C1.13334 7.03166 1.33334 6.36499 1.86667 6.29833L5.33334 5.76499C5.53334 5.76499 5.73334 5.56499 5.80001 5.36499L7.33334 2.03166C7.66667 1.56499 8.33334 1.56499 8.60001 2.09833Z" fill="black"/>
<path d="M29.6 2.09833L31.1333 5.43166C31.2 5.63166 31.4 5.76499 31.6 5.83166L35.0667 6.36499C35.6667 6.36499 35.8667 7.03166 35.4667 7.43166L32.9333 10.0317C32.8 10.165 32.7333 10.4317 32.7333 10.6317L33.3333 14.2317C33.4 14.765 32.8667 15.2317 32.4 14.965L29.2667 13.2317C29.0667 13.0983 28.8667 13.0983 28.6667 13.2317L25.5333 14.965C25.0667 15.2317 24.4667 14.8317 24.6 14.2317L25.2 10.6317C25.2667 10.4317 25.1333 10.165 25 10.0317L22.4667 7.43166C22.1333 7.03166 22.3333 6.36499 22.8667 6.29833L26.3333 5.76499C26.5333 5.76499 26.7333 5.56499 26.8 5.36499L28.3333 2.03166C28.6667 1.56499 29.3333 1.56499 29.6 2.09833Z" fill="black"/>
<path d="M50.6 2.09833L52.1333 5.43166C52.2 5.63166 52.4 5.76499 52.6 5.83166L56.0667 6.36499C56.6667 6.36499 56.8667 7.03166 56.4667 7.43166L53.9333 10.0317C53.8 10.165 53.7333 10.4317 53.7333 10.6317L54.3333 14.2317C54.4 14.765 53.8667 15.2317 53.4 14.965L50.2667 13.2317C50.0667 13.0983 49.8667 13.0983 49.6667 13.2317L46.5333 14.965C46.0667 15.2317 45.4667 14.8317 45.6 14.2317L46.2 10.6317C46.2667 10.4317 46.1333 10.165 46 10.0317L43.4667 7.43166C43.1333 7.03166 43.3333 6.36499 43.8667 6.29833L47.3333 5.76499C47.5333 5.76499 47.7333 5.56499 47.8 5.36499L49.3333 2.03166C49.6667 1.56499 50.3333 1.56499 50.6 2.09833Z" fill="black"/>
<path d="M71.6 2.09833L73.1333 5.43166C73.2 5.63166 73.4 5.76499 73.6 5.83166L77.0667 6.36499C77.6667 6.36499 77.8667 7.03166 77.4667 7.43166L74.9333 10.0317C74.8 10.165 74.7333 10.4317 74.7333 10.6317L75.3333 14.2317C75.4 14.765 74.8667 15.2317 74.4 14.965L71.2667 13.2317C71.0667 13.0983 70.8667 13.0983 70.6667 13.2317L67.5333 14.965C67.0667 15.2317 66.4667 14.8317 66.6 14.2317L67.2 10.6317C67.2667 10.4317 67.1333 10.165 67 10.0317L64.4667 7.43166C64.1333 7.03166 64.3333 6.36499 64.8667 6.29833L68.3333 5.76499C68.5333 5.76499 68.7333 5.56499 68.8 5.36499L70.3333 2.03166C70.6667 1.56499 71.3333 1.56499 71.6 2.09833Z" fill="black"/>
<path d="M92.6 2.09833L94.1333 5.43166C94.2 5.63166 94.4 5.76499 94.6 5.83166L98.0667 6.36499C98.6667 6.36499 98.8667 7.03166 98.4667 7.43166L95.9333 10.0317C95.8 10.165 95.7333 10.4317 95.7333 10.6317L96.3333 14.2317C96.4 14.765 95.8667 15.2317 95.4 14.965L92.2667 13.2317C92.0667 13.0983 91.8667 13.0983 91.6667 13.2317L88.5333 14.965C88.0667 15.2317 87.4667 14.8317 87.6 14.2317L88.2 10.6317C88.2667 10.4317 88.1333 10.165 88 10.0317L85.4667 7.43166C85.1333 7.03166 85.3333 6.36499 85.8667 6.29833L89.3333 5.76499C89.5333 5.76499 89.7333 5.56499 89.8 5.36499L91.3333 2.03166C91.6667 1.56499 92.3333 1.56499 92.6 2.09833Z" fill="black"/>
</svg>
