<svg width="100" height="16" viewBox="0 0 100 16" fill="none" xmlns="http://www.w3.org/2000/svg">
<path fill-rule="evenodd" clip-rule="evenodd" d="M100 0H0V16H100V0ZM10.1333 5.06667L8.6 1.73333C8.33333 1.2 7.66667 1.2 7.33333 1.66667L5.8 5C5.73333 5.2 5.53333 5.4 5.33333 5.4L1.86667 5.93333C1.33333 6 1.13333 6.66667 1.46667 7.06667L4 9.66667C4.13333 9.8 4.26667 10.0667 4.2 10.2667L3.6 13.8667C3.46667 14.4667 4.06667 14.8667 4.53333 14.6L7.66667 12.8667C7.86667 12.7333 8.06667 12.7333 8.26667 12.8667L11.4 14.6C11.8667 14.8667 12.4 14.4 12.3333 13.8667L11.7333 10.2667C11.7333 10.0667 11.8 9.8 11.9333 9.66667L14.4667 7.06667C14.8667 6.66667 14.6667 6 14.0667 6L10.6 5.46667C10.4 5.4 10.2 5.26667 10.1333 5.06667ZM29.6 1.73333L31.1333 5.06667C31.2 5.26667 31.4 5.4 31.6 5.46667L35.0667 6C35.6667 6 35.8667 6.66667 35.4667 7.06667L32.9333 9.66667C32.8 9.8 32.7333 10.0667 32.7333 10.2667L33.3333 13.8667C33.4 14.4 32.8667 14.8667 32.4 14.6L29.2667 12.8667C29.0667 12.7333 28.8667 12.7333 28.6667 12.8667L25.5333 14.6C25.0667 14.8667 24.4667 14.4667 24.6 13.8667L25.2 10.2667C25.2667 10.0667 25.1333 9.8 25 9.66667L22.4667 7.06667C22.1333 6.66667 22.3333 6 22.8667 5.93333L26.3333 5.4C26.5333 5.4 26.7333 5.2 26.8 5L28.3333 1.66667C28.6667 1.2 29.3333 1.2 29.6 1.73333ZM52.1333 5.06667L50.6 1.73333C50.3333 1.2 49.6667 1.2 49.3333 1.66667L47.8 5C47.7333 5.2 47.5333 5.4 47.3333 5.4L43.8667 5.93333C43.3333 6 43.1333 6.66667 43.4667 7.06667L46 9.66667C46.1333 9.8 46.2667 10.0667 46.2 10.2667L45.6 13.8667C45.4667 14.4667 46.0667 14.8667 46.5333 14.6L49.6667 12.8667C49.8667 12.7333 50.0667 12.7333 50.2667 12.8667L53.4 14.6C53.8667 14.8667 54.4 14.4 54.3333 13.8667L53.7333 10.2667C53.7333 10.0667 53.8 9.8 53.9333 9.66667L56.4667 7.06667C56.8667 6.66667 56.6667 6 56.0667 6L52.6 5.46667C52.4 5.4 52.2 5.26667 52.1333 5.06667ZM71.6 1.73333L73.1333 5.06667C73.2 5.26667 73.4 5.4 73.6 5.46667L77.0667 6C77.6667 6 77.8667 6.66667 77.4667 7.06667L74.9333 9.66667C74.8 9.8 74.7333 10.0667 74.7333 10.2667L75.3333 13.8667C75.4 14.4 74.8667 14.8667 74.4 14.6L71.2667 12.8667C71.0667 12.7333 70.8667 12.7333 70.6667 12.8667L67.5333 14.6C67.0667 14.8667 66.4667 14.4667 66.6 13.8667L67.2 10.2667C67.2667 10.0667 67.1333 9.8 67 9.66667L64.4667 7.06667C64.1333 6.66667 64.3333 6 64.8667 5.93333L68.3333 5.4C68.5333 5.4 68.7333 5.2 68.8 5L70.3333 1.66667C70.6667 1.2 71.3333 1.2 71.6 1.73333ZM94.1333 5.06667L92.6 1.73333C92.3333 1.2 91.6667 1.2 91.3333 1.66667L89.8 5C89.7333 5.2 89.5333 5.4 89.3333 5.4L85.8667 5.93333C85.3333 6 85.1333 6.66667 85.4667 7.06667L88 9.66667C88.1333 9.8 88.2667 10.0667 88.2 10.2667L87.6 13.8667C87.4667 14.4667 88.0667 14.8667 88.5333 14.6L91.6667 12.8667C91.8667 12.7333 92.0667 12.7333 92.2667 12.8667L95.4 14.6C95.8667 14.8667 96.4 14.4 96.3333 13.8667L95.7333 10.2667C95.7333 10.0667 95.8 9.8 95.9333 9.66667L98.4667 7.06667C98.8667 6.66667 98.6667 6 98.0667 6L94.6 5.46667C94.4 5.4 94.2 5.26667 94.1333 5.06667Z" fill="white"/>
</svg>
