<svg width="10" height="6" viewBox="0 0 10 6" fill="none" xmlns="http://www.w3.org/2000/svg">
<path d="M5.00097 4.61657C5.06156 4.54461 5.09565 4.49916 5.13731 4.4575C6.48184 3.11298 7.82636 1.76466 9.17468 0.423927C9.258 0.340604 9.37162 0.272431 9.48524 0.242132C9.65946 0.192896 9.84883 0.298943 9.93973 0.458013C10.0306 0.617084 10.0193 0.817815 9.90186 0.965524C9.86777 1.01097 9.82611 1.04885 9.78445 1.09051C8.32251 2.55244 6.86058 4.01438 5.39864 5.4801C5.11459 5.76415 4.88734 5.76415 4.60708 5.48389C3.12999 4.0068 1.6567 2.52972 0.179613 1.05642C0.0394789 0.916289 -0.0400562 0.761005 0.0205421 0.560273C0.11144 0.253494 0.475029 0.136085 0.728785 0.329242C0.774234 0.363328 0.812108 0.40499 0.853769 0.446651C2.19451 1.78739 3.53903 3.13191 4.87977 4.47265C4.91764 4.50674 4.94794 4.55219 5.00097 4.61657Z" fill="black"/>
</svg>
