<svg width="9" height="5" viewBox="0 0 9 5" fill="none" xmlns="http://www.w3.org/2000/svg">
<path d="M4.1558 3.87524C4.20616 3.81544 4.23449 3.77767 4.26911 3.74305C5.38641 2.62575 6.50371 1.5053 7.62416 0.39115C7.6934 0.321909 7.78782 0.265257 7.88224 0.240079C8.02701 0.199163 8.18438 0.287288 8.25992 0.419476C8.33545 0.551663 8.32601 0.718471 8.22844 0.841217C8.20012 0.878985 8.1655 0.910459 8.13088 0.945079C6.91601 2.15995 5.70114 3.37481 4.48627 4.59283C4.25022 4.82888 4.06138 4.82888 3.82848 4.59598C2.60103 3.36852 1.37672 2.14106 0.149258 0.916754C0.032807 0.800303 -0.0332867 0.671262 0.0170705 0.504454C0.0926063 0.24952 0.394749 0.151953 0.60562 0.312467C0.643388 0.340793 0.674862 0.375413 0.709482 0.410034C1.82364 1.52419 2.94094 2.64149 4.05509 3.75564C4.08656 3.78397 4.11174 3.82173 4.1558 3.87524Z" fill="#616161"/>
</svg>
