<svg width="14" height="14" viewBox="0 0 14 14" fill="none" xmlns="http://www.w3.org/2000/svg">
<path d="M0.995408 14.0002C0.916486 13.9712 0.83696 13.9437 0.758643 13.9131C0.306581 13.7363 0.00147722 13.2999 0.00117484 12.816C-0.000639457 10.8808 -3.46919e-05 8.94564 0.000872455 7.01045C0.000872455 6.59669 0.315652 6.28086 0.72145 6.28025C1.13511 6.27965 1.44686 6.59518 1.44717 7.02042C1.44807 8.79966 1.44747 10.5789 1.44747 12.3584C1.44747 12.4177 1.44747 12.4769 1.44747 12.5446H12.5525V12.376C12.5525 10.6118 12.5591 8.84741 12.5476 7.08328C12.5449 6.66167 12.7989 6.35249 13.1415 6.29023C13.5482 6.21618 13.8923 6.47005 13.9833 6.8282C13.9858 6.83727 13.9945 6.84452 14.0003 6.85268V13.0049C13.9882 13.0367 13.974 13.0675 13.9643 13.1001C13.8476 13.497 13.5984 13.7735 13.2141 13.9273C13.1454 13.9548 13.0744 13.976 13.0045 14.0002H0.995408Z" fill="black"/>
<path d="M7.72363 2.52501V2.70091C7.72363 5.25839 7.72393 7.81588 7.72332 10.3734C7.72332 10.7137 7.5177 10.9845 7.19597 11.0773C6.89177 11.1649 6.55613 11.0519 6.39859 10.7741C6.32571 10.6457 6.28217 10.4819 6.28157 10.3341C6.27461 7.7917 6.27673 5.24933 6.27673 2.70695C6.27673 2.64741 6.27673 2.58787 6.27673 2.49116C6.21776 2.54616 6.17966 2.58001 6.14338 2.61598C5.69525 3.06328 5.25165 3.51542 4.79778 3.95698C4.38865 4.35532 3.7473 4.20965 3.57857 3.68528C3.48271 3.38727 3.56799 3.13279 3.78479 2.91609C4.18636 2.51443 4.58822 2.11306 4.98979 1.7117C5.46604 1.23568 5.94199 0.759063 6.41885 0.28335C6.79683 -0.0935339 7.20323 -0.0953473 7.57848 0.279421C8.4569 1.1565 9.33623 2.03297 10.2116 2.91277C10.5739 3.27666 10.5319 3.80647 10.1288 4.06881C9.82821 4.26465 9.46989 4.22234 9.19472 3.95033C8.75173 3.5121 8.31206 3.07023 7.8724 2.62867C7.83369 2.58968 7.80406 2.54133 7.77019 2.4972C7.75447 2.50657 7.73905 2.51564 7.72332 2.52501H7.72363Z" fill="black"/>
</svg>
