<svg width="125" height="45" viewBox="0 0 125 45" fill="none" xmlns="http://www.w3.org/2000/svg">
<rect width="125" height="44.7947" rx="5" fill="#5A31F4"/>
<mask id="mask0_42_9733" style="mask-type:luminance" maskUnits="userSpaceOnUse" x="15" y="11" width="95" height="23">
<path d="M110 11H15V33.7947H110V11Z" fill="white"/>
</mask>
<g mask="url(#mask0_42_9733)">
<path d="M39.3377 18.1664C38.5759 16.5695 37.1314 15.5379 34.9547 15.5379C34.2866 15.5495 33.6301 15.7144 33.0358 16.0196C32.4416 16.3248 31.9254 16.7624 31.5272 17.2985L31.4477 17.3952V11.1364C31.4477 11.1002 31.4334 11.0655 31.4078 11.0399C31.3822 11.0144 31.3474 11 31.3112 11H28.2336C28.1979 11.0006 28.1638 11.0153 28.1387 11.0408C28.1136 11.0663 28.0996 11.1006 28.0996 11.1364V29.0896C28.0996 29.1251 28.1138 29.1591 28.1389 29.1842C28.164 29.2094 28.1981 29.2235 28.2336 29.2235H31.5296C31.5654 29.2235 31.5998 29.2095 31.6253 29.1844C31.6508 29.1593 31.6655 29.1253 31.6661 29.0896V21.4347C31.6661 19.9469 32.6589 18.893 34.2473 18.893C35.9847 18.893 36.424 20.3213 36.424 21.7769V29.0896C36.424 29.1251 36.4381 29.1591 36.4632 29.1842C36.4884 29.2094 36.5225 29.2235 36.558 29.2235H39.8465C39.8824 29.2235 39.9167 29.2095 39.9422 29.1844C39.9677 29.1593 39.9825 29.1253 39.9831 29.0896V21.3404C39.9831 21.0751 39.9831 20.8147 39.9484 20.5618C39.8918 19.733 39.685 18.9213 39.3377 18.1664Z" fill="white"/>
<path d="M22.8802 20.8271C22.8802 20.8271 21.2024 20.4329 20.5844 20.2742C19.9664 20.1155 18.8868 19.7782 18.8868 18.9624C18.8868 18.1466 19.7579 17.8862 20.6415 17.8862C21.5251 17.8862 22.5079 18.0994 22.5849 19.0789C22.588 19.1142 22.6042 19.1471 22.6304 19.171C22.6566 19.1948 22.6908 19.208 22.7263 19.2079L25.9752 19.1955C25.9943 19.1955 26.0132 19.1916 26.0307 19.1841C26.0483 19.1765 26.0641 19.1653 26.0771 19.1514C26.0902 19.1374 26.1002 19.1209 26.1065 19.1029C26.1129 19.0849 26.1155 19.0657 26.1141 19.0467C25.9131 15.9123 23.1606 14.7915 20.6216 14.7915C17.6111 14.7915 15.4096 16.7753 15.4096 18.9624C15.4096 20.5593 15.8613 22.0571 19.4129 23.0986C20.0359 23.2796 20.8823 23.5152 21.6219 23.721C22.5104 23.969 22.9894 24.3434 22.9894 24.9336C22.9894 25.618 21.9966 26.0941 21.0212 26.0941C19.609 26.0941 18.6063 25.5708 18.5244 24.631C18.5201 24.5966 18.5034 24.565 18.4773 24.5421C18.4512 24.5193 18.4176 24.5068 18.3829 24.507L15.1416 24.5219C15.1226 24.5219 15.1037 24.5257 15.0862 24.5331C15.0688 24.5406 15.0529 24.5514 15.0397 24.5651C15.0265 24.5787 15.0162 24.5949 15.0094 24.6126C15.0026 24.6304 14.9994 24.6493 15.0001 24.6682C15.149 27.6265 18.0082 29.221 20.6738 29.221C24.6449 29.221 26.4393 26.9893 26.4393 24.8989C26.4443 23.9169 26.2184 21.6802 22.8802 20.8271Z" fill="white"/>
<path d="M64.6754 15.5328C63.0252 15.5328 61.6426 16.4453 60.7515 17.5463V15.6617C60.7515 15.6266 60.7377 15.5929 60.713 15.5679C60.6888 15.5428 60.6552 15.5284 60.6199 15.5278H57.5376C57.5021 15.5278 57.4678 15.5419 57.4427 15.567C57.4176 15.5921 57.4033 15.6262 57.4033 15.6617V33.2677C57.4042 33.3027 57.4187 33.3363 57.4438 33.3608C57.4689 33.3854 57.5026 33.3992 57.5376 33.3992H60.836C60.8708 33.3992 60.9043 33.3854 60.9289 33.3608C60.9536 33.3361 60.9674 33.3025 60.9674 33.2677V27.4801H61.0171C61.5407 28.2785 62.9728 29.2357 64.8444 29.2357C68.3634 29.2357 71.2973 26.3196 71.2973 22.3793C71.2999 18.5977 68.381 15.5328 64.6754 15.5328ZM64.3702 25.8807C63.6757 25.8979 62.9911 25.7079 62.4051 25.335C61.819 24.962 61.3571 24.423 61.0788 23.7867C60.8006 23.1504 60.7183 22.4458 60.8429 21.7626C60.967 21.0794 61.2924 20.4488 61.777 19.9512C62.2618 19.4535 62.8839 19.1114 63.5641 18.9686C64.2441 18.8258 64.9514 18.8886 65.5955 19.1492C66.2398 19.4097 66.7915 19.8562 67.1808 20.4315C67.5699 21.0068 67.7785 21.6849 67.7805 22.3793C67.7875 22.8332 67.7048 23.284 67.5373 23.7059C67.3698 24.1279 67.1203 24.5125 66.8034 24.8379C66.4867 25.1632 66.1087 25.4228 65.6908 25.6017C65.2733 25.7807 64.8246 25.8755 64.3702 25.8807Z" fill="white"/>
<path d="M47.6424 14.7593C44.5673 14.7593 43.0335 15.8032 41.8023 16.6389L41.7651 16.6637C41.7017 16.7071 41.657 16.7729 41.6399 16.8478C41.6229 16.9228 41.6348 17.0013 41.6733 17.0679L42.8894 19.1608C42.9122 19.1999 42.9435 19.2336 42.9807 19.2593C43.0181 19.285 43.0606 19.3022 43.1055 19.3096C43.1492 19.3175 43.1941 19.3155 43.237 19.304C43.28 19.2924 43.3198 19.2715 43.3537 19.2426L43.4503 19.1633C44.0832 18.6326 45.0983 17.9234 47.5555 17.73C48.923 17.6209 50.1045 17.9779 50.9755 18.7913C51.9336 19.6741 52.5071 21.0999 52.5071 22.6051C52.5071 25.375 50.8738 27.1157 48.2505 27.1504C46.0886 27.138 44.6366 26.0123 44.6366 24.3484C44.6366 23.4656 45.0363 22.8903 45.8157 22.315C45.8751 22.2725 45.9172 22.2099 45.9341 22.1388C45.9511 22.0677 45.9416 21.9928 45.9075 21.9281L44.8153 19.865C44.7953 19.8281 44.768 19.7955 44.7352 19.7691C44.7024 19.7427 44.6648 19.7231 44.6243 19.7113C44.5829 19.699 44.5396 19.6955 44.4969 19.701C44.454 19.7066 44.4128 19.7211 44.3761 19.7435C43.1501 20.4701 41.646 21.7992 41.7279 24.3533C41.8271 27.6042 44.5325 30.0864 48.0493 30.1881H48.2256H48.4663C52.6457 30.0517 55.6638 26.9521 55.6638 22.749C55.6638 18.8905 52.8493 14.7593 47.6424 14.7593Z" fill="white"/>
<path d="M84.2954 16.7432H82.2004C82.1515 16.7438 82.1044 16.7636 82.0697 16.7983C82.0347 16.8331 82.0149 16.88 82.0146 16.9291V21.3207C82.0149 21.3696 82.0349 21.4163 82.0699 21.4506C82.1047 21.4849 82.1515 21.5042 82.2004 21.5042H84.2954C85.571 21.5042 86.5118 20.4999 86.5118 19.1237C86.5118 17.7474 85.571 16.7432 84.2954 16.7432Z" fill="white"/>
<path d="M90.731 24.5118C90.731 25.1491 91.2694 25.5037 92.2076 25.5037C93.4833 25.5037 94.2376 24.8144 94.2376 23.5918V23.2397L92.3268 23.3389C91.319 23.3885 90.731 23.8076 90.731 24.5118Z" fill="white"/>
<path d="M106.243 11.0396H78.0981C77.6367 11.0396 77.1792 11.1305 76.7529 11.3071C76.3262 11.4837 75.9387 11.7426 75.6125 12.0689C75.286 12.3952 75.0272 12.7826 74.8507 13.2089C74.674 13.6352 74.5835 14.092 74.584 14.5533V29.9474C74.584 30.8789 74.9541 31.7723 75.6132 32.4312C76.2723 33.0901 77.1662 33.4605 78.0981 33.4612H106.243C106.706 33.4625 107.164 33.3728 107.591 33.1971C108.019 33.0215 108.407 32.7632 108.735 32.4373C109.062 32.1114 109.322 31.7242 109.5 31.2978C109.678 30.8714 109.769 30.4143 109.77 29.9524V14.5583C109.771 14.0955 109.681 13.6371 109.504 13.2094C109.327 12.7818 109.067 12.3932 108.739 12.0662C108.411 11.7392 108.022 11.4802 107.594 11.304C107.166 11.1278 106.707 11.0379 106.243 11.0396ZM84.4022 23.2324H82.1884C82.1391 23.2324 82.092 23.252 82.0568 23.2868C82.022 23.3217 82.0022 23.369 82.0022 23.4184V26.5676C82.0022 26.6169 81.9826 26.6642 81.9479 26.6991C81.9129 26.734 81.8656 26.7536 81.8163 26.7536H80.2574C80.2085 26.7529 80.1612 26.7331 80.1264 26.6984C80.0917 26.6637 80.0723 26.6167 80.0714 26.5676V15.208C80.0714 15.1587 80.091 15.1114 80.1262 15.0765C80.161 15.0416 80.2081 15.022 80.2574 15.022H84.4022C86.7502 15.022 88.4304 16.7305 88.4304 19.1284C88.4304 21.5263 86.7626 23.2373 84.415 23.2373L84.4022 23.2324ZM96.0674 26.5651C96.0678 26.5897 96.0634 26.6142 96.0539 26.637C96.0447 26.6599 96.0311 26.6807 96.0139 26.6982C95.9963 26.7158 95.9758 26.7297 95.9529 26.7392C95.9305 26.7487 95.9058 26.7536 95.8812 26.7536H94.4094C94.3848 26.7536 94.3604 26.7487 94.3377 26.7392C94.3148 26.7297 94.2941 26.7158 94.277 26.6982C94.2598 26.6807 94.2459 26.6599 94.2369 26.637C94.2277 26.6142 94.223 26.5897 94.2235 26.5651V26.2254C94.2257 26.1956 94.2186 26.1658 94.2026 26.1404C94.187 26.1151 94.1634 26.0955 94.1352 26.0846C94.1075 26.0737 94.0769 26.0722 94.0481 26.0801C94.0188 26.088 93.9935 26.1051 93.9753 26.1287C93.5358 26.6073 92.821 26.9544 91.6818 26.9544C90.0043 26.9544 88.8945 26.0816 88.8945 24.5739C88.8784 24.2063 88.9544 23.8404 89.1157 23.5096C89.2767 23.1788 89.5184 22.8934 89.8181 22.6794C90.4235 22.2256 91.3616 21.99 92.7539 21.9355L94.2305 21.8859V21.4544C94.2305 20.584 93.6449 20.2145 92.7042 20.2145C91.7636 20.2145 91.1704 20.5468 91.0317 21.0899C91.0205 21.1282 90.997 21.1618 90.9644 21.1852C90.9323 21.2086 90.8929 21.2204 90.8528 21.2188H89.396C89.3692 21.2195 89.3425 21.2143 89.3179 21.2036C89.2937 21.1929 89.2715 21.1769 89.2536 21.1568C89.236 21.1367 89.2228 21.113 89.2153 21.0873C89.2076 21.0616 89.2057 21.0346 89.2098 21.0081C89.4284 19.7186 90.4954 18.7391 92.7715 18.7391C95.1889 18.7391 96.0599 19.8624 96.0599 22.0074L96.0674 26.5651ZM105.236 19.1954L101.96 27.9265C101.215 29.9549 99.9118 30.4756 98.4847 30.4756C98.216 30.4822 97.9476 30.4496 97.6881 30.3789C97.6476 30.3681 97.6122 30.3442 97.5862 30.311C97.5609 30.2779 97.5471 30.2373 97.5466 30.1954V28.8688C97.5466 28.841 97.5525 28.8136 97.5642 28.7884C97.5761 28.7633 97.593 28.741 97.6144 28.7232C97.636 28.7055 97.6608 28.6926 97.6877 28.6857C97.7145 28.6787 97.7427 28.6777 97.77 28.6828C97.9951 28.7254 98.2235 28.747 98.4526 28.7473C98.8472 28.767 99.2371 28.6539 99.5599 28.4259C99.8823 28.198 100.119 27.8684 100.232 27.49L100.329 27.185C100.344 27.1442 100.344 27.0994 100.329 27.0586L97.266 19.1979C97.2568 19.1698 97.2541 19.1398 97.2585 19.1105C97.2632 19.0812 97.2744 19.0534 97.2911 19.0292C97.3085 19.0051 97.3312 18.9853 97.3574 18.9715C97.3835 18.9577 97.4128 18.9503 97.4423 18.9499H98.9317C98.9697 18.9503 99.0067 18.962 99.0382 18.9837C99.0696 19.0053 99.0939 19.0359 99.1077 19.0714L101.188 24.6161C101.202 24.6523 101.226 24.6835 101.258 24.7055C101.29 24.7275 101.327 24.7393 101.366 24.7393C101.405 24.7393 101.443 24.7275 101.475 24.7055C101.507 24.6835 101.531 24.6523 101.545 24.6161L103.35 19.0863C103.361 19.0486 103.385 19.0157 103.418 18.9925C103.45 18.9693 103.488 18.957 103.528 18.9573H105.055C105.084 18.9572 105.113 18.9641 105.14 18.9772C105.166 18.9904 105.189 19.0096 105.206 19.0332C105.224 19.0568 105.236 19.0843 105.241 19.1133C105.246 19.1423 105.244 19.1721 105.236 19.2003V19.1954Z" fill="white"/>
</g>
</svg>
