<svg width="14" height="16" viewBox="0 0 14 16" fill="none" xmlns="http://www.w3.org/2000/svg">
<path d="M6.99963 0.743492C8.96779 0.743492 10.936 0.743492 12.9041 0.743492C13.5947 0.743492 13.9992 1.14504 13.9992 1.83557C13.9992 4.70112 13.9992 7.56363 13.9992 10.4292C13.9992 11.1136 14.0023 11.795 13.9962 12.4795C13.9962 12.6194 13.9871 12.7654 13.9506 12.8993C13.838 13.3434 13.4791 13.6172 13.0197 13.6172C11.6904 13.6172 10.358 13.6202 9.02863 13.6141C8.89783 13.6141 8.81569 13.6567 8.73356 13.751C8.28639 14.2712 7.79663 14.7427 7.23994 15.1473C7.03005 15.2994 6.95095 15.2964 6.74106 15.1382C6.18437 14.7214 5.67332 14.256 5.22919 13.7176C5.16531 13.6385 5.09534 13.6141 4.99496 13.6141C3.68386 13.6172 2.37276 13.602 1.06471 13.6233C0.526277 13.6324 -0.00302894 13.2461 1.30493e-05 12.5616C0.00913901 9.3797 0.00609716 6.19473 0.00609716 3.01282C0.00609716 2.60215 0.00305518 2.19148 0.00609716 1.78385C0.0121811 1.14199 0.407639 0.743492 1.0495 0.743492C3.03287 0.74045 5.01625 0.74045 6.99963 0.743492C6.99963 0.74045 6.99963 0.74045 6.99963 0.743492ZM5.00104 1.3671C4.95237 1.36102 4.92499 1.35797 4.89457 1.35797C3.60477 1.35797 2.31497 1.35797 1.02212 1.35797C0.748342 1.35797 0.620579 1.49791 0.620579 1.77777C0.620579 5.37644 0.620579 8.97511 0.620579 12.5738C0.620579 12.881 0.748342 13.0088 1.05254 13.0088C2.20545 13.0088 3.36141 13.0088 4.51432 13.0088C4.56299 13.0088 4.60862 13.0027 4.64209 13.0027C4.45652 12.6285 4.25271 12.2726 4.10061 11.8985C3.79033 11.1349 3.68082 10.347 3.89072 9.53179C4.28922 7.99559 5.82542 6.91264 7.51372 7.1773C9.27199 7.45412 10.4736 9.14242 10.1755 10.9402C10.0599 11.6429 9.78 12.2787 9.39975 12.8749C9.37542 12.9114 9.36021 12.951 9.32979 13.0088C9.39975 13.0088 9.44843 13.0088 9.4971 13.0088C10.6409 13.0088 11.7847 13.0088 12.9285 13.0088C13.2631 13.0088 13.3817 12.8932 13.3817 12.5525C13.3817 8.96903 13.3817 5.38557 13.3817 1.8021C13.3817 1.46444 13.2783 1.35797 12.9406 1.35797C11.6843 1.35797 10.431 1.35797 9.17465 1.35797C9.11989 1.35797 9.06514 1.35797 8.99821 1.35797C8.99821 1.44011 8.99821 1.50095 8.99821 1.55875C8.99821 2.73904 8.99821 3.91629 8.99821 5.09658C8.99821 5.44336 8.7731 5.57721 8.46282 5.41294C8.01565 5.17871 7.56544 4.94448 7.12131 4.7072C7.03613 4.66157 6.97225 4.65853 6.88403 4.70416C6.44294 4.94144 5.99881 5.16958 5.55468 5.40078C5.21702 5.57721 5.00104 5.44945 5.00104 5.0692C5.00104 3.89499 5.00104 2.72078 5.00104 1.54658C5.00104 1.48878 5.00104 1.43098 5.00104 1.3671ZM6.99963 14.5663C7.11522 14.472 7.22473 14.3838 7.3312 14.2925C8.1282 13.5989 8.81265 12.8141 9.25678 11.8437C9.52752 11.2475 9.66441 10.6208 9.57011 9.97288C9.35108 8.45493 7.89093 7.46629 6.40035 7.8222C5.08622 8.13552 4.22533 9.36449 4.43523 10.7912C4.53257 11.4422 4.7881 12.0262 5.14097 12.5738C5.63986 13.3464 6.27868 13.9883 6.99963 14.5663ZM8.36548 1.37623C7.44984 1.37623 6.54333 1.37623 5.63377 1.37623C5.63377 2.47438 5.63377 3.56037 5.63377 4.66766C6.02619 4.4608 6.4034 4.26916 6.77756 4.06839C6.92966 3.98625 7.06655 3.98625 7.22169 4.07143C7.51676 4.23569 7.82096 4.38779 8.11908 4.54293C8.19817 4.58248 8.27726 4.62203 8.36548 4.66766C8.36548 3.55733 8.36548 2.47134 8.36548 1.37623Z" fill="white"/>
<path d="M5.77984 10.35C5.78592 9.64121 6.32435 9.11799 7.04226 9.12408C7.68412 9.13016 8.23776 9.70814 8.22559 10.3622C8.21343 11.0375 7.66587 11.582 7.00271 11.5759C6.31218 11.5637 5.77375 11.0223 5.77984 10.35ZM7.60807 10.3257C7.60503 10.0002 7.33733 9.72943 7.01184 9.72639C6.65897 9.72335 6.38519 9.99408 6.38519 10.3439C6.38519 10.6877 6.65897 10.9614 6.99967 10.9584C7.3495 10.9614 7.61111 10.6846 7.60807 10.3257Z" fill="white"/>
</svg>
