<svg width="16" height="12" viewBox="0 0 16 12" fill="none" xmlns="http://www.w3.org/2000/svg">
<path d="M8.00626 0.482114C10.3563 0.482114 12.71 0.482114 15.06 0.482114C15.3265 0.482114 15.5744 0.519122 15.7705 0.722667C15.9556 0.911408 16 1.14826 16 1.40361C16 3.77213 16 6.14435 16 8.51286C16 9.20861 16 9.90436 16 10.6001C16 11.2219 15.6928 11.5253 15.0674 11.5253C10.4007 11.5253 5.73767 11.5253 1.07095 11.5253C1.01544 11.5253 0.959926 11.5253 0.904414 11.5253C0.315986 11.5179 0.00511818 11.207 0.00511818 10.6186C0.00511818 8.03916 0.00511818 5.4597 0.00511818 2.88024C0.00511818 2.39913 0.0199215 1.91803 0.00141743 1.44062C-0.0244882 0.859596 0.304883 0.467311 0.974729 0.474712C3.31734 0.489516 5.66365 0.482114 8.00626 0.482114ZM15.3079 1.62196C15.208 1.71448 15.1303 1.7811 15.0563 1.85141C13.0209 3.76843 10.9891 5.68175 8.95367 7.59876C8.33563 8.17979 7.67319 8.17979 7.05885 7.59876C4.9901 5.65954 2.92505 3.71292 0.856303 1.76999C0.808193 1.72558 0.760083 1.68488 0.70087 1.63677C0.70087 4.52709 0.70087 7.39522 0.70087 10.2929C0.756382 10.2374 0.789689 10.2004 0.822996 10.1634C1.65938 9.23452 2.49576 8.30562 3.33214 7.38042C3.68002 6.99553 4.02419 6.61065 4.37207 6.22946C4.5016 6.08513 4.67554 6.05553 4.81987 6.14435C4.9679 6.23317 5.00861 6.3701 4.9679 6.52553C4.94569 6.60325 4.88648 6.67726 4.83097 6.74018C3.65781 8.04286 2.48096 9.34554 1.3078 10.6482C1.25969 10.7 1.21528 10.7556 1.15607 10.8259C5.73396 10.8259 10.2786 10.8259 14.8602 10.8259C14.7824 10.7407 14.7269 10.6741 14.6714 10.6149C13.502 9.31594 12.3288 8.02065 11.1593 6.72167C10.9891 6.53293 10.9817 6.32198 11.1371 6.18505C11.2926 6.04812 11.4961 6.07773 11.6701 6.27017C12.6064 7.3064 13.539 8.34633 14.4753 9.38255C14.7454 9.68232 15.0156 9.97838 15.3117 10.3041C15.3079 7.39152 15.3079 4.52709 15.3079 1.62196ZM1.26339 1.16676C1.25229 1.17787 1.24489 1.19267 1.23379 1.20377C1.2819 1.24078 1.33001 1.27409 1.37072 1.31109C2.6808 2.54346 3.98719 3.77583 5.29727 5.0045C6.06334 5.72616 6.8294 6.44781 7.59917 7.16577C7.85083 7.40262 8.15059 7.39522 8.40965 7.16947C8.46516 7.12136 8.52067 7.06955 8.57248 7.01774C10.5894 5.11922 12.6064 3.22071 14.6233 1.3222C14.6714 1.27779 14.7306 1.24818 14.7861 1.21487C14.7713 1.19637 14.7602 1.18157 14.7454 1.16306C10.2489 1.16676 5.75617 1.16676 1.26339 1.16676Z" fill="white"/>
</svg>
