<svg width="15" height="16" viewBox="0 0 15 16" fill="none" xmlns="http://www.w3.org/2000/svg">
<path d="M11.561 15.4963C10.4542 15.4798 9.5457 15.166 8.67021 14.7489C7.17113 14.0344 5.85789 13.0516 4.64789 11.92C3.25205 10.6192 2.02966 9.17377 1.09635 7.49712C0.621437 6.6464 0.237375 5.75851 0.0721874 4.79217C-0.0269252 4.21814 -0.0517034 3.63585 0.179559 3.0866C0.282802 2.84295 0.427341 2.60756 0.609047 2.41759C1.117 1.8766 1.65386 1.36039 2.18246 0.835921C2.62847 0.394044 3.24379 0.389915 3.6898 0.831792C4.42488 1.55862 5.15171 2.28957 5.87854 3.02053C6.31215 3.45828 6.31215 4.06947 5.88267 4.51548C5.67205 4.73435 5.46557 4.96148 5.2343 5.15971C4.89567 5.44466 4.84611 5.79568 4.93697 6.19626C5.06086 6.73312 5.30451 7.21217 5.61423 7.6623C6.36584 8.75667 7.29915 9.65281 8.48437 10.264C8.83953 10.4457 9.2112 10.5861 9.61591 10.6026C9.87195 10.615 10.0867 10.5407 10.2684 10.3466C10.4955 10.0988 10.7392 9.86756 10.9787 9.63217C11.4247 9.19029 12.04 9.18616 12.4819 9.62391C13.2129 10.3507 13.9438 11.0817 14.6706 11.8126C15.1125 12.2545 15.1084 12.874 14.6665 13.32C14.1544 13.8362 13.6424 14.3524 13.122 14.8604C12.6554 15.3146 12.0896 15.5128 11.561 15.4963ZM4.76352 5.01517C3.73522 3.98688 2.71106 2.96271 1.68277 1.93442C1.43912 2.17807 1.18307 2.43824 0.922904 2.69841C0.720549 2.90077 0.584269 3.14029 0.514064 3.41698C0.386044 3.91254 0.431471 4.41224 0.534713 4.90367C0.724679 5.79981 1.09222 6.62988 1.55475 7.41452C3.17359 10.169 5.36232 12.3578 8.12509 13.9642C9.04601 14.5011 10.0206 14.9223 11.0985 15.0421C11.5982 15.0958 12.1102 15.0916 12.5273 14.7819C12.9114 14.4969 13.2418 14.1335 13.5804 13.8155C12.5356 12.7707 11.5156 11.7507 10.4914 10.7265C10.1156 11.0569 9.72741 11.0817 9.33096 10.9991C9.0171 10.9289 8.69912 10.8422 8.40591 10.7059C7.2785 10.1814 6.37823 9.36787 5.61011 8.40565C5.14758 7.82749 4.75526 7.19978 4.55703 6.47708C4.42075 5.94848 4.37533 5.43227 4.76352 5.01517ZM5.12693 4.67241C5.2756 4.51961 5.43253 4.36268 5.5812 4.20575C5.82898 3.94145 5.82898 3.59456 5.57294 3.33439C5.38297 3.14029 5.18888 2.94619 4.99478 2.7521C4.45379 2.21111 3.91693 1.67012 3.37594 1.13326C3.13642 0.893737 2.80191 0.8607 2.56652 1.06718C2.37656 1.23237 2.2155 1.42647 2.05031 1.59991C3.06621 2.61169 4.08625 3.63172 5.12693 4.67241ZM13.9232 13.4687C14.0636 13.3241 14.204 13.1754 14.3485 13.0268C14.6376 12.7294 14.6376 12.3908 14.3485 12.0976C14.0553 11.8003 13.758 11.507 13.4607 11.2097C13.0353 10.7844 12.6099 10.3549 12.1804 9.9295C11.9368 9.68998 11.5982 9.65694 11.3545 9.86756C11.1687 10.0286 11.0076 10.2186 10.8466 10.3879C11.8625 11.4079 12.8825 12.428 13.9232 13.4687Z" fill="white"/>
<path d="M7.71191 1.57524C7.71191 1.4307 7.71191 1.29855 7.71191 1.17053C11.3254 1.07554 14.4351 4.26367 14.3277 7.79042C14.1997 7.79042 14.0758 7.79042 13.9271 7.79042C13.8941 6.09312 13.3035 4.61469 12.0976 3.40882C10.8959 2.20295 9.42574 1.6124 7.71191 1.57524Z" fill="white"/>
<path d="M12.5519 7.78643C12.4198 7.78643 12.2876 7.78643 12.1472 7.78643C12.1224 6.56405 11.6971 5.51097 10.834 4.652C9.97499 3.79715 8.92604 3.37592 7.71191 3.34701C7.71191 3.20661 7.71191 3.07446 7.71191 2.9423C10.3054 2.85558 12.6428 5.16821 12.5519 7.78643Z" fill="white"/>
<path d="M10.7844 7.97604C10.6523 7.97604 10.5201 7.97604 10.3756 7.97604C10.3508 7.24922 10.103 6.61738 9.59092 6.10116C9.07471 5.58495 8.447 5.32891 7.71191 5.31239C7.71191 5.16785 7.71191 5.0357 7.71191 4.90355C9.24816 4.82509 10.8381 6.21679 10.7844 7.97604Z" fill="white"/>
</svg>
