<svg width="13" height="16" viewBox="0 0 13 16" fill="none" xmlns="http://www.w3.org/2000/svg">
<path d="M6.74635 15.0885C6.44694 15.0259 6.16093 14.9321 5.91068 14.7444C5.29844 14.2886 5.04819 13.511 5.29397 12.8004C5.54423 12.081 6.2235 11.6117 6.99661 11.6296C7.7295 11.6475 8.39089 12.1614 8.60092 12.8809C8.61433 12.9211 8.62327 12.9613 8.63668 13.0015C9.29807 13.1356 10.4957 12.5368 10.889 11.862C10.7683 11.862 10.6611 11.862 10.5538 11.862C10.308 11.8575 10.1829 11.7324 10.1829 11.4821C10.1829 10.07 10.1829 8.65781 10.1829 7.24565C10.1829 7.15627 10.2008 7.06243 10.2321 6.97752C10.2812 6.84792 10.3795 6.77195 10.5315 6.77642C10.6432 6.78089 10.7504 6.77642 10.8532 6.77642C10.8666 6.75408 10.8756 6.74961 10.8756 6.74067C10.9292 5.69049 10.8711 4.65819 10.2902 3.7376C9.36957 2.27182 8.04232 1.53446 6.3084 1.63724C4.23932 1.7579 2.59479 3.30412 2.32666 5.34639C2.26409 5.81115 2.28644 6.28485 2.26856 6.77642C2.39816 6.77642 2.50094 6.77642 2.60372 6.77642C2.81823 6.77642 2.94336 6.88814 2.97464 7.10265C2.98358 7.16521 2.98358 7.23225 2.98358 7.29481C2.98358 8.68462 2.98358 10.0744 2.98358 11.4598C2.98358 11.7413 2.86739 11.8575 2.59032 11.8575C2.16131 11.8575 1.7323 11.8709 1.30329 11.8486C0.601678 11.8173 0.0296654 11.2542 0.01179 10.5571C-0.00608542 9.74821 -0.00161657 8.94382 0.01179 8.13495C0.0251966 7.45569 0.597209 6.74067 1.43735 6.77642C1.47757 6.77642 1.51779 6.77642 1.58483 6.77642C1.58483 6.70939 1.58483 6.6513 1.58483 6.5932C1.58929 6.05247 1.55801 5.51174 1.6742 4.97994C2.04065 3.2505 3.0238 1.99922 4.65046 1.31102C7.37646 0.158051 10.4466 1.59255 11.3537 4.40346C11.5325 4.95313 11.5951 5.52068 11.5906 6.09269C11.5906 6.31166 11.5906 6.53511 11.5906 6.76749C11.8721 6.77195 12.1179 6.85239 12.3279 7.02668C12.7301 7.3529 12.9625 7.78192 12.9804 8.29136C13.0072 9.07788 13.0027 9.86887 12.9893 10.6599C12.9804 11.2542 12.6095 11.6832 12.0196 11.7815C11.814 11.8173 11.7023 11.9067 11.5951 12.072C11.0588 12.9122 10.2991 13.435 9.32488 13.6316C9.10591 13.6763 8.87799 13.6897 8.64115 13.7166C8.53836 14.2573 8.22554 14.655 7.72503 14.8919C7.54181 14.9812 7.33624 15.0215 7.13961 15.084C7.00555 15.0885 6.87595 15.0885 6.74635 15.0885ZM2.28197 7.47356C2.00937 7.47356 1.75017 7.47356 1.49098 7.47356C1.01281 7.47356 0.7134 7.76404 0.708931 8.24221C0.704462 8.98851 0.704462 9.7348 0.708931 10.4811C0.708931 10.8565 0.999407 11.147 1.37479 11.1559C1.64739 11.1604 1.91999 11.1559 2.19259 11.1559C2.22387 11.1559 2.25515 11.147 2.28197 11.1425C2.28197 9.9225 2.28197 8.70697 2.28197 7.47356ZM10.8934 11.1559C11.1258 11.1559 11.3537 11.1559 11.5772 11.1559C11.6353 11.1559 11.6978 11.1559 11.7559 11.147C12.0956 11.0978 12.2833 10.9235 12.2877 10.633C12.2922 9.87781 12.2922 9.12257 12.2877 8.36287C12.2833 8.0992 12.1849 7.85342 12.0017 7.66126C11.9168 7.57635 11.8006 7.49144 11.6889 7.47803C11.4297 7.45122 11.166 7.46909 10.8979 7.46909C10.8934 8.70697 10.8934 9.92696 10.8934 11.1559ZM7.97082 13.3814C7.96635 12.7736 7.52393 12.3178 6.93404 12.3178C6.3665 12.3178 5.89727 12.787 5.90174 13.3456C5.91068 13.9132 6.40225 14.3958 6.96533 14.3869C7.51946 14.3779 7.97082 13.9266 7.97082 13.3814Z" fill="white"/>
</svg>
