<svg width="20" height="12" viewBox="0 0 20 12" fill="none" xmlns="http://www.w3.org/2000/svg">
<path d="M20.0004 5.79361V6.18639C19.8677 6.38495 19.7472 6.59296 19.6005 6.78009C18.1534 8.6246 16.4259 10.1201 14.2702 11.0735C13.2485 11.5253 12.183 11.8216 11.0678 11.9228C10.8037 11.9469 10.54 11.974 10.2758 12H9.72919C9.47172 11.9748 9.21385 11.9484 8.95638 11.9244C7.33054 11.7719 5.83343 11.2322 4.43376 10.4018C2.74492 9.39952 1.36599 8.05494 0.183094 6.49565C-0.0657708 6.16787 -0.0587275 5.80031 0.194833 5.46584C1.23216 4.09801 2.42601 2.89328 3.85738 1.94148C6.04356 0.487769 8.42656 -0.207963 11.06 0.0544138C12.4217 0.19033 13.7016 0.590986 14.9158 1.21423C16.4411 1.99663 17.7496 3.06308 18.8809 4.3466C19.2831 4.80281 19.6286 5.30944 20.0004 5.79322V5.79361ZM14.1935 5.98547C14.2127 3.71942 12.3458 1.81541 10.1209 1.76617C7.71909 1.71298 5.84908 3.68199 5.80565 5.88462C5.75909 8.24562 7.63262 10.1425 9.87241 10.2107C12.2906 10.2847 14.2369 8.25704 14.1935 5.98547Z" fill="#8E8E8E"/>
<path d="M12.2667 5.98486C12.2643 7.25144 11.2411 8.27022 9.97485 8.26628C8.73717 8.26273 7.73623 7.23489 7.73976 5.97146C7.74328 4.72458 8.77278 3.71092 10.0347 3.71289C11.2673 3.71447 12.269 4.73443 12.2671 5.98486H12.2667Z" fill="#8E8E8E"/>
</svg>
