<svg width="18" height="16" viewBox="0 0 18 16" fill="none" xmlns="http://www.w3.org/2000/svg">
<path d="M8.79197 5.55427L8.78209 5.46531C8.77828 5.43099 8.77471 5.39826 8.77129 5.36678C8.76046 5.2673 8.751 5.18031 8.73926 5.0952L8.73885 5.09226L8.7389 5.09226C8.49193 2.80115 5.86838 1.55664 3.92144 2.8115L3.92136 2.81156C2.63387 3.6395 2.1476 5.1933 2.70954 6.72237L2.70955 6.7224C3.07269 7.71138 3.66878 8.56829 4.3406 9.38073L4.3407 9.38085C5.53129 10.8252 6.91436 12.0758 8.37867 13.2425C8.62917 13.4408 8.88265 13.6353 9.13683 13.8303C9.24421 13.9127 9.35172 13.9951 9.45918 14.078C11.3128 12.6888 13.0495 11.2123 14.5211 9.44718C15.1419 8.70143 15.6965 7.91712 16.0836 7.03073L16.0836 7.03072C16.3766 6.35978 16.5239 5.67713 16.4099 4.95189L16.4099 4.95186C16.1783 3.47489 14.9289 2.38192 13.3771 2.30944L8.79197 5.55427ZM8.79197 5.55427H8.88148M8.79197 5.55427H8.88148M8.88148 5.55427H8.88373H8.88598H8.88824H8.89049H8.89274H8.89499H8.89724H8.8995H8.90175H8.904H8.90625H8.9085H8.91075H8.913H8.91525H8.9175H8.91975H8.922H8.92425H8.9265H8.92875H8.931H8.93325H8.9355H8.93775H8.94H8.94224H8.94449H8.94674H8.94899H8.95124H8.95348H8.95573H8.95798H8.96022H8.96247H8.96472H8.96696H8.96921H8.97146H8.9737H8.97595H8.97819H8.98044H8.98268H8.98493H8.98717H8.98942H8.99166H8.99391H8.99615H8.9984H9.00064H9.00288H9.00513H9.00737H9.00962H9.01186H9.0141H9.01634H9.01859H9.02083H9.02307H9.02531H9.02756H9.0298H9.03204H9.03428H9.03652H9.03876H9.04101H9.04325H9.04549H9.04773H9.04997H9.05221H9.05445H9.05669H9.05893H9.06117H9.06341H9.06565H9.06789H9.07013H9.07237H9.0746H9.07684H9.07908H9.08132H9.08356H9.0858H9.08803H9.09027H9.09251H9.09475H9.09698H9.09922H9.10146H9.1037H9.10593H9.10817H9.11041H9.11264H9.11488H9.11712H9.11935H9.12159H9.12382H9.12606H9.12829H9.13053H9.13276H9.135H9.13723H9.13947H9.1417H9.14394H9.14617H9.14841H9.15064H9.15287H9.15511H9.15734H9.15957H9.16181H9.16404H9.16627H9.16851H9.17074H9.17297H9.1752H9.17744H9.17967H9.1819H9.18413H9.18636H9.1886H9.19083H9.19306H9.19529H9.19752H9.19975H9.20198H9.20421H9.20644H9.20868H9.21091H9.21314H9.21537H9.2176H9.21983H9.22206H9.22429H9.22651H9.22874H9.23097H9.2332H9.23543H9.23766H9.23989H9.24212H9.24435H9.24658H9.2488H9.25103H9.25326H9.25549H9.25772H9.25994H9.26217H9.2644H9.26662H9.26885H9.27108H9.27331H9.27553H9.27776H9.27999H9.28221H9.28444H9.28666H9.28889H9.29112H9.29334H9.29557H9.29779H9.30002H9.30225H9.30447H9.3067H9.30892H9.31115H9.31337H9.3156H9.31782H9.32005H9.32227H9.32449H9.32672H9.32894H9.33117H9.33339H9.33561H9.33784H9.34006H9.34228H9.34451H9.34673H9.34895H9.35118H9.3534H9.35562H9.35785H9.36007H9.36229H9.36451H9.36674H9.36896H9.37118H9.3734H9.37562H9.37784H9.38007H9.38229H9.38451H9.38673H9.38895H9.39117H9.39339H9.39562H9.39784H9.40006H9.40228H9.4045H9.40672H9.40894H9.41116H9.41338H9.4156H9.41782H9.42004H9.42226H9.42448H9.4267H9.42892H9.43114H9.43336H9.43558H9.43779H9.44001H9.44223H9.44445H9.44667H9.44889H9.45111H9.45333H9.45554H9.45776H9.45998H9.4622H9.46442H9.46664H9.46885H9.47107H9.47329H9.47551H9.47772H9.47994H9.48216H9.48438H9.48659H9.48881H9.49103H9.49324H9.49546H9.49768H9.4999H9.50211H9.50433H9.50654H9.50876H9.51098H9.51319H9.51541H9.51762H9.51984H9.52206H9.52427H9.52649H9.5287H9.53092H9.53314H9.53535H9.53757H9.53978H9.542H9.54421H9.54643H9.54864H9.55086H9.55307H9.55529H9.5575H9.55972H9.56193H9.56414H9.56636H9.56857H9.57079H9.573H9.57522H9.57743H9.57964H9.58186H9.58407H9.58628H9.5885H9.59071H9.59293H9.59514H9.59735H9.59957H9.60178H9.60399H9.6062H9.60842H9.61063H9.61284H9.61506H9.61727H9.61948H9.6217H9.62391H9.62612H9.62833H9.63055H9.63276H9.63497H9.63718H9.63939H9.64161H9.64382H9.64603H9.64824H9.65045H9.65267H9.65488H9.65709H9.6593H9.66151H9.66372H9.66594H9.66815H9.67036H9.67257H9.67478H9.67699H9.6792H9.68141H9.68363H9.68584H9.68805H9.69026H9.69247H9.69468H9.69689H9.6991H9.70131H9.70352H9.70573H9.70794H9.71015H9.71236H9.71457H9.71679H9.719H9.72121H9.72342H9.72563H9.72784H9.73005H9.73226H9.73447H9.73668H9.73888H9.7411H9.74331H9.74551H9.74772H9.74993H9.75214H9.75435H9.75656H9.75877H9.76098H9.76319H9.7654H9.76761H9.76982H9.77203H9.77424H9.77645H9.77866H9.78086H9.78307H9.78528H9.78749H9.7897H9.79191H9.79412H9.79633H9.79853H9.80074H9.80295H9.80516H9.80737H9.80958H9.81179H9.81399H9.8162H9.81841H9.82062H9.82283H9.82504H9.82724H9.82945H9.83166H9.83387H9.83608H9.83829H9.84049H9.8427H9.84491H9.84712H9.84933H9.85153H9.85374H9.85595H9.85816H9.86037H9.86257H9.86478H9.86699H9.8692H9.8714H9.87361H9.87582H9.87803H9.88024H9.88244H9.88465H9.88686H9.88907H9.89127H9.89348H9.89569H9.8979H9.9001H9.90231H9.90452H9.90673H9.90893H9.91114H9.91335H9.91556H9.91776H9.91997H9.92218H9.92439H9.92659H9.9288H9.93101H9.93321H9.93542H9.93763H9.93984H9.94204H9.94425H9.94646H9.94866H9.95087H9.95308H9.95529H9.95749H9.9597H9.96191H9.96411H9.96632H9.96853H9.97074H9.97294H9.97515H9.97736H9.97956H9.98177H9.98398H9.98618H9.98839H9.9906H9.99281H9.99501H9.99722H9.99943H10.0016H10.0038H10.006H10.0083H10.0105H10.0127H10.0149H10.0171H10.0193H10.104M8.88148 5.55427H10.104M10.104 5.55427L10.1179 5.47071M10.104 5.55427L10.1179 5.47071M10.1179 5.47071C10.1321 5.38554 10.1447 5.30217 10.1571 5.22026C10.1868 5.02369 10.2153 4.83551 10.2614 4.65081M10.1179 5.47071L10.2614 4.65081M10.2614 4.65081C10.6149 3.25618 11.9698 2.245 13.3771 2.30944L10.2614 4.65081ZM9.38844 15.725L9.44458 15.765L9.50193 15.7268C9.54625 15.6972 9.57011 15.6837 9.59712 15.6702L9.60374 15.6669L9.60981 15.6627C11.6231 14.251 13.5048 12.6806 15.1512 10.8412L15.1513 10.841C15.9864 9.90357 16.7428 8.9026 17.2782 7.74844C17.7555 6.72219 17.9737 5.64823 17.7286 4.51118L17.7286 4.51096C17.3274 2.66949 15.9177 1.32135 13.9991 0.9889L13.9989 0.98887C12.312 0.699685 10.5029 1.4386 9.48443 3.02186C9.47696 3.03306 9.46926 3.04448 9.46127 3.05626C9.43489 3.01535 9.40965 2.9774 9.38242 2.93971C8.29518 1.42092 6.80391 0.719925 4.95174 0.984507C2.24632 1.36985 0.546332 4.02299 1.24779 6.65687C1.57846 7.90786 2.2509 8.96803 3.03164 9.95382L3.0317 9.95389C4.83305 12.2243 7.03869 14.0511 9.38844 15.725Z" fill="white" stroke="white" stroke-width="0.2"/>
</svg>

