<svg width="14" height="17" viewBox="0 0 14 17" fill="none" xmlns="http://www.w3.org/2000/svg">
<path d="M11.0736 17.238H2.89471C2.65658 17.148 2.39888 17.0906 2.18402 16.9621C1.46152 16.5304 1.14581 15.8615 1.14547 15.0341C1.14412 11.7938 1.14491 8.55335 1.14783 5.31279C1.14783 5.18191 1.11916 5.11681 0.985593 5.0733C0.730931 4.99066 0.526864 4.82606 0.351467 4.62166C0.163928 4.40241 0.0816268 4.13898 0 3.87251V3.40029C0.00742061 3.3922 0.020238 3.38511 0.0215872 3.37601C0.159206 2.60392 0.824026 2.05851 1.73777 2.08887C2.29803 2.10742 2.8593 2.09224 3.42023 2.09224H3.60541C3.60541 1.9074 3.60203 1.75055 3.60541 1.59405C3.62328 0.84625 4.06582 0.266431 4.78596 0.0640503C4.92613 0.0252638 5.07091 0.0056345 5.21635 0.00569729C6.40534 0.00097508 7.59466 0.00569727 8.78365 0.00198696C9.60936 -0.00340985 10.3147 0.637461 10.3706 1.43315C10.3858 1.64903 10.3949 1.86524 10.4077 2.09325C10.5005 2.09325 10.5838 2.09325 10.6671 2.09325C11.3286 2.10168 11.9914 2.08482 12.6508 2.12698C13.3409 2.16982 13.89 2.75065 13.9879 3.47045C14.0769 4.12717 13.6603 4.83416 13.0309 5.06554C12.891 5.11715 12.8505 5.17955 12.8508 5.32628C12.8555 8.51939 12.8567 11.7117 12.8542 14.9033C12.8542 14.993 12.8566 15.083 12.8508 15.1731C12.8056 15.8696 12.5351 16.4484 11.9647 16.8717C11.6983 17.068 11.389 17.1598 11.0736 17.238ZM1.95263 5.1836V14.9339C1.95263 14.9788 1.95263 15.0237 1.95263 15.0689C1.98636 15.8838 2.48725 16.4279 3.22999 16.4292C5.74266 16.4337 8.25521 16.4337 10.7676 16.4292C11.2827 16.4292 11.6618 16.1853 11.8929 15.7165C12.013 15.4723 12.0399 15.2129 12.0399 14.9491C12.0415 11.7574 12.0415 8.5656 12.0399 5.37384V5.18461L1.95263 5.1836ZM7.00203 4.3535H12.2842C12.357 4.3535 12.4302 4.3535 12.5027 4.34912C12.8434 4.32955 13.1271 4.06882 13.1642 3.74198C13.2077 3.36251 13.0006 3.03027 12.6511 2.94224C12.5305 2.917 12.4073 2.90657 12.2842 2.91121C8.76251 2.90986 5.24098 2.90986 1.71956 2.91121C1.63543 2.91081 1.55134 2.91464 1.4676 2.92267C1.10938 2.95843 0.860454 3.21478 0.823351 3.58378C0.809835 3.74714 0.853805 3.91009 0.947664 4.04447C1.04152 4.17885 1.17937 4.27623 1.3374 4.31977C1.44614 4.34503 1.55774 4.35581 1.6693 4.35182C3.4462 4.35406 5.22344 4.35463 7.00101 4.3535H7.00203ZM9.57158 2.08347C9.57158 1.89964 9.58001 1.73133 9.56989 1.56403C9.54291 1.13026 9.24777 0.817917 8.81771 0.81387C7.6068 0.802401 6.3959 0.804763 5.18499 0.81387C4.82003 0.816231 4.51038 1.06044 4.45001 1.39268C4.40886 1.61496 4.41628 1.84601 4.40144 2.08448L9.57158 2.08347Z" fill="#616161"/>
<path d="M8.96882 10.453C8.96882 9.24145 8.96882 8.02987 8.96882 6.81829C8.96813 6.73435 8.97456 6.65052 8.98804 6.56767C9.00461 6.48039 9.0501 6.40124 9.11716 6.34298C9.18422 6.28472 9.26896 6.25075 9.35769 6.24654C9.44643 6.24233 9.534 6.26813 9.60627 6.31978C9.67855 6.37144 9.73132 6.44593 9.75608 6.53124C9.77631 6.61256 9.78651 6.69604 9.78643 6.77983C9.78778 9.23651 9.78778 11.6931 9.78643 14.1495C9.78625 14.2277 9.77686 14.3056 9.75844 14.3816C9.73594 14.4686 9.68444 14.5454 9.61243 14.5991C9.54042 14.6529 9.45221 14.6806 9.36238 14.6775C9.27255 14.6744 9.18646 14.6407 9.11834 14.5821C9.05022 14.5234 9.00414 14.4433 8.98771 14.3549C8.97434 14.2721 8.96802 14.1882 8.96882 14.1043C8.96882 12.8878 8.96882 11.6707 8.96882 10.453Z" fill="#616161"/>
<path d="M6.59319 10.4724C6.59319 9.23894 6.59319 8.00509 6.59623 6.77159C6.59569 6.65537 6.61995 6.54038 6.6674 6.43428C6.73486 6.29026 6.8772 6.24034 7.03404 6.25417C7.20033 6.26867 7.31839 6.35704 7.36966 6.51524C7.39287 6.59577 7.40368 6.67937 7.4017 6.76315C7.40305 9.23062 7.40305 11.6981 7.4017 14.1656C7.40324 14.2437 7.39416 14.3216 7.37472 14.3973C7.35045 14.4844 7.29637 14.5603 7.22191 14.6116C7.14745 14.663 7.05733 14.6865 6.96726 14.6782C6.87688 14.6726 6.79121 14.6359 6.72468 14.5745C6.65815 14.5131 6.61481 14.4306 6.60196 14.3409C6.59408 14.2685 6.59127 14.1956 6.59353 14.1227C6.59308 12.9062 6.59297 11.6894 6.59319 10.4724Z" fill="#616161"/>
<path d="M5.01841 10.4715C5.01841 11.7054 5.02044 12.9392 5.01504 14.1727C5.01534 14.2887 4.98855 14.4032 4.93679 14.507C4.86292 14.648 4.71923 14.6952 4.56238 14.6757C4.48906 14.6693 4.41934 14.6411 4.3623 14.5946C4.30527 14.5481 4.26356 14.4855 4.24262 14.4149C4.21996 14.34 4.20915 14.2621 4.21058 14.1839C4.20878 11.7049 4.20878 9.22622 4.21058 6.74774C4.21058 6.4607 4.32256 6.30014 4.54552 6.26135C4.59899 6.25004 4.65425 6.25012 4.70768 6.2616C4.76112 6.27308 4.81154 6.29569 4.85565 6.32796C4.89976 6.36023 4.93657 6.40144 4.96369 6.44889C4.9908 6.49635 5.00761 6.54899 5.01302 6.60337C5.01895 6.67066 5.02098 6.73823 5.01909 6.80575C5.01886 8.02701 5.01864 9.24894 5.01841 10.4715Z" fill="#616161"/>
</svg>
