<svg width="19" height="12" viewBox="0 0 19 12" fill="none" xmlns="http://www.w3.org/2000/svg">
<path fill-rule="evenodd" clip-rule="evenodd" d="M11.9949 1.00031C16.1343 1.00355 16.4293 1.00517 16.5681 1.0311C16.6497 1.0473 16.8025 1.08781 16.9066 1.12022C17.0107 1.15263 17.1565 1.21259 17.2277 1.2531C17.3006 1.29361 17.4012 1.35843 17.4533 1.39894C17.5036 1.43945 17.5887 1.51885 17.6407 1.57718C17.6911 1.63552 17.7726 1.75543 17.8195 1.84456C17.8664 1.93368 17.9271 2.07952 18 2.33069V7.53228L17.9601 7.67811C17.9393 7.75751 17.8872 7.89039 17.8438 7.96979C17.8021 8.04919 17.7327 8.15614 17.6876 8.20475C17.6442 8.25337 17.5678 8.32467 17.5175 8.36356C17.4672 8.40083 17.3769 8.45592 17.3144 8.48671C17.252 8.5175 17.1513 8.55801 17.0888 8.57745C17.0263 8.59528 16.9014 8.62121 16.8111 8.63417C16.6758 8.65361 16.3512 8.65848 13.392 8.65848L13.3729 8.75246C13.3625 8.80269 13.3278 8.94367 13.2966 9.06358C13.2636 9.1835 13.2063 9.36985 13.1664 9.47679C13.1265 9.58374 13.0571 9.74417 13.0119 9.83329C12.9668 9.92241 12.8957 10.0456 12.8523 10.1088C12.8089 10.172 12.7204 10.2757 12.6527 10.3421C12.5867 10.4069 12.4861 10.4896 12.4288 10.5236C12.3715 10.5592 12.2639 10.6062 12.1893 10.6273C12.0886 10.6581 12.0175 10.6678 11.9046 10.6678C11.8196 10.6678 11.7033 10.6565 11.6426 10.6435C11.5836 10.6305 11.4898 10.5998 11.4343 10.5771C11.3805 10.5544 11.2989 10.5155 11.1705 10.441L11.0091 10.5836C10.9223 10.6613 10.806 10.7521 10.754 10.7829C10.7019 10.8153 10.6186 10.8606 10.5717 10.8833C10.5231 10.906 10.4311 10.9417 10.3635 10.9611C10.2611 10.9935 10.2072 11 10.025 11C9.84625 11 9.7855 10.9935 9.6779 10.9627C9.60674 10.9417 9.48525 10.8931 9.40888 10.8558C9.33252 10.8185 9.2197 10.7521 9.15722 10.7083C9.09648 10.663 8.99755 10.5819 8.83614 10.428L8.71812 10.4831C8.65391 10.5139 8.53415 10.5592 8.44911 10.5868C8.3658 10.6127 8.22001 10.6451 8.12455 10.6613C8.00306 10.6792 7.9024 10.684 7.78612 10.6775C7.69587 10.6727 7.57785 10.6565 7.52578 10.6435C7.47371 10.6305 7.37999 10.5965 7.31751 10.569C7.23941 10.5333 7.16478 10.4782 7.07453 10.394C7.00337 10.3259 6.9218 10.2303 6.89403 10.1817C6.86626 10.1331 6.84022 10.0893 6.83849 10.0845C6.83502 10.0796 6.77948 10.1023 6.71526 10.1363C6.64931 10.1687 6.51567 10.2271 6.41501 10.2676C6.31434 10.3065 6.13384 10.3697 6.01062 10.4069C5.88913 10.4426 5.7364 10.4847 5.66871 10.4977C5.56457 10.5187 5.22961 10.522 1 10.522V10.0196H5.50383L5.66871 9.98237C5.75896 9.95968 5.90822 9.91593 5.99847 9.8819C6.08872 9.84787 6.22583 9.79116 6.3022 9.75551C6.37856 9.71986 6.50352 9.65828 6.57989 9.61777C6.65625 9.57726 6.82113 9.48166 6.94436 9.40711C7.06759 9.33096 7.23247 9.22563 7.30883 9.17215C7.3852 9.11868 7.53793 9.00525 7.64727 8.91936C7.75661 8.8351 8.0343 8.59042 8.2634 8.3749C8.51853 8.13508 8.74416 7.94062 8.84482 7.86932C8.93507 7.80775 9.07218 7.71862 9.14855 7.67487C9.22491 7.63112 9.36896 7.55334 9.46963 7.50311C9.57029 7.45449 9.83931 7.3362 10.0684 7.2406C10.2975 7.14499 10.5596 7.03156 10.6498 6.98619C10.7401 6.94082 10.8494 6.88248 10.8928 6.85493C10.9362 6.82739 11.016 6.76419 11.0716 6.71558C11.1271 6.66534 11.1948 6.58756 11.2226 6.54381C11.2486 6.49844 11.2989 6.39635 11.3319 6.31695C11.3666 6.23755 11.4065 6.1144 11.4204 6.04472C11.436 5.97666 11.4482 5.85999 11.4482 5.78545C11.4482 5.71253 11.436 5.60882 11.4222 5.55535C11.4083 5.50187 11.3736 5.41761 11.3475 5.369C11.3128 5.30256 11.2746 5.26367 11.2052 5.2183C11.1375 5.17617 11.0716 5.15024 10.9796 5.13241C10.8928 5.11621 10.8147 5.11135 10.7453 5.11783C10.688 5.12431 10.5873 5.1389 10.5197 5.15186C10.452 5.16482 10.3235 5.19723 10.2333 5.22478C10.143 5.25233 9.9903 5.30418 9.89484 5.33983C9.79939 5.37548 9.63624 5.43868 9.53037 5.48243C9.4245 5.52456 9.1121 5.65581 8.83614 5.77411C8.56018 5.8924 8.19224 6.04472 8.02042 6.1144C7.8486 6.18407 7.61429 6.27482 7.49974 6.31695C7.3852 6.35908 7.21685 6.42552 7.1266 6.46603C7.03635 6.50492 6.8437 6.59728 6.70138 6.66858C6.55733 6.7415 6.36641 6.84035 6.27616 6.88896C6.18591 6.93758 6.06095 7.00725 5.99847 7.0429C5.90822 7.09638 5.87004 7.11096 5.80756 7.10934C5.76243 7.10934 5.70516 7.09638 5.67044 7.07855C5.63747 7.06073 5.59581 7.02508 5.57499 7.00077C5.54722 6.96674 5.53854 6.93109 5.53854 6.86142C5.53854 6.7885 5.54722 6.75609 5.58193 6.7091C5.6097 6.67182 5.7121 6.60053 5.87698 6.50168C6.01582 6.42066 6.15467 6.34126 6.24145 6.30075V4.46966C6.24145 3.46175 6.24666 2.54458 6.26748 2.22374L5.43093 2.23346L5.25043 2.31772C5.15151 2.36309 4.9415 2.47977 4.78356 2.57861C4.62563 2.67584 4.34099 2.86543 4.15008 2.9983C3.95916 3.13118 3.60684 3.38721 3.36907 3.56384C3.12956 3.74208 2.71996 4.05483 2.45789 4.259C2.19581 4.46318 1.78969 4.78402 1.55712 4.97199C1.32282 5.15834 1.1024 5.33659 1 5.41761L1.00174 4.72893L1.43042 4.38701C1.66646 4.19742 2.03093 3.90899 2.24094 3.74694C2.45094 3.58328 2.75988 3.3467 2.92649 3.22192C3.09311 3.09715 3.38642 2.88487 3.57734 2.75038C3.76825 2.61588 4.04074 2.42953 4.18479 2.33717C4.32711 2.2448 4.53885 2.11679 4.65339 2.05197C4.76794 1.98877 4.94324 1.89965 5.0439 1.85428C5.14456 1.81053 5.273 1.76191 5.33027 1.74895C5.41184 1.72951 5.5368 1.72302 6.3803 1.72302L6.45319 1.58853C6.50526 1.49616 6.56427 1.42162 6.64931 1.3406C6.7465 1.24986 6.80378 1.21097 6.93568 1.15101C7.02593 1.1105 7.15436 1.06513 7.22205 1.05054C7.28974 1.03596 7.39387 1.01814 7.45636 1.01165C7.51884 1.00355 9.56161 0.99869 11.9949 1.00031ZM7.22205 1.59987C7.14395 1.63552 7.07279 1.68251 7.02246 1.73437C6.97907 1.77812 6.92353 1.8559 6.89576 1.90613C6.86973 1.95637 6.83675 2.04387 6.82287 2.09896C6.80898 2.15568 6.79336 2.25939 6.78642 2.33069C6.77948 2.40198 6.77948 2.49435 6.78642 2.53648L6.79684 2.61426H17.4533C17.4533 2.48787 17.4411 2.39874 17.4255 2.33393C17.4099 2.27073 17.3682 2.1573 17.3301 2.08438C17.2797 1.98391 17.2329 1.92234 17.1444 1.84132C17.0593 1.76029 16.9882 1.7133 16.8806 1.66307C16.799 1.6258 16.6862 1.58367 16.6289 1.5707C16.5716 1.55774 16.4588 1.53829 16.3772 1.52857C16.2766 1.51723 14.8308 1.51237 11.8821 1.51399C9.45401 1.51561 7.4928 1.52209 7.439 1.53019C7.38693 1.53829 7.28974 1.56908 7.22205 1.59987ZM6.79684 6.04958C7.39561 5.8211 7.70628 5.70119 7.87289 5.63313C8.03951 5.56507 8.52027 5.36252 8.94028 5.18265C9.36029 5.00278 9.77509 4.82939 9.86013 4.79698C9.94691 4.7662 10.0701 4.72406 10.1378 4.70624C10.2055 4.68679 10.3131 4.65925 10.3808 4.64628C10.4485 4.6317 10.5891 4.61712 10.6932 4.61226C10.806 4.60739 10.9483 4.61063 11.0403 4.6236C11.134 4.63494 11.2382 4.66087 11.3007 4.68679C11.3579 4.7111 11.4517 4.75971 11.5089 4.79698C11.5662 4.83263 11.6582 4.90879 11.7137 4.96551C11.7693 5.02222 11.8404 5.11945 11.8734 5.18265C11.9064 5.24422 11.9463 5.34631 11.9619 5.40951C11.9827 5.48729 11.9932 5.591 11.9932 5.7417C11.9932 5.88592 11.9827 6.01069 11.9619 6.10629C11.9446 6.1857 11.9081 6.32181 11.8786 6.40607C11.8491 6.49034 11.7988 6.61835 11.7641 6.68965C11.7311 6.76095 11.6738 6.8598 11.6391 6.90841C11.6044 6.95702 11.5246 7.04128 11.4638 7.09314C11.4031 7.14661 11.2903 7.22763 11.2139 7.27463C11.1375 7.32 10.9726 7.40588 10.8494 7.46422C10.7262 7.52093 10.4763 7.6295 10.294 7.70242C10.1118 7.77534 9.89484 7.86932 9.80807 7.90822C9.72302 7.94873 9.58591 8.02327 9.50434 8.0735L9.35681 8.16424C15.0651 8.17073 16.5734 8.16748 16.6723 8.15776C16.7625 8.14966 16.8806 8.12697 16.9326 8.10915C16.9847 8.09132 17.0663 8.04757 17.1149 8.01354C17.1617 7.98113 17.2346 7.90497 17.2763 7.84826C17.3179 7.7883 17.37 7.68622 17.3943 7.6133C17.4221 7.53065 17.4429 7.41398 17.4533 7.28921C17.462 7.18226 17.4706 6.34936 17.4706 5.43706V3.78097H6.79684V6.04958ZM8.02042 9.29531C7.89719 9.39253 7.69066 9.54323 7.56396 9.63236C7.42164 9.7312 7.33486 9.80412 7.33486 9.82033C7.33486 9.83653 7.35396 9.88514 7.37478 9.93052C7.39735 9.97427 7.439 10.0294 7.46677 10.052C7.49454 10.0747 7.56396 10.1104 7.62124 10.1314C7.70107 10.1606 7.76008 10.1687 7.87289 10.1687C7.95447 10.1687 8.0586 10.1606 8.1072 10.1509C8.15406 10.1412 8.24778 10.1169 8.31547 10.0974C8.4144 10.0666 8.45431 10.0439 8.53415 9.97103C8.59663 9.91269 8.65043 9.84139 8.68688 9.76847C8.71812 9.70527 8.76325 9.5886 8.78581 9.5092C8.80837 9.42818 8.83788 9.29368 8.8535 9.20942C8.86738 9.12516 8.883 8.96636 8.88647 8.85617L8.89515 8.65848C8.75283 8.6601 8.73895 8.6682 8.4977 8.8902C8.35886 9.01659 8.14364 9.1997 8.02042 9.29531ZM11.5298 8.70223C11.5367 8.72815 11.5419 8.87075 11.5419 9.02307C11.5402 9.21428 11.528 9.36823 11.502 9.52541C11.4812 9.65018 11.4534 9.79602 11.4412 9.84949L11.4152 9.94672C11.4985 10.0099 11.5541 10.0488 11.594 10.0731C11.6339 10.0974 11.7085 10.1298 11.7606 10.1444C11.8196 10.159 11.8821 10.1655 11.9255 10.159C11.9637 10.1525 12.0348 10.1314 12.0817 10.1104C12.132 10.0877 12.2084 10.031 12.2622 9.97589C12.3125 9.92403 12.3941 9.82681 12.4409 9.76037C12.4878 9.69393 12.5607 9.5724 12.6023 9.493C12.6423 9.41198 12.7013 9.27586 12.7308 9.18836C12.7603 9.10247 12.7967 8.96798 12.8106 8.88858C12.8245 8.8108 12.8367 8.72815 12.8367 8.70223V8.65848H11.5176L11.5298 8.70223ZM9.44359 8.75894C9.44012 8.80593 9.42971 8.91288 9.4245 8.99715C9.4193 9.08303 9.39847 9.23211 9.37938 9.32934C9.36202 9.42818 9.33425 9.54809 9.32037 9.59671C9.30475 9.64694 9.2683 9.75713 9.23706 9.84463L9.18152 10.0034C9.41062 10.219 9.53211 10.3178 9.59806 10.3616C9.66575 10.4053 9.75947 10.4523 9.80633 10.4669C9.87055 10.4863 9.93129 10.4912 10.032 10.4847C10.1552 10.4766 10.1916 10.4669 10.3496 10.394C10.4763 10.334 10.5544 10.2854 10.6221 10.2206C10.6857 10.1622 10.7407 10.0882 10.7869 9.99857C10.8269 9.92565 10.8754 9.79602 10.8997 9.71014C10.9223 9.62587 10.9501 9.48328 10.9605 9.39415C10.9709 9.30503 10.9778 9.10896 10.9744 8.95664L10.9692 8.68116L9.45401 8.67306L9.44359 8.75894Z" fill="white" stroke="white" stroke-width="0.2"/>
</svg>
