<svg width="16" height="16" viewBox="0 0 16 16" fill="none" xmlns="http://www.w3.org/2000/svg">
<path d="M15.9998 1.90622C15.9619 2.02896 15.9415 2.1611 15.8824 2.27256C15.7834 2.45886 15.6826 2.65299 15.5417 2.80642C15.2398 3.13456 14.912 3.43828 14.6067 3.74074C13.8258 2.96016 13.048 2.18207 12.2593 1.39335C12.2665 1.38458 12.2893 1.35202 12.3169 1.32415C12.5333 1.10654 12.7596 0.898317 12.965 0.670998C13.2738 0.328767 13.6411 0.095499 14.0935 0C14.2498 0 14.406 0 14.5623 0C14.5911 0.0100196 14.6192 0.0234834 14.649 0.0300587C15.2843 0.166888 15.7042 0.548258 15.9218 1.15601C15.9547 1.24744 15.9741 1.34356 15.9998 1.43781V1.90654V1.90622Z" fill="#8E8E8E"/>
<path d="M6.6607 15.9991C5.11891 15.9991 3.57743 15.9998 2.03564 15.9991C0.876476 15.9985 5.96746e-05 15.1237 -0.000253443 13.9664C-0.000566561 10.8779 -0.000566561 7.78935 -0.000253443 4.70114C-0.000253443 3.54795 0.87992 2.66278 2.03376 2.66121C3.7891 2.65871 5.54412 2.65965 7.29946 2.66121C7.6633 2.66153 7.9498 2.90137 7.99521 3.23202C8.04249 3.57707 7.83646 3.89049 7.49829 3.97816C7.42408 3.99726 7.34392 3.99851 7.26658 3.99851C5.54788 3.99945 3.82918 4.00634 2.11047 3.99444C1.66522 3.99131 1.33112 4.27937 1.333 4.76219C1.34459 7.80908 1.34459 10.8557 1.33238 13.9025C1.3305 14.3597 1.64956 14.6687 2.09356 14.6669C5.14552 14.6553 8.19779 14.6559 11.2498 14.6659C11.7069 14.6675 12.0066 14.345 12.0041 13.9072C11.9947 12.1626 11.9997 10.4176 12.0006 8.67296C12.0006 8.34826 12.2054 8.08994 12.5154 8.01386C12.8085 7.94184 13.13 8.08712 13.2593 8.36673C13.306 8.46724 13.3351 8.58591 13.3354 8.69644C13.3398 10.4724 13.3454 12.2484 13.3354 14.0243C13.3295 15.1212 12.4299 15.9976 11.3321 15.9988C9.77497 16.0004 8.21752 15.9991 6.66039 15.9991H6.6607Z" fill="#8E8E8E"/>
<path d="M11.5109 2.13623C12.2959 2.9212 13.0752 3.70022 13.8643 4.48958C13.8355 4.51995 13.7951 4.56504 13.7525 4.60793C12.0999 6.26085 10.4444 7.91126 8.79773 9.57013C8.61549 9.75361 8.42042 9.85819 8.16993 9.90421C7.50111 10.027 6.83511 10.165 6.16848 10.299C5.82092 10.3689 5.62992 10.1826 5.69911 9.83877C5.84346 9.12112 5.98781 8.40347 6.1284 7.68519C6.15752 7.5374 6.21858 7.4178 6.32754 7.30883C8.0237 5.61834 9.71641 3.92441 11.4101 2.23173C11.4461 2.19572 11.4843 2.16159 11.5112 2.13623H11.5109Z" fill="#8E8E8E"/>
</svg>
